<svg xmlns="http://www.w3.org/2000/svg" width="658" height="64" viewBox="0 0 658 64">
  <g fill="none" fill-rule="evenodd" transform="translate(0 1)">
    <path fill="#1D1D1D" d="M270.149414 14.8476562L272.671875 14.8476562 272.671875 44.7070312 270.149414 44.7070312 270.149414 19.1542969 253.148438 44.7070312 250.605469 44.7070312 250.605469 14.8476562 253.148438 14.8476562 253.148438 40.3798828 270.149414 14.8476562zM287.970703 43.0458984C289.679696 43.0458984 291.111811 42.5639697 292.26709 41.6000977 293.422369 40.6362256 294.047851 39.3886795 294.143555 37.8574219L296.501953 37.8574219C296.433593 39.2109443 296.00977 40.4448186 295.230469 41.559082 294.451168 42.6733454 293.415534 43.5449187 292.123535 44.1738281 290.831537 44.8027375 289.447273 45.1171875 287.970703 45.1171875 285.058579 45.1171875 282.751473 44.1054789 281.049316 42.0820312 279.347159 40.0585836 278.496094 37.3379077 278.496094 33.9199219L278.496094 33.1816406C278.496094 30.9941297 278.878902 29.0595787 279.644531 27.3779297 280.41016 25.6962807 281.507317 24.3974655 282.936035 23.4814453 284.364753 22.5654251 286.036123 22.1074219 287.950195 22.1074219 290.383801 22.1074219 292.390129 22.832024 293.969238 24.28125 295.548348 25.730476 296.392578 27.6376835 296.501953 30.0029297L294.143555 30.0029297C294.034179 28.2665929 293.408697 26.8652397 292.26709 25.7988281 291.125483 24.7324165 289.686532 24.1992188 287.950195 24.1992188 285.73534 24.1992188 284.016119 24.9990154 282.79248 26.5986328 281.568842 28.1982502 280.957031 30.4404153 280.957031 33.3251953L280.957031 34.0429688C280.957031 36.873061 281.568842 39.0810468 282.79248 40.6669922 284.016119 42.2529376 285.742176 43.0458984 287.970703 43.0458984zM307.432617 34.5351562L304.02832 34.5351562 304.02832 44.7070312 301.546875 44.7070312 301.546875 22.5175781 304.02832 22.5175781 304.02832 32.3613281 307.391602 32.3613281 315.533203 22.5175781 318.629883 22.5175781 309.524414 33.2841797 319.634766 44.7070312 316.394531 44.7070312 307.432617 34.5351562zM330.196289 41.1796875L336.676758 22.5175781 339.322266 22.5175781 329.847656 48.4804688 329.355469 49.6289062C328.138666 52.3222791 326.258802 53.6689453 323.71582 53.6689453 323.127927 53.6689453 322.499027 53.5732431 321.829102 53.3818359L321.808594 51.3515625 323.080078 51.4746094C324.283209 51.4746094 325.25732 51.1772491 326.002441 50.5825195 326.747562 49.98779 327.37988 48.9658276 327.899414 47.5166016L328.986328 44.5224609 320.619141 22.5175781 323.305664 22.5175781 330.196289 41.1796875zM351.319336 43.0458984C353.028329 43.0458984 354.460443 42.5639697 355.615723 41.6000977 356.771002 40.6362256 357.396484 39.3886795 357.492188 37.8574219L359.850586 37.8574219C359.782226 39.2109443 359.358402 40.4448186 358.579102 41.559082 357.799801 42.6733454 356.764167 43.5449187 355.472168 44.1738281 354.180169 44.8027375 352.795906 45.1171875 351.319336 45.1171875 348.407212 45.1171875 346.100106 44.1054789 344.397949 42.0820312 342.695792 40.0585836 341.844727 37.3379077 341.844727 33.9199219L341.844727 33.1816406C341.844727 30.9941297 342.227535 29.0595787 342.993164 27.3779297 343.758793 25.6962807 344.85595 24.3974655 346.284668 23.4814453 347.713386 22.5654251 349.384756 22.1074219 351.298828 22.1074219 353.732434 22.1074219 355.738762 22.832024 357.317871 24.28125 358.896981 25.730476 359.74121 27.6376835 359.850586 30.0029297L357.492188 30.0029297C357.382812 28.2665929 356.75733 26.8652397 355.615723 25.7988281 354.474115 24.7324165 353.035165 24.1992188 351.298828 24.1992188 349.083973 24.1992188 347.364752 24.9990154 346.141113 26.5986328 344.917474 28.1982502 344.305664 30.4404153 344.305664 33.3251953L344.305664 34.0429688C344.305664 36.873061 344.917474 39.0810468 346.141113 40.6669922 347.364752 42.2529376 349.090809 43.0458984 351.319336 43.0458984zM372.955078 43.0458984C374.664071 43.0458984 376.096186 42.5639697 377.251465 41.6000977 378.406744 40.6362256 379.032226 39.3886795 379.12793 37.8574219L381.486328 37.8574219C381.417968 39.2109443 380.994145 40.4448186 380.214844 41.559082 379.435543 42.6733454 378.399909 43.5449187 377.10791 44.1738281 375.815912 44.8027375 374.431648 45.1171875 372.955078 45.1171875 370.042954 45.1171875 367.735848 44.1054789 366.033691 42.0820312 364.331534 40.0585836 363.480469 37.3379077 363.480469 33.9199219L363.480469 33.1816406C363.480469 30.9941297 363.863277 29.0595787 364.628906 27.3779297 365.394535 25.6962807 366.491692 24.3974655 367.92041 23.4814453 369.349128 22.5654251 371.020498 22.1074219 372.93457 22.1074219 375.368176 22.1074219 377.374504 22.832024 378.953613 24.28125 380.532723 25.730476 381.376953 27.6376835 381.486328 30.0029297L379.12793 30.0029297C379.018554 28.2665929 378.393072 26.8652397 377.251465 25.7988281 376.109858 24.7324165 374.670907 24.1992188 372.93457 24.1992188 370.719715 24.1992188 369.000494 24.9990154 367.776855 26.5986328 366.553217 28.1982502 365.941406 30.4404153 365.941406 33.3251953L365.941406 34.0429688C365.941406 36.873061 366.553217 39.0810468 367.776855 40.6669922 369.000494 42.2529376 370.726551 43.0458984 372.955078 43.0458984zM402.322266 24.609375L394.242188 24.609375 394.242188 44.7070312 391.78125 44.7070312 391.78125 24.609375 384.008789 24.609375 384.008789 22.5175781 402.322266 22.5175781 402.322266 24.609375zM406.608398 44.7070312L406.608398 22.5175781 414.75 22.5175781C417.56642 22.5175781 419.726555 23.0200145 421.230469 24.0249023 422.734383 25.0297902 423.486328 26.50292 423.486328 28.4443359 423.486328 29.5517633 423.151371 30.5395464 422.481445 31.4077148 421.81152 32.2758832 420.833991 32.9082011 419.548828 33.3046875 420.998054 33.5781264 422.16357 34.2001905 423.04541 35.1708984 423.927251 36.1416064 424.368164 37.2695248 424.368164 38.5546875 424.368164 40.5097754 423.64698 42.0239204 422.20459 43.097168 420.7622 44.1704155 418.721693 44.7070312 416.083008 44.7070312L406.608398 44.7070312zM409.048828 34.4941406L409.048828 42.65625 416.165039 42.65625C418.010751 42.65625 419.432612 42.3007848 420.430664 41.5898438 421.428716 40.8789027 421.927734 39.8535223 421.927734 38.5136719 421.927734 37.283197 421.428716 36.3056677 420.430664 35.5810547 419.432612 34.8564417 418.010751 34.4941406 416.165039 34.4941406L409.048828 34.4941406zM409.048828 32.4433594L415.262695 32.4433594C419.118183 32.3886716 421.045898 31.0761847 421.045898 28.5058594 421.045898 27.152337 420.516119 26.1645539 419.456543 25.5424805 418.396967 24.920407 416.828135 24.609375 414.75 24.609375L409.048828 24.609375 409.048828 32.4433594zM428.469727 33.2841797C428.469727 31.1513565 428.883297 29.2304773 429.710449 27.5214844 430.537602 25.8124915 431.706535 24.4829149 433.217285 23.5327148 434.728035 22.5825148 436.44042 22.1074219 438.354492 22.1074219 441.307632 22.1074219 443.700186 23.143056 445.532227 25.2143555 447.364267 27.2856549 448.280273 30.0302563 448.280273 33.4482422L448.280273 33.9609375C448.280273 36.1074326 447.866703 38.0385656 447.039551 39.7543945 446.212398 41.4702234 445.046883 42.7929641 443.542969 43.7226562 442.039055 44.6523484 440.323252 45.1171875 438.395508 45.1171875 435.45604 45.1171875 433.066904 44.0815533 431.228027 42.0102539 429.389151 39.9389545 428.469727 37.194353 428.469727 33.7763672L428.469727 33.2841797zM430.930664 33.9609375C430.930664 36.6132945 431.617669 38.7905188 432.991699 40.4926758 434.36573 42.1948327 436.166981 43.0458984 438.395508 43.0458984 440.610363 43.0458984 442.404778 42.1948327 443.778809 40.4926758 445.152839 38.7905188 445.839844 36.5449358 445.839844 33.7558594L445.839844 33.2841797C445.839844 31.5888587 445.525394 30.0371164 444.896484 28.6289062 444.267575 27.2206961 443.385748 26.130375 442.250977 25.3579102 441.116205 24.5854454 439.81739 24.1992188 438.354492 24.1992188 436.166981 24.1992188 434.382819 25.0571203 433.001953 26.7729492 431.621087 28.4887781 430.930664 30.7343611 430.930664 33.5097656L430.930664 33.9609375zM476.560547 28.3828125C476.560547 27.0429621 476.061528 26.0107458 475.063477 25.2861328 474.065425 24.5615198 472.691415 24.1992188 470.941406 24.1992188 469.355461 24.1992188 467.998541 24.605953 466.870605 25.4194336 465.74267 26.2329142 465.178711 27.2617125 465.178711 28.5058594L462.738281 28.5058594C462.738281 26.660147 463.527824 25.1357482 465.106934 23.9326172 466.686043 22.7294862 468.630848 22.1279297 470.941406 22.1279297 473.484388 22.1279297 475.46679 22.6747992 476.888672 23.7685547 478.310554 24.8623102 479.021484 26.4140525 479.021484 28.4238281 479.021484 29.4902397 478.693363 30.4540973 478.037109 31.3154297 477.380856 32.1767621 476.423834 32.8466773 475.166016 33.3251953 478.00978 34.1044961 479.431641 35.8681503 479.431641 38.6162109 479.431641 40.6123147 478.659187 42.1914004 477.114258 43.3535156 475.569328 44.5156308 473.518567 45.0966797 470.961914 45.0966797 468.487292 45.0966797 466.436532 44.4746156 464.80957 43.2304688 463.182609 41.9863219 462.369141 40.359385 462.369141 38.3496094L464.830078 38.3496094C464.830078 39.6894598 465.421381 40.8071244 466.604004 41.7026367 467.786627 42.598149 469.239249 43.0458984 470.961914 43.0458984 472.83497 43.0458984 474.301264 42.652836 475.36084 41.8666992 476.420415 41.0805625 476.950195 40.010749 476.950195 38.6572266 476.950195 37.1669847 476.464849 36.0937533 475.494141 35.4375 474.523433 34.7812467 473.040049 34.453125 471.043945 34.453125L467.660156 34.453125 467.660156 32.3203125 471.454102 32.3203125C474.858415 32.2382808 476.560547 30.925794 476.560547 28.3828125zM498.832031 44.7070312C498.585936 44.0097621 498.428711 42.9775459 498.360352 41.6103516 497.499019 42.7314509 496.401862 43.5961884 495.068848 44.2045898 493.735833 44.8129913 492.324226 45.1171875 490.833984 45.1171875 488.701161 45.1171875 486.975104 44.5224669 485.655762 43.3330078 484.336419 42.1435487 483.676758 40.6396575 483.676758 38.8212891 483.676758 36.661122 484.575675 34.9521547 486.373535 33.6943359 488.171396 32.4365171 490.676742 31.8076172 493.889648 31.8076172L498.339844 31.8076172 498.339844 29.2851562C498.339844 27.6992108 497.851079 26.4516647 496.873535 25.5424805 495.895991 24.6332962 494.470712 24.1787109 492.597656 24.1787109 490.888663 24.1787109 489.473638 24.6162066 488.352539 25.4912109 487.23144 26.3662153 486.670898 27.4189392 486.670898 28.6494141L484.209961 28.6289062C484.209961 26.8652256 485.030265 25.3374088 486.670898 24.0454102 488.311532 22.7534115 490.328113 22.1074219 492.720703 22.1074219 495.195325 22.1074219 497.146966 22.726068 498.575684 23.9633789 500.004402 25.2006898 500.739258 26.9267467 500.780273 29.1416016L500.780273 39.6416016C500.780273 41.7880967 501.005857 43.3945259 501.457031 44.4609375L501.457031 44.7070312 498.832031 44.7070312zM491.121094 42.9433594C492.761727 42.9433594 494.228021 42.546879 495.52002 41.7539062 496.812018 40.9609335 497.75195 39.9013738 498.339844 38.5751953L498.339844 33.6943359 493.951172 33.6943359C491.503894 33.7216798 489.589851 34.1694293 488.208984 35.0375977 486.828118 35.9057661 486.137695 37.0986252 486.137695 38.6162109 486.137695 39.8603578 486.599116 40.892574 487.521973 41.7128906 488.444829 42.5332072 489.644524 42.9433594 491.121094 42.9433594zM509.824219 22.5175781L509.824219 42.6357422 519.708984 42.6357422 519.708984 22.5175781 522.169922 22.5175781 522.169922 42.6357422 531.931641 42.6357422 531.931641 22.5175781 534.392578 22.5175781 534.392578 42.6357422 537.058594 42.6357422 536.874023 51.2900391 534.618164 51.2900391 534.618164 44.7070312 507.363281 44.7070312 507.363281 22.5175781 509.824219 22.5175781zM555.597656 22.5175781L558.058594 22.5175781 558.058594 44.7070312 555.597656 44.7070312 555.597656 26.4755859 543.621094 44.7070312 541.180664 44.7070312 541.180664 22.5175781 543.621094 22.5175781 543.621094 40.7695312 555.597656 22.5175781zM567.123047 22.5175781L567.123047 42.6357422 577.007812 42.6357422 577.007812 22.5175781 579.46875 22.5175781 579.46875 42.6357422 589.230469 42.6357422 589.230469 22.5175781 591.691406 22.5175781 591.691406 42.6357422 594.357422 42.6357422 594.172852 51.2900391 591.916992 51.2900391 591.916992 44.7070312 564.662109 44.7070312 564.662109 22.5175781 567.123047 22.5175781zM612.322266 44.7070312C612.076171 44.0097621 611.918946 42.9775459 611.850586 41.6103516 610.989254 42.7314509 609.892097 43.5961884 608.559082 44.2045898 607.226068 44.8129913 605.814461 45.1171875 604.324219 45.1171875 602.191396 45.1171875 600.465339 44.5224669 599.145996 43.3330078 597.826654 42.1435487 597.166992 40.6396575 597.166992 38.8212891 597.166992 36.661122 598.065909 34.9521547 599.86377 33.6943359 601.66163 32.4365171 604.166976 31.8076172 607.379883 31.8076172L611.830078 31.8076172 611.830078 29.2851562C611.830078 27.6992108 611.341313 26.4516647 610.36377 25.5424805 609.386226 24.6332962 607.960947 24.1787109 606.087891 24.1787109 604.378898 24.1787109 602.963873 24.6162066 601.842773 25.4912109 600.721674 26.3662153 600.161133 27.4189392 600.161133 28.6494141L597.700195 28.6289062C597.700195 26.8652256 598.5205 25.3374088 600.161133 24.0454102 601.801766 22.7534115 603.818347 22.1074219 606.210938 22.1074219 608.685559 22.1074219 610.6372 22.726068 612.065918 23.9633789 613.494636 25.2006898 614.229492 26.9267467 614.270508 29.1416016L614.270508 39.6416016C614.270508 41.7880967 614.496091 43.3945259 614.947266 44.4609375L614.947266 44.7070312 612.322266 44.7070312zM604.611328 42.9433594C606.251961 42.9433594 607.718255 42.546879 609.010254 41.7539062 610.302253 40.9609335 611.242185 39.9013738 611.830078 38.5751953L611.830078 33.6943359 607.441406 33.6943359C604.994128 33.7216798 603.080085 34.1694293 601.699219 35.0375977 600.318352 35.9057661 599.62793 37.0986252 599.62793 38.6162109 599.62793 39.8603578 600.089351 40.892574 601.012207 41.7128906 601.935063 42.5332072 603.134758 42.9433594 604.611328 42.9433594zM636.74707 24.609375L628.666992 24.609375 628.666992 44.7070312 626.206055 44.7070312 626.206055 24.609375 618.433594 24.609375 618.433594 22.5175781 636.74707 22.5175781 636.74707 24.609375zM643.473633 30.5771484L649.87207 30.5771484C651.512704 30.5771484 652.951654 30.8745087 654.188965 31.4692383 655.426276 32.0639678 656.36279 32.88769 656.998535 33.9404297 657.634281 34.9931693 657.952148 36.2167899 657.952148 37.6113281 657.952148 39.7578232 657.217293 41.4770443 655.747559 42.769043 654.277825 44.0610416 652.292005 44.7070312 649.790039 44.7070312L641.033203 44.7070312 641.033203 22.5175781 643.473633 22.5175781 643.473633 30.5771484zM643.473633 32.6689453L643.473633 42.6357422 649.831055 42.6357422C651.594735 42.6357422 652.978999 42.1914107 653.983887 41.3027344 654.988775 40.4140581 655.491211 39.1972733 655.491211 37.6523438 655.491211 36.1757739 655.002446 34.9829147 654.024902 34.0737305 653.047358 33.1645462 651.710946 32.6962892 650.015625 32.6689453L643.473633 32.6689453zM116.766484 16L149.98196 45.9847944 141.697068 45.9847944 108.475867 16.0042309 116.766484 16zM126.355247 37.3407715L116.777434 45.9847944 108.494782 45.9847944 118.062141 37.3407715 126.355247 37.3407715zM140.413108 24.6534802L132.119754 24.6534802 141.703041 16.0042309 149.997889 16.0042309 140.413108 24.6534802zM20.7524244 16L41.5135596 45.9847944 34.6699185 45.9847944 17.373162 20.8857196 20.7524244 16zM18.7611533 28.6915222L6.84364107 45.9847944 0 45.9847944 11.9737586 28.6915222 18.7611533 28.6915222zM83.2212438 16L103.982379 45.9847944 97.1387379 45.9847944 79.8419814 20.8857196 83.2212438 16zM74.442578 28.6915222L81.2299727 28.6915222 69.3124604 45.9847944 62.4688194 45.9847944 74.442578 28.6915222zM55.0729185 16L60.4531583 16 60.4531583 34.0543405C60.4576381 35.9104709 60.101494 39.7528949 57.2814599 42.7745199 55.2640566 44.9357745 52.0149573 46.0333255 49.7581336 45.9992293 48.7954744 45.9847944 47.3044476 45.9922607 47.3044476 45.9922607L47.3044476 41.3710982 49.0124958 41.3710982C53.6866693 41.0634852 55.071923 37.3380338 55.0848646 34.3532427L55.0729185 16z"/>
    <path stroke="#1D1D1D" stroke-linecap="square" stroke-width="2" d="M198,0 L198,62"/>
  </g>
</svg>
