<svg xmlns="http://www.w3.org/2000/svg" width="1171" height="64" viewBox="0 0 1171 64">
  <g fill="none" fill-rule="evenodd" transform="translate(0 1)">
    <path fill="#1D1D1D" d="M267.651367 40.7070312L265.609375 40.7070312 265.609375 18.2783203 251.929688 18.2783203 251.929688 40.7070312 249.887695 40.7070312 249.887695 16.5351562 267.651367 16.5351562 267.651367 40.7070312zM287.838867 31.9082031C287.838867 34.7083473 287.219082 36.9301676 285.979492 38.5737305 284.739903 40.2172934 283.079763 41.0390625 280.999023 41.0390625 278.54198 41.0390625 276.660488 40.1757899 275.354492 38.4492188L275.354492 47.6132812 273.378906 47.6132812 273.378906 22.7441406 275.22168 22.7441406 275.321289 25.2841797C276.616217 23.3694566 278.492175 22.4121094 280.949219 22.4121094 283.096365 22.4121094 284.781407 23.2255778 286.004395 24.8525391 287.227382 26.4795003 287.838867 28.7372902 287.838867 31.6259766L287.838867 31.9082031zM285.84668 31.5595703C285.84668 29.2685432 285.376307 27.458991 284.435547 26.1308594 283.494787 24.8027277 282.183277 24.1386719 280.500977 24.1386719 279.283523 24.1386719 278.237635 24.4319632 277.363281 25.0185547 276.488928 25.6051462 275.819338 26.4573512 275.354492 27.5751953L275.354492 36.1914062C275.830406 37.2207083 276.511063 38.0065077 277.396484 38.5488281 278.281905 39.0911485 279.327793 39.3623047 280.53418 39.3623047 282.205412 39.3623047 283.508622 38.6954819 284.443848 37.3618164 285.379074 36.0281509 285.84668 34.0940882 285.84668 31.5595703zM291.142578 31.4599609C291.142578 29.7333898 291.477373 28.1783923 292.146973 26.7949219 292.816572 25.4114514 293.762852 24.3351275 294.98584 23.565918 296.208828 22.7967084 297.595044 22.4121094 299.144531 22.4121094 301.535168 22.4121094 303.471998 23.2504799 304.955078 24.9272461 306.438158 26.6040123 307.179688 28.8258325 307.179688 31.5927734L307.179688 32.0078125C307.179688 33.7454514 306.844893 35.3087496 306.175293 36.6977539 305.505693 38.0867582 304.562181 39.1575483 303.344727 39.9101562 302.127273 40.6627642 300.738289 41.0390625 299.177734 41.0390625 296.798165 41.0390625 294.864102 40.200692 293.375488 38.5239258 291.886874 36.8471596 291.142578 34.6253394 291.142578 31.8583984L291.142578 31.4599609zM293.134766 32.0078125C293.134766 34.1549587 293.690912 35.9174736 294.803223 37.2954102 295.915533 38.6733467 297.373689 39.3623047 299.177734 39.3623047 300.970712 39.3623047 302.423334 38.6733467 303.535645 37.2954102 304.647955 35.9174736 305.204102 34.0996207 305.204102 31.8417969L305.204102 31.4599609C305.204102 30.0875582 304.949547 28.8313859 304.44043 27.6914062 303.931313 26.5514266 303.217453 25.6687857 302.298828 25.043457 301.380204 24.4181284 300.328782 24.1054688 299.144531 24.1054688 297.373689 24.1054688 295.929368 24.7999605 294.811523 26.1889648 293.693679 27.5779692 293.134766 29.3958221 293.134766 31.6425781L293.134766 32.0078125zM310.533203 31.875C310.533203 28.9531104 311.105951 26.6455163 312.251465 24.9521484 313.396978 23.2587806 314.982412 22.4121094 317.007812 22.4121094 318.169928 22.4121094 319.154944 22.6721979 319.962891 23.1923828L319.962891 15.2070312 321.938477 15.2070312 321.938477 23.2587891C322.757491 22.6943331 323.77571 22.4121094 324.993164 22.4121094 326.907887 22.4121094 328.440749 23.1813074 329.591797 24.7197266 330.742844 26.2581457 331.368164 28.3997259 331.467773 31.1445312L331.484375 32.2236328C331.484375 34.9573704 330.90886 37.1127851 329.757812 38.6899414 328.606765 40.2670977 327.029632 41.0556641 325.026367 41.0556641 323.831049 41.0556641 322.801762 40.7955755 321.938477 40.2753906L321.938477 47.6132812 319.962891 47.6132812 319.962891 40.2919922C319.110673 40.8011093 318.114589 41.0556641 316.974609 41.0556641 315.082022 41.0556641 313.565761 40.3390371 312.425781 38.9057617 311.285802 37.4724863 310.660482 35.4886194 310.549805 32.9541016L310.533203 31.875zM329.508789 31.875C329.508789 29.4622275 329.074386 27.5641345 328.205566 26.1806641 327.336747 24.7971936 326.122078 24.1054688 324.561523 24.1054688 323.432612 24.1054688 322.558271 24.3489559 321.938477 24.8359375L321.938477 38.7314453C322.635746 39.1630881 323.521153 39.3789062 324.594727 39.3789062 326.144213 39.3789062 327.350582 38.7563539 328.213867 37.5112305 329.077153 36.2661071 329.508789 34.3873824 329.508789 31.875zM312.525391 32.2236328C312.525391 34.4814566 312.940426 36.2384377 313.770508 37.4946289 314.60059 38.7508201 315.795891 39.3789062 317.356445 39.3789062 318.396815 39.3789062 319.265622 39.1520205 319.962891 38.6982422L319.962891 24.7861328C319.32096 24.3323545 318.463222 24.1054688 317.389648 24.1054688 315.840162 24.1054688 314.642094 24.7944267 313.79541 26.1723633 312.948726 27.5502999 312.525391 29.5673695 312.525391 32.2236328zM342.873047 41.0390625C341.345695 41.0390625 339.965013 40.6627642 338.730957 39.9101562 337.496901 39.1575483 336.536787 38.1088934 335.850586 36.7641602 335.164385 35.4194269 334.821289 33.9114667 334.821289 32.2402344L334.821289 31.5263672C334.821289 29.7997961 335.156084 28.2447986 335.825684 26.8613281 336.495283 25.4778577 337.427728 24.3904662 338.623047 23.5991211 339.818365 22.807776 341.113274 22.4121094 342.507812 22.4121094 344.688162 22.4121094 346.417474 23.1564053 347.695801 24.6450195 348.974127 26.1336337 349.613281 28.1673048 349.613281 30.7460938L349.613281 31.8583984 336.796875 31.8583984 336.796875 32.2402344C336.796875 34.2767029 337.380691 35.9728122 338.54834 37.3286133 339.715989 38.6844143 341.185213 39.3623047 342.956055 39.3623047 344.01856 39.3623047 344.956539 39.1686217 345.77002 38.78125 346.5835 38.3938783 347.322262 37.7740928 347.986328 36.921875L349.231445 37.8681641C347.770501 39.9821069 345.651056 41.0390625 342.873047 41.0390625zM342.507812 24.1054688C341.013664 24.1054688 339.754725 24.6533148 338.730957 25.7490234 337.707189 26.844732 337.084637 28.3167225 336.863281 30.1650391L347.637695 30.1650391 347.637695 29.9492188C347.582356 28.2226476 347.089848 26.8170627 346.160156 25.7324219 345.230464 24.647781 344.013028 24.1054688 342.507812 24.1054688zM360.12207 39.3623047C361.505541 39.3623047 362.664872 38.9721719 363.600098 38.1918945 364.535324 37.4116172 365.041666 36.4016989 365.119141 35.1621094L367.02832 35.1621094C366.972981 36.257818 366.629886 37.2566687 365.999023 38.1586914 365.368161 39.0607141 364.52979 39.7662735 363.483887 40.2753906 362.437983 40.7845078 361.317389 41.0390625 360.12207 41.0390625 357.764637 41.0390625 355.89698 40.2200603 354.519043 38.5820312 353.141106 36.9440022 352.452148 34.7415503 352.452148 31.9746094L352.452148 31.3769531C352.452148 29.6061109 352.762041 28.0400459 353.381836 26.6787109 354.001631 25.317376 354.889805 24.2659542 356.046387 23.5244141 357.202968 22.7828739 358.555982 22.4121094 360.105469 22.4121094 362.075531 22.4121094 363.699701 22.9986921 364.978027 24.171875 366.256354 25.3450579 366.939778 26.8889878 367.02832 28.8037109L365.119141 28.8037109C365.030599 27.398105 364.524256 26.2636762 363.600098 25.4003906 362.675939 24.5371051 361.511075 24.1054688 360.105469 24.1054688 358.312491 24.1054688 356.920741 24.7529232 355.930176 26.0478516 354.939611 27.3427799 354.444336 29.1578659 354.444336 31.4931641L354.444336 32.0742188C354.444336 34.3652458 354.939611 36.1526629 355.930176 37.4365234 356.920741 38.720384 358.318025 39.3623047 360.12207 39.3623047zM377.636719 39.3623047C379.020189 39.3623047 380.17952 38.9721719 381.114746 38.1918945 382.049972 37.4116172 382.556315 36.4016989 382.633789 35.1621094L384.542969 35.1621094C384.48763 36.257818 384.144534 37.2566687 383.513672 38.1586914 382.882809 39.0607141 382.044439 39.7662735 380.998535 40.2753906 379.952631 40.7845078 378.832037 41.0390625 377.636719 41.0390625 375.279285 41.0390625 373.411628 40.2200603 372.033691 38.5820312 370.655755 36.9440022 369.966797 34.7415503 369.966797 31.9746094L369.966797 31.3769531C369.966797 29.6061109 370.27669 28.0400459 370.896484 26.6787109 371.516279 25.317376 372.404454 24.2659542 373.561035 23.5244141 374.717616 22.7828739 376.07063 22.4121094 377.620117 22.4121094 379.590179 22.4121094 381.214349 22.9986921 382.492676 24.171875 383.771002 25.3450579 384.454427 26.8889878 384.542969 28.8037109L382.633789 28.8037109C382.545247 27.398105 382.038904 26.2636762 381.114746 25.4003906 380.190588 24.5371051 379.025723 24.1054688 377.620117 24.1054688 375.827139 24.1054688 374.435389 24.7529232 373.444824 26.0478516 372.454259 27.3427799 371.958984 29.1578659 371.958984 31.4931641L371.958984 32.0742188C371.958984 34.3652458 372.454259 36.1526629 373.444824 37.4365234 374.435389 38.720384 375.832673 39.3623047 377.636719 39.3623047zM400.314453 22.7441406L402.306641 22.7441406 402.306641 40.7070312 400.314453 40.7070312 400.314453 25.9482422 390.619141 40.7070312 388.643555 40.7070312 388.643555 22.7441406 390.619141 22.7441406 390.619141 37.5195312 400.314453 22.7441406zM406.523438 31.4599609C406.523438 29.7333898 406.858232 28.1783923 407.527832 26.7949219 408.197432 25.4114514 409.143711 24.3351275 410.366699 23.565918 411.589687 22.7967084 412.975904 22.4121094 414.525391 22.4121094 416.916028 22.4121094 418.852857 23.2504799 420.335938 24.9272461 421.819018 26.6040123 422.560547 28.8258325 422.560547 31.5927734L422.560547 32.0078125C422.560547 33.7454514 422.225752 35.3087496 421.556152 36.6977539 420.886553 38.0867582 419.94304 39.1575483 418.725586 39.9101562 417.508132 40.6627642 416.119148 41.0390625 414.558594 41.0390625 412.179025 41.0390625 410.244962 40.200692 408.756348 38.5239258 407.267733 36.8471596 406.523438 34.6253394 406.523438 31.8583984L406.523438 31.4599609zM408.515625 32.0078125C408.515625 34.1549587 409.071772 35.9174736 410.184082 37.2954102 411.296392 38.6733467 412.754548 39.3623047 414.558594 39.3623047 416.351571 39.3623047 417.804194 38.6733467 418.916504 37.2954102 420.028814 35.9174736 420.584961 34.0996207 420.584961 31.8417969L420.584961 31.4599609C420.584961 30.0875582 420.330406 28.8313859 419.821289 27.6914062 419.312172 26.5514266 418.598312 25.6687857 417.679688 25.043457 416.761063 24.4181284 415.709641 24.1054688 414.525391 24.1054688 412.754548 24.1054688 411.310227 24.7999605 410.192383 26.1889648 409.074539 27.5779692 408.515625 29.3958221 408.515625 31.6425781L408.515625 32.0078125zM440.457031 40.7070312L438.464844 40.7070312 438.464844 32.4726562 428.786133 32.4726562 428.786133 40.7070312 426.793945 40.7070312 426.793945 22.7441406 428.786133 22.7441406 428.786133 30.7958984 438.464844 30.7958984 438.464844 22.7441406 440.457031 22.7441406 440.457031 40.7070312zM457.108398 40.7070312C456.909179 40.1425753 456.781901 39.3069717 456.726562 38.2001953 456.029293 39.1077519 455.141119 39.8077775 454.062012 40.300293 452.982905 40.7928085 451.840175 41.0390625 450.633789 41.0390625 448.907218 41.0390625 447.509934 40.557622 446.441895 39.5947266 445.373855 38.6318311 444.839844 37.4143954 444.839844 35.9423828 444.839844 34.1936762 445.567538 32.8102264 447.022949 31.7919922 448.47836 30.7737579 450.506497 30.2646484 453.107422 30.2646484L456.709961 30.2646484 456.709961 28.2226562C456.709961 26.9387957 456.314294 25.9288774 455.522949 25.1928711 454.731604 24.4568648 453.577807 24.0888672 452.061523 24.0888672 450.678053 24.0888672 449.532557 24.4430303 448.625 25.1513672 447.717443 25.8597041 447.263672 26.7119091 447.263672 27.7080078L445.271484 27.6914062C445.271484 26.2636647 445.93554 25.0268607 447.263672 23.980957 448.591804 22.9350534 450.224274 22.4121094 452.161133 22.4121094 454.164398 22.4121094 455.744298 22.9129182 456.900879 23.9145508 458.05746 24.9161834 458.652344 26.3134676 458.685547 28.1064453L458.685547 36.6064453C458.685547 38.3440842 458.868162 39.6445269 459.233398 40.5078125L459.233398 40.7070312 457.108398 40.7070312zM450.866211 39.2792969C452.194343 39.2792969 453.381342 38.9583365 454.427246 38.3164062 455.47315 37.674476 456.234047 36.8167371 456.709961 35.7431641L456.709961 31.7919922 453.157227 31.7919922C451.176097 31.8141277 449.626633 32.1765915 448.508789 32.8793945 447.390945 33.5821975 446.832031 34.5478454 446.832031 35.7763672 446.832031 36.7835337 447.205563 37.6191373 447.952637 38.2832031 448.699711 38.9472689 449.670892 39.2792969 450.866211 39.2792969zM477.793945 22.7441406L477.793945 40.7070312 475.801758 40.7070312 475.801758 24.4541016 468.447266 24.4541016 468.131836 31.1777344C467.999023 33.6679812 467.750002 35.5688411 467.384766 36.8803711 467.019529 38.1919011 466.477217 39.157549 465.757812 39.7773438 465.038408 40.3971385 464.081061 40.7070312 462.885742 40.7070312L462.12207 40.7070312 462.12207 38.9472656 462.736328 38.9140625C463.876308 38.891927 464.69531 38.3385471 465.193359 37.2539062 465.691409 36.1692654 466.017903 34.2324358 466.172852 31.4433594L466.538086 22.7441406 477.793945 22.7441406zM485.314453 29.2685547L490.494141 29.2685547C491.822272 29.2685547 492.987137 29.5092749 493.98877 29.9907227 494.990402 30.4721704 495.748533 31.1389931 496.263184 31.9912109 496.777835 32.8434287 497.035156 33.8339787 497.035156 34.9628906 497.035156 36.7005295 496.440273 38.0922799 495.250488 39.1381836 494.060704 40.1840873 492.453135 40.7070312 490.427734 40.7070312L483.338867 40.7070312 483.338867 22.7441406 485.314453 22.7441406 485.314453 29.2685547zM485.314453 30.9619141L485.314453 39.0302734 490.460938 39.0302734C491.888679 39.0302734 493.009273 38.6705765 493.822754 37.9511719 494.636235 37.2317672 495.042969 36.246751 495.042969 34.9960938 495.042969 33.8007753 494.647302 32.8351274 493.855957 32.0991211 493.064612 31.3631148 491.982754 30.9840496 490.610352 30.9619141L485.314453 30.9619141zM515.114258 40.7070312L513.12207 40.7070312 513.12207 32.4726562 503.443359 32.4726562 503.443359 40.7070312 501.451172 40.7070312 501.451172 22.7441406 503.443359 22.7441406 503.443359 30.7958984 513.12207 30.7958984 513.12207 22.7441406 515.114258 22.7441406 515.114258 40.7070312zM522.618164 29.2685547L527.797852 29.2685547C529.125983 29.2685547 530.290848 29.5092749 531.29248 29.9907227 532.294113 30.4721704 533.052244 31.1389931 533.566895 31.9912109 534.081546 32.8434287 534.338867 33.8339787 534.338867 34.9628906 534.338867 36.7005295 533.743984 38.0922799 532.554199 39.1381836 531.364415 40.1840873 529.756846 40.7070312 527.731445 40.7070312L520.642578 40.7070312 520.642578 22.7441406 522.618164 22.7441406 522.618164 29.2685547zM522.618164 30.9619141L522.618164 39.0302734 527.764648 39.0302734C529.19239 39.0302734 530.312984 38.6705765 531.126465 37.9511719 531.939945 37.2317672 532.34668 36.246751 532.34668 34.9960938 532.34668 33.8007753 531.951013 32.8351274 531.159668 32.0991211 530.368323 31.3631148 529.286465 30.9840496 527.914062 30.9619141L522.618164 30.9619141zM540.431641 40.7070312L538.439453 40.7070312 538.439453 22.7441406 540.431641 22.7441406 540.431641 40.7070312zM552.916016 41.0390625C551.388664 41.0390625 550.007981 40.6627642 548.773926 39.9101562 547.53987 39.1575483 546.579756 38.1088934 545.893555 36.7641602 545.207353 35.4194269 544.864258 33.9114667 544.864258 32.2402344L544.864258 31.5263672C544.864258 29.7997961 545.199053 28.2447986 545.868652 26.8613281 546.538252 25.4778577 547.470697 24.3904662 548.666016 23.5991211 549.861334 22.807776 551.156243 22.4121094 552.550781 22.4121094 554.731131 22.4121094 556.460443 23.1564053 557.73877 24.6450195 559.017096 26.1336337 559.65625 28.1673048 559.65625 30.7460938L559.65625 31.8583984 546.839844 31.8583984 546.839844 32.2402344C546.839844 34.2767029 547.42366 35.9728122 548.591309 37.3286133 549.758958 38.6844143 551.228181 39.3623047 552.999023 39.3623047 554.061529 39.3623047 554.999508 39.1686217 555.812988 38.78125 556.626469 38.3938783 557.365231 37.7740928 558.029297 36.921875L559.274414 37.8681641C557.813469 39.9821069 555.694024 41.0390625 552.916016 41.0390625zM552.550781 24.1054688C551.056633 24.1054688 549.797694 24.6533148 548.773926 25.7490234 547.750158 26.844732 547.127605 28.3167225 546.90625 30.1650391L557.680664 30.1650391 557.680664 29.9492188C557.625325 28.2226476 557.132817 26.8170627 556.203125 25.7324219 555.273433 24.647781 554.055997 24.1054688 552.550781 24.1054688zM579.030273 23.9394531C581.310233 23.9394531 583.158522 24.6837491 584.575195 26.1723633 585.991869 27.6609775 586.700195 29.6337768 586.700195 32.0908203L586.700195 32.5224609C586.700195 34.1494222 586.376468 35.613112 585.729004 36.9135742 585.08154 38.2140365 584.151862 39.2267216 582.939941 39.9516602 581.728021 40.6765987 580.336271 41.0390625 578.764648 41.0390625 576.396147 41.0390625 574.478686 40.2504962 573.012207 38.6733398 571.545728 37.0961835 570.8125 34.9905731 570.8125 32.3564453L570.8125 30.7626953C570.8125 27.0439267 571.520826 24.0722767 572.9375 21.8476562 574.354174 19.6230358 576.368477 18.294924 578.980469 17.8632812 580.629566 17.5976549 581.788896 17.237958 582.458496 16.7841797 583.128096 16.3304014 583.462891 15.7106159 583.462891 14.9248047L585.172852 14.9248047C585.172852 15.8544968 584.979169 16.6236949 584.591797 17.2324219 584.204425 17.8411489 583.623376 18.3308901 582.848633 18.7016602 582.073889 19.0724302 580.889656 19.3850899 579.295898 19.6396484 577.469717 19.9274103 576.000494 20.704909 574.888184 21.972168 573.775873 23.2394269 573.053713 24.9355363 572.72168 27.0605469 573.430017 26.1308547 574.318191 25.3782581 575.38623 24.8027344 576.45427 24.2272107 577.668939 23.9394531 579.030273 23.9394531zM572.804688 32.1074219L572.804688 32.5224609C572.804688 34.5478617 573.352534 36.1941668 574.448242 37.4614258 575.543951 38.7286847 576.982738 39.3623047 578.764648 39.3623047 580.557626 39.3623047 581.996414 38.7231509 583.081055 37.4448242 584.165696 36.1664975 584.708008 34.4869896 584.708008 32.40625L584.708008 31.9746094C584.708008 30.1041573 584.157395 28.5768288 583.056152 27.3925781 581.95491 26.2083274 580.513355 25.6162109 578.731445 25.6162109 576.949535 25.6162109 575.516281 26.2166281 574.431641 27.4174805 573.347 28.6183328 572.804688 30.181631 572.804688 32.1074219zM597.458008 41.0390625C595.930656 41.0390625 594.549974 40.6627642 593.315918 39.9101562 592.081862 39.1575483 591.121748 38.1088934 590.435547 36.7641602 589.749346 35.4194269 589.40625 33.9114667 589.40625 32.2402344L589.40625 31.5263672C589.40625 29.7997961 589.741045 28.2447986 590.410645 26.8613281 591.080244 25.4778577 592.012689 24.3904662 593.208008 23.5991211 594.403326 22.807776 595.698235 22.4121094 597.092773 22.4121094 599.273123 22.4121094 601.002435 23.1564053 602.280762 24.6450195 603.559088 26.1336337 604.198242 28.1673048 604.198242 30.7460938L604.198242 31.8583984 591.381836 31.8583984 591.381836 32.2402344C591.381836 34.2767029 591.965652 35.9728122 593.133301 37.3286133 594.30095 38.6844143 595.770173 39.3623047 597.541016 39.3623047 598.603521 39.3623047 599.5415 39.1686217 600.35498 38.78125 601.168461 38.3938783 601.907223 37.7740928 602.571289 36.921875L603.816406 37.8681641C602.355461 39.9821069 600.236016 41.0390625 597.458008 41.0390625zM597.092773 24.1054688C595.598625 24.1054688 594.339686 24.6533148 593.315918 25.7490234 592.29215 26.844732 591.669597 28.3167225 591.448242 30.1650391L602.222656 30.1650391 602.222656 29.9492188C602.167317 28.2226476 601.674809 26.8170627 600.745117 25.7324219 599.815425 24.647781 598.597989 24.1054688 597.092773 24.1054688zM614.707031 39.3623047C616.090502 39.3623047 617.249833 38.9721719 618.185059 38.1918945 619.120285 37.4116172 619.626627 36.4016989 619.704102 35.1621094L621.613281 35.1621094C621.557942 36.257818 621.214847 37.2566687 620.583984 38.1586914 619.953122 39.0607141 619.114751 39.7662735 618.068848 40.2753906 617.022944 40.7845078 615.90235 41.0390625 614.707031 41.0390625 612.349598 41.0390625 610.48194 40.2200603 609.104004 38.5820312 607.726067 36.9440022 607.037109 34.7415503 607.037109 31.9746094L607.037109 31.3769531C607.037109 29.6061109 607.347002 28.0400459 607.966797 26.6787109 608.586592 25.317376 609.474766 24.2659542 610.631348 23.5244141 611.787929 22.7828739 613.140943 22.4121094 614.69043 22.4121094 616.660492 22.4121094 618.284662 22.9986921 619.562988 24.171875 620.841315 25.3450579 621.524739 26.8889878 621.613281 28.8037109L619.704102 28.8037109C619.615559 27.398105 619.109217 26.2636762 618.185059 25.4003906 617.2609 24.5371051 616.096036 24.1054688 614.69043 24.1054688 612.897452 24.1054688 611.505702 24.7529232 610.515137 26.0478516 609.524572 27.3427799 609.029297 29.1578659 609.029297 31.4931641L609.029297 32.0742188C609.029297 34.3652458 609.524572 36.1526629 610.515137 37.4365234 611.505702 38.720384 612.902986 39.3623047 614.707031 39.3623047zM639.376953 40.7070312L637.384766 40.7070312 637.384766 24.4541016 627.706055 24.4541016 627.706055 40.7070312 625.713867 40.7070312 625.713867 22.7441406 639.376953 22.7441406 639.376953 40.7070312zM659.132812 31.9082031C659.132812 34.7083473 658.513027 36.9301676 657.273438 38.5737305 656.033848 40.2172934 654.373708 41.0390625 652.292969 41.0390625 649.835925 41.0390625 647.954434 40.1757899 646.648438 38.4492188L646.648438 47.6132812 644.672852 47.6132812 644.672852 22.7441406 646.515625 22.7441406 646.615234 25.2841797C647.910163 23.3694566 649.786121 22.4121094 652.243164 22.4121094 654.39031 22.4121094 656.075352 23.2255778 657.29834 24.8525391 658.521328 26.4795003 659.132812 28.7372902 659.132812 31.6259766L659.132812 31.9082031zM657.140625 31.5595703C657.140625 29.2685432 656.670252 27.458991 655.729492 26.1308594 654.788732 24.8027277 653.477222 24.1386719 651.794922 24.1386719 650.577468 24.1386719 649.53158 24.4319632 648.657227 25.0185547 647.782873 25.6051462 647.113284 26.4573512 646.648438 27.5751953L646.648438 36.1914062C647.124351 37.2207083 647.805009 38.0065077 648.69043 38.5488281 649.575851 39.0911485 650.621739 39.3623047 651.828125 39.3623047 653.499357 39.3623047 654.802567 38.6954819 655.737793 37.3618164 656.673019 36.0281509 657.140625 34.0940882 657.140625 31.5595703zM662.436523 31.4599609C662.436523 29.7333898 662.771318 28.1783923 663.440918 26.7949219 664.110518 25.4114514 665.056797 24.3351275 666.279785 23.565918 667.502773 22.7967084 668.88899 22.4121094 670.438477 22.4121094 672.829114 22.4121094 674.765943 23.2504799 676.249023 24.9272461 677.732104 26.6040123 678.473633 28.8258325 678.473633 31.5927734L678.473633 32.0078125C678.473633 33.7454514 678.138838 35.3087496 677.469238 36.6977539 676.799639 38.0867582 675.856126 39.1575483 674.638672 39.9101562 673.421218 40.6627642 672.032234 41.0390625 670.47168 41.0390625 668.09211 41.0390625 666.158048 40.200692 664.669434 38.5239258 663.180819 36.8471596 662.436523 34.6253394 662.436523 31.8583984L662.436523 31.4599609zM664.428711 32.0078125C664.428711 34.1549587 664.984858 35.9174736 666.097168 37.2954102 667.209478 38.6733467 668.667634 39.3623047 670.47168 39.3623047 672.264657 39.3623047 673.71728 38.6733467 674.82959 37.2954102 675.9419 35.9174736 676.498047 34.0996207 676.498047 31.8417969L676.498047 31.4599609C676.498047 30.0875582 676.243492 28.8313859 675.734375 27.6914062 675.225258 26.5514266 674.511398 25.6687857 673.592773 25.043457 672.674149 24.4181284 671.622727 24.1054688 670.438477 24.1054688 668.667634 24.1054688 667.223313 24.7999605 666.105469 26.1889648 664.987625 27.5779692 664.428711 29.3958221 664.428711 31.6425781L664.428711 32.0078125zM682.790039 40.7070312L682.790039 22.7441406 689.380859 22.7441406C691.660819 22.7441406 693.409499 23.1508748 694.626953 23.9643555 695.844407 24.7778361 696.453125 25.9703697 696.453125 27.5419922 696.453125 28.438481 696.181969 29.238115 695.639648 29.940918 695.097328 30.643721 694.305995 31.1555974 693.265625 31.4765625 694.438808 31.6979178 695.382321 32.2014935 696.096191 32.9873047 696.810062 33.7731159 697.166992 34.6861927 697.166992 35.7265625 697.166992 37.3092527 696.583176 38.5349891 695.415527 39.4038086 694.247878 40.272628 692.596039 40.7070312 690.459961 40.7070312L682.790039 40.7070312zM684.765625 32.4394531L684.765625 39.046875 690.526367 39.046875C692.020515 39.046875 693.171545 38.7591175 693.979492 38.1835938 694.787439 37.60807 695.191406 36.7780002 695.191406 35.6933594 695.191406 34.6972606 694.787439 33.9059274 693.979492 33.3193359 693.171545 32.7327445 692.020515 32.4394531 690.526367 32.4394531L684.765625 32.4394531zM684.765625 30.7792969L689.795898 30.7792969C692.917008 30.7350258 694.477539 29.6725364 694.477539 27.5917969 694.477539 26.4960883 694.04867 25.6964543 693.190918 25.1928711 692.333166 24.6892878 691.063159 24.4375 689.380859 24.4375L684.765625 24.4375 684.765625 30.7792969zM700.487305 31.4599609C700.487305 29.7333898 700.8221 28.1783923 701.491699 26.7949219 702.161299 25.4114514 703.107579 24.3351275 704.330566 23.565918 705.553554 22.7967084 706.939771 22.4121094 708.489258 22.4121094 710.879895 22.4121094 712.816724 23.2504799 714.299805 24.9272461 715.782885 26.6040123 716.524414 28.8258325 716.524414 31.5927734L716.524414 32.0078125C716.524414 33.7454514 716.189619 35.3087496 715.52002 36.6977539 714.85042 38.0867582 713.906907 39.1575483 712.689453 39.9101562 711.471999 40.6627642 710.083016 41.0390625 708.522461 41.0390625 706.142892 41.0390625 704.208829 40.200692 702.720215 38.5239258 701.231601 36.8471596 700.487305 34.6253394 700.487305 31.8583984L700.487305 31.4599609zM702.479492 32.0078125C702.479492 34.1549587 703.035639 35.9174736 704.147949 37.2954102 705.260259 38.6733467 706.718415 39.3623047 708.522461 39.3623047 710.315439 39.3623047 711.768061 38.6733467 712.880371 37.2954102 713.992681 35.9174736 714.548828 34.0996207 714.548828 31.8417969L714.548828 31.4599609C714.548828 30.0875582 714.294273 28.8313859 713.785156 27.6914062 713.276039 26.5514266 712.562179 25.6687857 711.643555 25.043457 710.72493 24.4181284 709.673509 24.1054688 708.489258 24.1054688 706.718416 24.1054688 705.274094 24.7999605 704.15625 26.1889648 703.038406 27.5779692 702.479492 29.3958221 702.479492 31.6425781L702.479492 32.0078125zM720.209961 39.0302734L721.089844 37.8847656C722.484382 35.992178 723.286783 33.2252786 723.49707 29.5839844L723.8125 22.7441406 734.420898 22.7441406 734.420898 39.0302734 736.280273 39.0302734 736.280273 45.9863281 734.304688 45.9863281 734.304688 40.7070312 720.807617 40.7070312 720.807617 45.9863281 718.898438 45.9863281 718.915039 39.0302734 720.209961 39.0302734zM722.500977 39.0302734L732.428711 39.0302734 732.428711 24.6035156 725.705078 24.6035156 725.489258 29.2685547C725.290038 33.5517792 724.293954 36.8056529 722.500977 39.0302734zM753.911133 40.7070312L751.918945 40.7070312 751.918945 32.4726562 742.240234 32.4726562 742.240234 40.7070312 740.248047 40.7070312 740.248047 22.7441406 742.240234 22.7441406 742.240234 30.7958984 751.918945 30.7958984 751.918945 22.7441406 753.911133 22.7441406 753.911133 40.7070312zM761.415039 29.2685547L766.594727 29.2685547C767.922858 29.2685547 769.087723 29.5092749 770.089355 29.9907227 771.090988 30.4721704 771.849119 31.1389931 772.36377 31.9912109 772.878421 32.8434287 773.135742 33.8339787 773.135742 34.9628906 773.135742 36.7005295 772.540859 38.0922799 771.351074 39.1381836 770.16129 40.1840873 768.553721 40.7070312 766.52832 40.7070312L759.439453 40.7070312 759.439453 22.7441406 761.415039 22.7441406 761.415039 29.2685547zM761.415039 30.9619141L761.415039 39.0302734 766.561523 39.0302734C767.989265 39.0302734 769.109859 38.6705765 769.92334 37.9511719 770.73682 37.2317672 771.143555 36.246751 771.143555 34.9960938 771.143555 33.8007753 770.747888 32.8351274 769.956543 32.0991211 769.165198 31.3631148 768.08334 30.9840496 766.710938 30.9619141L761.415039 30.9619141zM779.228516 40.7070312L777.236328 40.7070312 777.236328 22.7441406 779.228516 22.7441406 779.228516 40.7070312zM791.712891 41.0390625C790.185539 41.0390625 788.804856 40.6627642 787.570801 39.9101562 786.336745 39.1575483 785.376631 38.1088934 784.69043 36.7641602 784.004228 35.4194269 783.661133 33.9114667 783.661133 32.2402344L783.661133 31.5263672C783.661133 29.7997961 783.995928 28.2447986 784.665527 26.8613281 785.335127 25.4778577 786.267572 24.3904662 787.462891 23.5991211 788.658209 22.807776 789.953118 22.4121094 791.347656 22.4121094 793.528006 22.4121094 795.257318 23.1564053 796.535645 24.6450195 797.813971 26.1336337 798.453125 28.1673048 798.453125 30.7460938L798.453125 31.8583984 785.636719 31.8583984 785.636719 32.2402344C785.636719 34.2767029 786.220535 35.9728122 787.388184 37.3286133 788.555833 38.6844143 790.025056 39.3623047 791.795898 39.3623047 792.858404 39.3623047 793.796383 39.1686217 794.609863 38.78125 795.423344 38.3938783 796.162106 37.7740928 796.826172 36.921875L798.071289 37.8681641C796.610344 39.9821069 794.490899 41.0390625 791.712891 41.0390625zM791.347656 24.1054688C789.853508 24.1054688 788.594569 24.6533148 787.570801 25.7490234 786.547033 26.844732 785.92448 28.3167225 785.703125 30.1650391L796.477539 30.1650391 796.477539 29.9492188C796.4222 28.2226476 795.929692 26.8170627 795 25.7324219 794.070308 24.647781 792.852872 24.1054688 791.347656 24.1054688zM817.229492 39.3623047C818.612963 39.3623047 819.772294 38.9721719 820.70752 38.1918945 821.642746 37.4116172 822.149088 36.4016989 822.226562 35.1621094L824.135742 35.1621094C824.080403 36.257818 823.737308 37.2566687 823.106445 38.1586914 822.475583 39.0607141 821.637212 39.7662735 820.591309 40.2753906 819.545405 40.7845078 818.424811 41.0390625 817.229492 41.0390625 814.872059 41.0390625 813.004401 40.2200603 811.626465 38.5820312 810.248528 36.9440022 809.55957 34.7415503 809.55957 31.9746094L809.55957 31.3769531C809.55957 29.6061109 809.869463 28.0400459 810.489258 26.6787109 811.109053 25.317376 811.997227 24.2659542 813.153809 23.5244141 814.31039 22.7828739 815.663404 22.4121094 817.212891 22.4121094 819.182953 22.4121094 820.807123 22.9986921 822.085449 24.171875 823.363776 25.3450579 824.0472 26.8889878 824.135742 28.8037109L822.226562 28.8037109C822.13802 27.398105 821.631678 26.2636762 820.70752 25.4003906 819.783361 24.5371051 818.618497 24.1054688 817.212891 24.1054688 815.419913 24.1054688 814.028163 24.7529232 813.037598 26.0478516 812.047033 27.3427799 811.551758 29.1578659 811.551758 31.4931641L811.551758 32.0742188C811.551758 34.3652458 812.047033 36.1526629 813.037598 37.4365234 814.028163 38.720384 815.425447 39.3623047 817.229492 39.3623047zM839.907227 22.7441406L841.899414 22.7441406 841.899414 40.7070312 839.907227 40.7070312 839.907227 25.9482422 830.211914 40.7070312 828.236328 40.7070312 828.236328 22.7441406 830.211914 22.7441406 830.211914 37.5195312 839.907227 22.7441406zM853.852539 39.3623047C855.23601 39.3623047 856.39534 38.9721719 857.330566 38.1918945 858.265792 37.4116172 858.772135 36.4016989 858.849609 35.1621094L860.758789 35.1621094C860.70345 36.257818 860.360355 37.2566687 859.729492 38.1586914 859.09863 39.0607141 858.260259 39.7662735 857.214355 40.2753906 856.168452 40.7845078 855.047858 41.0390625 853.852539 41.0390625 851.495105 41.0390625 849.627448 40.2200603 848.249512 38.5820312 846.871575 36.9440022 846.182617 34.7415503 846.182617 31.9746094L846.182617 31.3769531C846.182617 29.6061109 846.49251 28.0400459 847.112305 26.6787109 847.732099 25.317376 848.620274 24.2659542 849.776855 23.5244141 850.933437 22.7828739 852.286451 22.4121094 853.835938 22.4121094 855.805999 22.4121094 857.430169 22.9986921 858.708496 24.171875 859.986823 25.3450579 860.670247 26.8889878 860.758789 28.8037109L858.849609 28.8037109C858.761067 27.398105 858.254725 26.2636762 857.330566 25.4003906 856.406408 24.5371051 855.241543 24.1054688 853.835938 24.1054688 852.04296 24.1054688 850.651209 24.7529232 849.660645 26.0478516 848.67008 27.3427799 848.174805 29.1578659 848.174805 31.4931641L848.174805 32.0742188C848.174805 34.3652458 848.67008 36.1526629 849.660645 37.4365234 850.651209 38.720384 852.048494 39.3623047 853.852539 39.3623047zM877.625977 24.4375L871.084961 24.4375 871.084961 40.7070312 869.092773 40.7070312 869.092773 24.4375 862.800781 24.4375 862.800781 22.7441406 877.625977 22.7441406 877.625977 24.4375zM887.835938 41.0390625C886.308586 41.0390625 884.927903 40.6627642 883.693848 39.9101562 882.459792 39.1575483 881.499678 38.1088934 880.813477 36.7641602 880.127275 35.4194269 879.78418 33.9114667 879.78418 32.2402344L879.78418 31.5263672C879.78418 29.7997961 880.118975 28.2447986 880.788574 26.8613281 881.458174 25.4778577 882.390619 24.3904662 883.585938 23.5991211 884.781256 22.807776 886.076165 22.4121094 887.470703 22.4121094 889.651053 22.4121094 891.380365 23.1564053 892.658691 24.6450195 893.937018 26.1336337 894.576172 28.1673048 894.576172 30.7460938L894.576172 31.8583984 881.759766 31.8583984 881.759766 32.2402344C881.759766 34.2767029 882.343581 35.9728122 883.51123 37.3286133 884.67888 38.6844143 886.148103 39.3623047 887.918945 39.3623047 888.981451 39.3623047 889.91943 39.1686217 890.73291 38.78125 891.546391 38.3938783 892.285153 37.7740928 892.949219 36.921875L894.194336 37.8681641C892.733391 39.9821069 890.613946 41.0390625 887.835938 41.0390625zM887.470703 24.1054688C885.976555 24.1054688 884.717616 24.6533148 883.693848 25.7490234 882.67008 26.844732 882.047527 28.3167225 881.826172 30.1650391L892.600586 30.1650391 892.600586 29.9492188C892.545247 28.2226476 892.052739 26.8170627 891.123047 25.7324219 890.193355 24.647781 888.975919 24.1054688 887.470703 24.1054688zM908.388672 38.0175781L915.527344 22.7441406 917.984375 22.7441406 917.984375 40.7070312 915.992188 40.7070312 915.992188 25.9648438 909.085938 40.7070312 907.674805 40.7070312 900.635742 25.6328125 900.635742 40.7070312 898.660156 40.7070312 898.660156 22.7441406 901.266602 22.7441406 908.388672 38.0175781zM925.488281 29.2685547L930.667969 29.2685547C931.9961 29.2685547 933.160965 29.5092749 934.162598 29.9907227 935.16423 30.4721704 935.922361 31.1389931 936.437012 31.9912109 936.951663 32.8434287 937.208984 33.8339787 937.208984 34.9628906 937.208984 36.7005295 936.614101 38.0922799 935.424316 39.1381836 934.234532 40.1840873 932.626963 40.7070312 930.601562 40.7070312L923.512695 40.7070312 923.512695 22.7441406 925.488281 22.7441406 925.488281 29.2685547zM925.488281 30.9619141L925.488281 39.0302734 930.634766 39.0302734C932.062507 39.0302734 933.183101 38.6705765 933.996582 37.9511719 934.810063 37.2317672 935.216797 36.246751 935.216797 34.9960938 935.216797 33.8007753 934.82113 32.8351274 934.029785 32.0991211 933.23844 31.3631148 932.156582 30.9840496 930.78418 30.9619141L925.488281 30.9619141zM943.301758 40.7070312L941.30957 40.7070312 941.30957 22.7441406 943.301758 22.7441406 943.301758 40.7070312zM964.335938 23.9394531C966.615897 23.9394531 968.464186 24.6837491 969.880859 26.1723633 971.297533 27.6609775 972.005859 29.6337768 972.005859 32.0908203L972.005859 32.5224609C972.005859 34.1494222 971.682132 35.613112 971.034668 36.9135742 970.387204 38.2140365 969.457526 39.2267216 968.245605 39.9516602 967.033685 40.6765987 965.641935 41.0390625 964.070312 41.0390625 961.701811 41.0390625 959.78435 40.2504962 958.317871 38.6733398 956.851392 37.0961835 956.118164 34.9905731 956.118164 32.3564453L956.118164 30.7626953C956.118164 27.0439267 956.82649 24.0722767 958.243164 21.8476562 959.659838 19.6230358 961.674141 18.294924 964.286133 17.8632812 965.93523 17.5976549 967.09456 17.237958 967.76416 16.7841797 968.43376 16.3304014 968.768555 15.7106159 968.768555 14.9248047L970.478516 14.9248047C970.478516 15.8544968 970.284833 16.6236949 969.897461 17.2324219 969.510089 17.8411489 968.92904 18.3308901 968.154297 18.7016602 967.379553 19.0724302 966.19532 19.3850899 964.601562 19.6396484 962.775381 19.9274103 961.306158 20.704909 960.193848 21.972168 959.081537 23.2394269 958.359377 24.9355363 958.027344 27.0605469 958.735681 26.1308547 959.623855 25.3782581 960.691895 24.8027344 961.759934 24.2272107 962.974603 23.9394531 964.335938 23.9394531zM958.110352 32.1074219L958.110352 32.5224609C958.110352 34.5478617 958.658198 36.1941668 959.753906 37.4614258 960.849615 38.7286847 962.288403 39.3623047 964.070312 39.3623047 965.86329 39.3623047 967.302078 38.7231509 968.386719 37.4448242 969.47136 36.1664975 970.013672 34.4869896 970.013672 32.40625L970.013672 31.9746094C970.013672 30.1041573 969.463059 28.5768288 968.361816 27.3925781 967.260574 26.2083274 965.819019 25.6162109 964.037109 25.6162109 962.255199 25.6162109 960.821946 26.2166281 959.737305 27.4174805 958.652664 28.6183328 958.110352 30.181631 958.110352 32.1074219zM982.763672 41.0390625C981.23632 41.0390625 979.855638 40.6627642 978.621582 39.9101562 977.387526 39.1575483 976.427412 38.1088934 975.741211 36.7641602 975.05501 35.4194269 974.711914 33.9114667 974.711914 32.2402344L974.711914 31.5263672C974.711914 29.7997961 975.046709 28.2447986 975.716309 26.8613281 976.385908 25.4778577 977.318353 24.3904662 978.513672 23.5991211 979.70899 22.807776 981.003899 22.4121094 982.398438 22.4121094 984.578787 22.4121094 986.308099 23.1564053 987.586426 24.6450195 988.864752 26.1336337 989.503906 28.1673048 989.503906 30.7460938L989.503906 31.8583984 976.6875 31.8583984 976.6875 32.2402344C976.6875 34.2767029 977.271316 35.9728122 978.438965 37.3286133 979.606614 38.6844143 981.075838 39.3623047 982.84668 39.3623047 983.909185 39.3623047 984.847164 39.1686217 985.660645 38.78125 986.474125 38.3938783 987.212887 37.7740928 987.876953 36.921875L989.12207 37.8681641C987.661126 39.9821069 985.541681 41.0390625 982.763672 41.0390625zM982.398438 24.1054688C980.904289 24.1054688 979.64535 24.6533148 978.621582 25.7490234 977.597814 26.844732 976.975262 28.3167225 976.753906 30.1650391L987.52832 30.1650391 987.52832 29.9492188C987.472981 28.2226476 986.980473 26.8170627 986.050781 25.7324219 985.121089 24.647781 983.903653 24.1054688 982.398438 24.1054688zM1003.89746 27.4921875C1003.89746 26.4075467 1003.49349 25.571943 1002.68555 24.9853516 1001.8776 24.3987601 1000.76531 24.1054688 999.348633 24.1054688 998.064772 24.1054688 996.966313 24.4347298 996.053223 25.0932617 995.140132 25.7517937 994.683594 26.5846304 994.683594 27.5917969L992.708008 27.5917969C992.708008 26.0976488 993.347162 24.8636116 994.625488 23.8896484 995.903815 22.9156852 997.478181 22.4287109 999.348633 22.4287109 1001.40724 22.4287109 1003.01204 22.8714148 1004.16309 23.7568359 1005.31413 24.642257 1005.88965 25.8984294 1005.88965 27.5253906 1005.88965 28.3886762 1005.62403 29.1689418 1005.09277 29.8662109 1004.56152 30.56348 1003.78679 31.1057923 1002.76855 31.4931641 1005.07065 32.1240266 1006.22168 33.5517467 1006.22168 35.7763672 1006.22168 37.3922607 1005.59636 38.6705682 1004.3457 39.6113281 1003.09505 40.552088 1001.43491 41.0224609 999.365234 41.0224609 997.361969 41.0224609 995.70183 40.5188852 994.384766 39.5117188 993.067702 38.5045523 992.40918 37.1875081 992.40918 35.5605469L994.401367 35.5605469C994.401367 36.6451877 994.880041 37.5499638 995.837402 38.2749023 996.794764 38.9998409 997.970696 39.3623047 999.365234 39.3623047 1000.88152 39.3623047 1002.06852 39.0441113 1002.92627 38.4077148 1003.78402 37.7713184 1004.21289 36.9052789 1004.21289 35.8095703 1004.21289 34.6031841 1003.81999 33.7343777 1003.03418 33.203125 1002.24837 32.6718723 1001.04753 32.40625 999.431641 32.40625L996.692383 32.40625 996.692383 30.6796875 999.763672 30.6796875C1002.51955 30.6132809 1003.89746 29.5507915 1003.89746 27.4921875zM1009.49219 31.4599609C1009.49219 29.7333898 1009.82698 28.1783923 1010.49658 26.7949219 1011.16618 25.4114514 1012.11246 24.3351275 1013.33545 23.565918 1014.55844 22.7967084 1015.94465 22.4121094 1017.49414 22.4121094 1019.88478 22.4121094 1021.82161 23.2504799 1023.30469 24.9272461 1024.78777 26.6040123 1025.5293 28.8258325 1025.5293 31.5927734L1025.5293 32.0078125C1025.5293 33.7454514 1025.1945 35.3087496 1024.5249 36.6977539 1023.8553 38.0867582 1022.91179 39.1575483 1021.69434 39.9101562 1020.47688 40.6627642 1019.0879 41.0390625 1017.52734 41.0390625 1015.14777 41.0390625 1013.21371 40.200692 1011.7251 38.5239258 1010.23648 36.8471596 1009.49219 34.6253394 1009.49219 31.8583984L1009.49219 31.4599609zM1011.48438 32.0078125C1011.48438 34.1549587 1012.04052 35.9174736 1013.15283 37.2954102 1014.26514 38.6733467 1015.7233 39.3623047 1017.52734 39.3623047 1019.32032 39.3623047 1020.77294 38.6733467 1021.88525 37.2954102 1022.99756 35.9174736 1023.55371 34.0996207 1023.55371 31.8417969L1023.55371 31.4599609C1023.55371 30.0875582 1023.29916 28.8313859 1022.79004 27.6914062 1022.28092 26.5514266 1021.56706 25.6687857 1020.64844 25.043457 1019.72981 24.4181284 1018.67839 24.1054688 1017.49414 24.1054688 1015.7233 24.1054688 1014.27898 24.7999605 1013.16113 26.1889648 1012.04329 27.5779692 1011.48438 29.3958221 1011.48438 31.6425781L1011.48438 32.0078125zM1043.42578 40.7070312L1041.43359 40.7070312 1041.43359 24.4541016 1031.75488 24.4541016 1031.75488 40.7070312 1029.7627 40.7070312 1029.7627 22.7441406 1043.42578 22.7441406 1043.42578 40.7070312zM1060.07715 40.7070312C1059.87793 40.1425753 1059.75065 39.3069717 1059.69531 38.2001953 1058.99804 39.1077519 1058.10987 39.8077775 1057.03076 40.300293 1055.95165 40.7928085 1054.80893 41.0390625 1053.60254 41.0390625 1051.87597 41.0390625 1050.47868 40.557622 1049.41064 39.5947266 1048.34261 38.6318311 1047.80859 37.4143954 1047.80859 35.9423828 1047.80859 34.1936762 1048.53629 32.8102264 1049.9917 31.7919922 1051.44711 30.7737579 1053.47525 30.2646484 1056.07617 30.2646484L1059.67871 30.2646484 1059.67871 28.2226562C1059.67871 26.9387957 1059.28304 25.9288774 1058.4917 25.1928711 1057.70035 24.4568648 1056.54656 24.0888672 1055.03027 24.0888672 1053.6468 24.0888672 1052.50131 24.4430303 1051.59375 25.1513672 1050.68619 25.8597041 1050.23242 26.7119091 1050.23242 27.7080078L1048.24023 27.6914062C1048.24023 26.2636647 1048.90429 25.0268607 1050.23242 23.980957 1051.56055 22.9350534 1053.19302 22.4121094 1055.12988 22.4121094 1057.13315 22.4121094 1058.71305 22.9129182 1059.86963 23.9145508 1061.02621 24.9161834 1061.62109 26.3134676 1061.6543 28.1064453L1061.6543 36.6064453C1061.6543 38.3440842 1061.83691 39.6445269 1062.20215 40.5078125L1062.20215 40.7070312 1060.07715 40.7070312zM1053.83496 39.2792969C1055.16309 39.2792969 1056.35009 38.9583365 1057.396 38.3164062 1058.4419 37.674476 1059.2028 36.8167371 1059.67871 35.7431641L1059.67871 31.7919922 1056.12598 31.7919922C1054.14485 31.8141277 1052.59538 32.1765915 1051.47754 32.8793945 1050.35969 33.5821975 1049.80078 34.5478454 1049.80078 35.7763672 1049.80078 36.7835337 1050.17431 37.6191373 1050.92139 38.2832031 1051.66846 38.9472689 1052.63964 39.2792969 1053.83496 39.2792969zM1073.59082 39.3623047C1074.97429 39.3623047 1076.13362 38.9721719 1077.06885 38.1918945 1078.00407 37.4116172 1078.51042 36.4016989 1078.58789 35.1621094L1080.49707 35.1621094C1080.44173 36.257818 1080.09864 37.2566687 1079.46777 38.1586914 1078.83691 39.0607141 1077.99854 39.7662735 1076.95264 40.2753906 1075.90673 40.7845078 1074.78614 41.0390625 1073.59082 41.0390625 1071.23339 41.0390625 1069.36573 40.2200603 1067.98779 38.5820312 1066.60986 36.9440022 1065.9209 34.7415503 1065.9209 31.9746094L1065.9209 31.3769531C1065.9209 29.6061109 1066.23079 28.0400459 1066.85059 26.6787109 1067.47038 25.317376 1068.35856 24.2659542 1069.51514 23.5244141 1070.67172 22.7828739 1072.02473 22.4121094 1073.57422 22.4121094 1075.54428 22.4121094 1077.16845 22.9986921 1078.44678 24.171875 1079.7251 25.3450579 1080.40853 26.8889878 1080.49707 28.8037109L1078.58789 28.8037109C1078.49935 27.398105 1077.99301 26.2636762 1077.06885 25.4003906 1076.14469 24.5371051 1074.97982 24.1054688 1073.57422 24.1054688 1071.78124 24.1054688 1070.38949 24.7529232 1069.39893 26.0478516 1068.40836 27.3427799 1067.91309 29.1578659 1067.91309 31.4931641L1067.91309 32.0742188C1067.91309 34.3652458 1068.40836 36.1526629 1069.39893 37.4365234 1070.38949 38.720384 1071.78677 39.3623047 1073.59082 39.3623047zM1098.26074 40.7070312L1096.26855 40.7070312 1096.26855 32.4726562 1086.58984 32.4726562 1086.58984 40.7070312 1084.59766 40.7070312 1084.59766 22.7441406 1086.58984 22.7441406 1086.58984 30.7958984 1096.26855 30.7958984 1096.26855 22.7441406 1098.26074 22.7441406 1098.26074 40.7070312zM1102.47754 31.4599609C1102.47754 29.7333898 1102.81233 28.1783923 1103.48193 26.7949219 1104.15153 25.4114514 1105.09781 24.3351275 1106.3208 23.565918 1107.54379 22.7967084 1108.93001 22.4121094 1110.47949 22.4121094 1112.87013 22.4121094 1114.80696 23.2504799 1116.29004 24.9272461 1117.77312 26.6040123 1118.51465 28.8258325 1118.51465 31.5927734L1118.51465 32.0078125C1118.51465 33.7454514 1118.17985 35.3087496 1117.51025 36.6977539 1116.84065 38.0867582 1115.89714 39.1575483 1114.67969 39.9101562 1113.46223 40.6627642 1112.07325 41.0390625 1110.5127 41.0390625 1108.13313 41.0390625 1106.19906 40.200692 1104.71045 38.5239258 1103.22184 36.8471596 1102.47754 34.6253394 1102.47754 31.8583984L1102.47754 31.4599609zM1104.46973 32.0078125C1104.46973 34.1549587 1105.02587 35.9174736 1106.13818 37.2954102 1107.25049 38.6733467 1108.70865 39.3623047 1110.5127 39.3623047 1112.30567 39.3623047 1113.7583 38.6733467 1114.87061 37.2954102 1115.98292 35.9174736 1116.53906 34.0996207 1116.53906 31.8417969L1116.53906 31.4599609C1116.53906 30.0875582 1116.28451 28.8313859 1115.77539 27.6914062 1115.26627 26.5514266 1114.55241 25.6687857 1113.63379 25.043457 1112.71516 24.4181284 1111.66374 24.1054688 1110.47949 24.1054688 1108.70865 24.1054688 1107.26433 24.7999605 1106.14648 26.1889648 1105.02864 27.5779692 1104.46973 29.3958221 1104.46973 31.6425781L1104.46973 32.0078125zM1129.25586 39.3623047C1130.63933 39.3623047 1131.79866 38.9721719 1132.73389 38.1918945 1133.66911 37.4116172 1134.17546 36.4016989 1134.25293 35.1621094L1136.16211 35.1621094C1136.10677 36.257818 1135.76368 37.2566687 1135.13281 38.1586914 1134.50195 39.0607141 1133.66358 39.7662735 1132.61768 40.2753906 1131.57177 40.7845078 1130.45118 41.0390625 1129.25586 41.0390625 1126.89843 41.0390625 1125.03077 40.2200603 1123.65283 38.5820312 1122.2749 36.9440022 1121.58594 34.7415503 1121.58594 31.9746094L1121.58594 31.3769531C1121.58594 29.6061109 1121.89583 28.0400459 1122.51562 26.6787109 1123.13542 25.317376 1124.02359 24.2659542 1125.18018 23.5244141 1126.33676 22.7828739 1127.68977 22.4121094 1129.23926 22.4121094 1131.20932 22.4121094 1132.83349 22.9986921 1134.11182 24.171875 1135.39014 25.3450579 1136.07357 26.8889878 1136.16211 28.8037109L1134.25293 28.8037109C1134.16439 27.398105 1133.65804 26.2636762 1132.73389 25.4003906 1131.80973 24.5371051 1130.64486 24.1054688 1129.23926 24.1054688 1127.44628 24.1054688 1126.05453 24.7529232 1125.06396 26.0478516 1124.0734 27.3427799 1123.57812 29.1578659 1123.57812 31.4931641L1123.57812 32.0742188C1123.57812 34.3652458 1124.0734 36.1526629 1125.06396 37.4365234 1126.05453 38.720384 1127.45181 39.3623047 1129.25586 39.3623047zM1153.0293 24.4375L1146.48828 24.4375 1146.48828 40.7070312 1144.49609 40.7070312 1144.49609 24.4375 1138.2041 24.4375 1138.2041 22.7441406 1153.0293 22.7441406 1153.0293 24.4375zM1168.08691 22.7441406L1170.0791 22.7441406 1170.0791 40.7070312 1168.08691 40.7070312 1168.08691 25.9482422 1158.3916 40.7070312 1156.41602 40.7070312 1156.41602 22.7441406 1158.3916 22.7441406 1158.3916 37.5195312 1168.08691 22.7441406zM116.766484 16L149.98196 45.9847944 141.697068 45.9847944 108.475867 16.0042309 116.766484 16zM126.355247 37.3407715L116.777434 45.9847944 108.494782 45.9847944 118.062141 37.3407715 126.355247 37.3407715zM140.413108 24.6534802L132.119754 24.6534802 141.703041 16.0042309 149.997889 16.0042309 140.413108 24.6534802zM20.7524244 16L41.5135596 45.9847944 34.6699185 45.9847944 17.373162 20.8857196 20.7524244 16zM18.7611533 28.6915222L6.84364107 45.9847944 0 45.9847944 11.9737586 28.6915222 18.7611533 28.6915222zM83.2212438 16L103.982379 45.9847944 97.1387379 45.9847944 79.8419814 20.8857196 83.2212438 16zM74.442578 28.6915222L81.2299727 28.6915222 69.3124604 45.9847944 62.4688194 45.9847944 74.442578 28.6915222zM55.0729185 16L60.4531583 16 60.4531583 34.0543405C60.4576381 35.9104709 60.101494 39.7528949 57.2814599 42.7745199 55.2640566 44.9357745 52.0149573 46.0333255 49.7581336 45.9992293 48.7954744 45.9847944 47.3044476 45.9922607 47.3044476 45.9922607L47.3044476 41.3710982 49.0124958 41.3710982C53.6866693 41.0634852 55.071923 37.3380338 55.0848646 34.3532427L55.0729185 16z"/>
    <path stroke="#1D1D1D" stroke-linecap="square" stroke-width="2" d="M198,0 L198,62"/>
  </g>
</svg>
