<svg xmlns="http://www.w3.org/2000/svg" width="637" height="97" viewBox="0 0 637 97">
  <g fill="none" fill-rule="evenodd" transform="translate(0 1)">
    <path fill="#1D1D1D" d="M261.503906 37.7070312L260.0625 37.7070312 260.0625 21.875 250.40625 21.875 250.40625 37.7070312 248.964844 37.7070312 248.964844 20.6445312 261.503906 20.6445312 261.503906 37.7070312zM275.753906 31.4960938C275.753906 33.4726661 275.316411 35.0410098 274.441406 36.2011719 273.566402 37.3613339 272.394539 37.9414062 270.925781 37.9414062 269.191398 37.9414062 267.863286 37.3320373 266.941406 36.1132812L266.941406 42.5820312 265.546875 42.5820312 265.546875 25.0273438 266.847656 25.0273438 266.917969 26.8203125C267.832036 25.4687432 269.156241 24.7929688 270.890625 24.7929688 272.406258 24.7929688 273.595699 25.3671818 274.458984 26.515625 275.32227 27.6640682 275.753906 29.2578023 275.753906 31.296875L275.753906 31.4960938zM274.347656 31.25C274.347656 29.6328044 274.015628 28.3554734 273.351562 27.4179688 272.687497 26.4804641 271.761725 26.0117188 270.574219 26.0117188 269.714839 26.0117188 268.976566 26.2187479 268.359375 26.6328125 267.742184 27.0468771 267.269533 27.6484336 266.941406 28.4375L266.941406 34.5195312C267.277345 35.2460974 267.757809 35.8007793 268.382812 36.1835938 269.007816 36.5664082 269.746089 36.7578125 270.597656 36.7578125 271.77735 36.7578125 272.697262 36.2871141 273.357422 35.3457031 274.017581 34.4042922 274.347656 33.0390714 274.347656 31.25zM278.085938 31.1796875C278.085938 29.9609314 278.322263 28.8632861 278.794922 27.8867188 279.26758 26.9101514 279.935543 26.1503933 280.798828 25.6074219 281.662114 25.0644504 282.64062 24.7929688 283.734375 24.7929688 285.421883 24.7929688 286.789057 25.3847597 287.835938 26.5683594 288.882818 27.751959 289.40625 29.3203027 289.40625 31.2734375L289.40625 31.5664062C289.40625 32.7929749 289.169924 33.8964795 288.697266 34.8769531 288.224607 35.8574268 287.558598 36.6132786 286.699219 37.1445312 285.839839 37.6757839 284.859381 37.9414062 283.757812 37.9414062 282.078117 37.9414062 280.712896 37.3496153 279.662109 36.1660156 278.611323 34.982416 278.085938 33.4140723 278.085938 31.4609375L278.085938 31.1796875zM279.492188 31.5664062C279.492188 33.0820388 279.884762 34.326167 280.669922 35.2988281 281.455082 36.2714892 282.484369 36.7578125 283.757812 36.7578125 285.023444 36.7578125 286.048824 36.2714892 286.833984 35.2988281 287.619145 34.326167 288.011719 33.0429767 288.011719 31.4492188L288.011719 31.1796875C288.011719 30.2109327 287.832033 29.3242228 287.472656 28.5195312 287.113279 27.7148397 286.609378 27.0917991 285.960938 26.6503906 285.312497 26.2089822 284.570317 25.9882812 283.734375 25.9882812 282.484369 25.9882812 281.464848 26.4785107 280.675781 27.4589844 279.886715 28.439458 279.492188 29.7226483 279.492188 31.3085938L279.492188 31.5664062zM291.773438 31.4726562C291.773438 29.4101459 292.17773 27.781256 292.986328 26.5859375 293.794926 25.390619 294.914055 24.7929688 296.34375 24.7929688 297.164067 24.7929688 297.859372 24.9765607 298.429688 25.34375L298.429688 19.7070312 299.824219 19.7070312 299.824219 25.390625C300.402347 24.9921855 301.121089 24.7929688 301.980469 24.7929688 303.332038 24.7929688 304.414058 25.3359321 305.226562 26.421875 306.039067 27.5078179 306.480468 29.0195216 306.550781 30.9570312L306.5625 31.71875C306.5625 33.6484471 306.156254 35.1699163 305.34375 36.2832031 304.531246 37.3964899 303.417976 37.953125 302.003906 37.953125 301.160152 37.953125 300.433597 37.7695331 299.824219 37.4023438L299.824219 42.5820312 298.429688 42.5820312 298.429688 37.4140625C297.828122 37.7734393 297.125004 37.953125 296.320312 37.953125 294.984368 37.953125 293.914067 37.4472707 293.109375 36.4355469 292.304683 35.4238231 291.863282 34.0234464 291.785156 32.234375L291.773438 31.4726562zM305.167969 31.4726562C305.167969 29.7695227 304.861331 28.4296924 304.248047 27.453125 303.634763 26.4765576 302.777349 25.9882812 301.675781 25.9882812 300.878902 25.9882812 300.261721 26.1601545 299.824219 26.5039062L299.824219 36.3125C300.316409 36.617189 300.941402 36.7695312 301.699219 36.7695312 302.792974 36.7695312 303.644528 36.3300825 304.253906 35.4511719 304.863284 34.5722612 305.167969 33.2461026 305.167969 31.4726562zM293.179688 31.71875C293.179688 33.312508 293.472653 34.5527299 294.058594 35.4394531 294.644534 36.3261763 295.488276 36.7695312 296.589844 36.7695312 297.324222 36.7695312 297.937498 36.6093766 298.429688 36.2890625L298.429688 26.46875C297.97656 26.1484359 297.371098 25.9882812 296.613281 25.9882812 295.519526 25.9882812 294.673831 26.4746045 294.076172 27.4472656 293.478513 28.4199267 293.179688 29.8437406 293.179688 31.71875zM314.601562 37.9414062C313.523432 37.9414062 312.548832 37.6757839 311.677734 37.1445312 310.806636 36.6132786 310.128909 35.8730516 309.644531 34.9238281 309.160154 33.9746046 308.917969 32.9101621 308.917969 31.7304688L308.917969 31.2265625C308.917969 30.0078064 309.154295 28.9101611 309.626953 27.9335938 310.099612 26.9570264 310.757808 26.1894559 311.601562 25.6308594 312.445317 25.0722628 313.35937 24.7929688 314.34375 24.7929688 315.88282 24.7929688 317.103511 25.3183541 318.005859 26.3691406 318.908208 27.4199271 319.359375 28.8554596 319.359375 30.6757812L319.359375 31.4609375 310.3125 31.4609375 310.3125 31.7304688C310.3125 33.1679759 310.724605 34.3652296 311.548828 35.3222656 312.373051 36.2793017 313.41015 36.7578125 314.660156 36.7578125 315.41016 36.7578125 316.072263 36.6210951 316.646484 36.3476562 317.220706 36.0742174 317.742185 35.6367218 318.210938 35.0351562L319.089844 35.703125C318.058589 37.19532 316.56251 37.9414062 314.601562 37.9414062zM314.34375 25.9882812C313.289057 25.9882812 312.400394 26.3749961 311.677734 27.1484375 310.955075 27.9218789 310.515626 28.960931 310.359375 30.265625L317.964844 30.265625 317.964844 30.1132812C317.925781 28.8945252 317.578128 27.9023476 316.921875 27.1367188 316.265622 26.3710899 315.406255 25.9882812 314.34375 25.9882812zM326.777344 36.7578125C327.753911 36.7578125 328.572262 36.4824246 329.232422 35.9316406 329.892581 35.3808566 330.25 34.6679731 330.304688 33.7929688L331.652344 33.7929688C331.613281 34.5664101 331.371096 35.2714812 330.925781 35.9082031 330.480467 36.5449251 329.888676 37.042967 329.150391 37.4023438 328.412106 37.7617205 327.621098 37.9414062 326.777344 37.9414062 325.113273 37.9414062 323.794927 37.363287 322.822266 36.2070312 321.849605 35.0507755 321.363281 33.4961035 321.363281 31.5429688L321.363281 31.1210938C321.363281 29.8710875 321.582029 28.7656298 322.019531 27.8046875 322.457033 26.8437452 323.08398 26.1015651 323.900391 25.578125 324.716801 25.0546849 325.67187 24.7929688 326.765625 24.7929688 328.156257 24.7929688 329.30273 25.2070271 330.205078 26.0351562 331.107426 26.8632854 331.589843 27.9531182 331.652344 29.3046875L330.304688 29.3046875C330.242187 28.312495 329.884769 27.5117218 329.232422 26.9023438 328.580075 26.2929657 327.757817 25.9882812 326.765625 25.9882812 325.499994 25.9882812 324.517582 26.4453079 323.818359 27.359375 323.119137 28.2734421 322.769531 29.5546793 322.769531 31.203125L322.769531 31.6132812C322.769531 33.2304768 323.119137 34.492183 323.818359 35.3984375 324.517582 36.304692 325.5039 36.7578125 326.777344 36.7578125zM339.140625 36.7578125C340.117192 36.7578125 340.935544 36.4824246 341.595703 35.9316406 342.255863 35.3808566 342.613281 34.6679731 342.667969 33.7929688L344.015625 33.7929688C343.976562 34.5664101 343.734377 35.2714812 343.289062 35.9082031 342.843748 36.5449251 342.251957 37.042967 341.513672 37.4023438 340.775387 37.7617205 339.984379 37.9414062 339.140625 37.9414062 337.476554 37.9414062 336.158208 37.363287 335.185547 36.2070312 334.212886 35.0507755 333.726562 33.4961035 333.726562 31.5429688L333.726562 31.1210938C333.726562 29.8710875 333.94531 28.7656298 334.382812 27.8046875 334.820315 26.8437452 335.447262 26.1015651 336.263672 25.578125 337.080082 25.0546849 338.035151 24.7929688 339.128906 24.7929688 340.519538 24.7929688 341.666011 25.2070271 342.568359 26.0351562 343.470708 26.8632854 343.953125 27.9531182 344.015625 29.3046875L342.667969 29.3046875C342.605468 28.312495 342.24805 27.5117218 341.595703 26.9023438 340.943356 26.2929657 340.121099 25.9882812 339.128906 25.9882812 337.863275 25.9882812 336.880863 26.4453079 336.181641 27.359375 335.482418 28.2734421 335.132812 29.5546793 335.132812 31.203125L335.132812 31.6132812C335.132812 33.2304768 335.482418 34.492183 336.181641 35.3984375 336.880863 36.304692 337.867181 36.7578125 339.140625 36.7578125zM355.148438 25.0273438L356.554688 25.0273438 356.554688 37.7070312 355.148438 37.7070312 355.148438 27.2890625 348.304688 37.7070312 346.910156 37.7070312 346.910156 25.0273438 348.304688 25.0273438 348.304688 35.4570312 355.148438 25.0273438zM359.53125 31.1796875C359.53125 29.9609314 359.767576 28.8632861 360.240234 27.8867188 360.712893 26.9101514 361.380855 26.1503933 362.244141 25.6074219 363.107426 25.0644504 364.085932 24.7929688 365.179688 24.7929688 366.867196 24.7929688 368.23437 25.3847597 369.28125 26.5683594 370.32813 27.751959 370.851562 29.3203027 370.851562 31.2734375L370.851562 31.5664062C370.851562 32.7929749 370.615237 33.8964795 370.142578 34.8769531 369.66992 35.8574268 369.003911 36.6132786 368.144531 37.1445312 367.285152 37.6757839 366.304693 37.9414062 365.203125 37.9414062 363.523429 37.9414062 362.158208 37.3496153 361.107422 36.1660156 360.056635 34.982416 359.53125 33.4140723 359.53125 31.4609375L359.53125 31.1796875zM360.9375 31.5664062C360.9375 33.0820388 361.330074 34.326167 362.115234 35.2988281 362.900395 36.2714892 363.929681 36.7578125 365.203125 36.7578125 366.468756 36.7578125 367.494137 36.2714892 368.279297 35.2988281 369.064457 34.326167 369.457031 33.0429767 369.457031 31.4492188L369.457031 31.1796875C369.457031 30.2109327 369.277346 29.3242228 368.917969 28.5195312 368.558592 27.7148397 368.054691 27.0917991 367.40625 26.6503906 366.757809 26.2089822 366.015629 25.9882812 365.179688 25.9882812 363.929681 25.9882812 362.91016 26.4785107 362.121094 27.4589844 361.332027 28.439458 360.9375 29.7226483 360.9375 31.3085938L360.9375 31.5664062zM383.484375 37.7070312L382.078125 37.7070312 382.078125 31.8945312 375.246094 31.8945312 375.246094 37.7070312 373.839844 37.7070312 373.839844 25.0273438 375.246094 25.0273438 375.246094 30.7109375 382.078125 30.7109375 382.078125 25.0273438 383.484375 25.0273438 383.484375 37.7070312zM395.238281 37.7070312C395.097656 37.3085918 395.007813 36.7187539 394.96875 35.9375 394.47656 36.5781282 393.849613 37.0722639 393.087891 37.4199219 392.326168 37.7675799 391.519536 37.9414062 390.667969 37.9414062 389.449213 37.9414062 388.462894 37.6015659 387.708984 36.921875 386.955074 36.2421841 386.578125 35.3828177 386.578125 34.34375 386.578125 33.1093688 387.091792 32.1328161 388.119141 31.4140625 389.14649 30.6953089 390.578116 30.3359375 392.414062 30.3359375L394.957031 30.3359375 394.957031 28.8945312C394.957031 27.9882767 394.677737 27.2753932 394.119141 26.7558594 393.560544 26.2363255 392.746099 25.9765625 391.675781 25.9765625 390.699214 25.9765625 389.890628 26.22656 389.25 26.7265625 388.609372 27.226565 388.289062 27.8281215 388.289062 28.53125L386.882812 28.5195312C386.882812 27.5117137 387.351558 26.6386756 388.289062 25.9003906 389.226567 25.1621057 390.378899 24.7929688 391.746094 24.7929688 393.160163 24.7929688 394.275387 25.1464808 395.091797 25.8535156 395.908207 26.5605504 396.328125 27.5468687 396.351562 28.8125L396.351562 34.8125C396.351562 36.0390686 396.480467 36.9570282 396.738281 37.5664062L396.738281 37.7070312 395.238281 37.7070312zM390.832031 36.6992188C391.769536 36.6992188 392.607418 36.4726585 393.345703 36.0195312 394.083988 35.566404 394.621092 34.9609413 394.957031 34.203125L394.957031 31.4140625 392.449219 31.4140625C391.050774 31.4296876 389.957035 31.6855444 389.167969 32.1816406 388.378902 32.6777369 387.984375 33.3593707 387.984375 34.2265625 387.984375 34.9375036 388.248044 35.5273414 388.775391 35.9960938 389.302737 36.4648461 389.988277 36.6992188 390.832031 36.6992188zM409.839844 25.0273438L409.839844 37.7070312 408.433594 37.7070312 408.433594 26.234375 403.242188 26.234375 403.019531 30.9804688C402.925781 32.73829 402.750001 34.0800735 402.492188 35.0058594 402.234374 35.9316453 401.851565 36.6132791 401.34375 37.0507812 400.835935 37.4882834 400.16016 37.7070312 399.316406 37.7070312L398.777344 37.7070312 398.777344 36.4648438 399.210938 36.4414062C400.015629 36.4257812 400.593748 36.0351601 400.945312 35.2695312 401.296877 34.5039024 401.527343 33.1367286 401.636719 31.1679688L401.894531 25.0273438 409.839844 25.0273438zM415.148438 29.6328125L418.804688 29.6328125C419.742192 29.6328125 420.56445 29.8027327 421.271484 30.1425781 421.978519 30.4824236 422.51367 30.953122 422.876953 31.5546875 423.240236 32.156253 423.421875 32.8554648 423.421875 33.6523438 423.421875 34.8789124 423.001957 35.8613244 422.162109 36.5996094 421.322261 37.3378943 420.187507 37.7070312 418.757812 37.7070312L413.753906 37.7070312 413.753906 25.0273438 415.148438 25.0273438 415.148438 29.6328125zM415.148438 30.828125L415.148438 36.5234375 418.78125 36.5234375C419.789068 36.5234375 420.580075 36.2695338 421.154297 35.7617188 421.728518 35.2539037 422.015625 34.5585982 422.015625 33.6757812 422.015625 32.832027 421.736331 32.1503932 421.177734 31.6308594 420.619138 31.1113255 419.855474 30.8437501 418.886719 30.828125L415.148438 30.828125zM436.183594 37.7070312L434.777344 37.7070312 434.777344 31.8945312 427.945312 31.8945312 427.945312 37.7070312 426.539062 37.7070312 426.539062 25.0273438 427.945312 25.0273438 427.945312 30.7109375 434.777344 30.7109375 434.777344 25.0273438 436.183594 25.0273438 436.183594 37.7070312zM441.480469 29.6328125L445.136719 29.6328125C446.074223 29.6328125 446.896481 29.8027327 447.603516 30.1425781 448.31055 30.4824236 448.845701 30.953122 449.208984 31.5546875 449.572267 32.156253 449.753906 32.8554648 449.753906 33.6523438 449.753906 34.8789124 449.333989 35.8613244 448.494141 36.5996094 447.654293 37.3378943 446.519538 37.7070312 445.089844 37.7070312L440.085938 37.7070312 440.085938 25.0273438 441.480469 25.0273438 441.480469 29.6328125zM441.480469 30.828125L441.480469 36.5234375 445.113281 36.5234375C446.121099 36.5234375 446.912107 36.2695338 447.486328 35.7617188 448.06055 35.2539037 448.347656 34.5585982 448.347656 33.6757812 448.347656 32.832027 448.068362 32.1503932 447.509766 31.6308594 446.951169 31.1113255 446.187505 30.8437501 445.21875 30.828125L441.480469 30.828125zM454.054688 37.7070312L452.648438 37.7070312 452.648438 25.0273438 454.054688 25.0273438 454.054688 37.7070312zM462.867188 37.9414062C461.789057 37.9414062 460.814457 37.6757839 459.943359 37.1445312 459.072261 36.6132786 458.394534 35.8730516 457.910156 34.9238281 457.425779 33.9746046 457.183594 32.9101621 457.183594 31.7304688L457.183594 31.2265625C457.183594 30.0078064 457.41992 28.9101611 457.892578 27.9335938 458.365237 26.9570264 459.023433 26.1894559 459.867188 25.6308594 460.710942 25.0722628 461.624995 24.7929688 462.609375 24.7929688 464.148445 24.7929688 465.369136 25.3183541 466.271484 26.3691406 467.173833 27.4199271 467.625 28.8554596 467.625 30.6757812L467.625 31.4609375 458.578125 31.4609375 458.578125 31.7304688C458.578125 33.1679759 458.99023 34.3652296 459.814453 35.3222656 460.638676 36.2793017 461.675775 36.7578125 462.925781 36.7578125 463.675785 36.7578125 464.337888 36.6210951 464.912109 36.3476562 465.486331 36.0742174 466.00781 35.6367218 466.476562 35.0351562L467.355469 35.703125C466.324214 37.19532 464.828135 37.9414062 462.867188 37.9414062zM462.609375 25.9882812C461.554682 25.9882812 460.666019 26.3749961 459.943359 27.1484375 459.2207 27.9218789 458.781251 28.960931 458.625 30.265625L466.230469 30.265625 466.230469 30.1132812C466.191406 28.8945252 465.843753 27.9023476 465.1875 27.1367188 464.531247 26.3710899 463.67188 25.9882812 462.609375 25.9882812zM481.300781 25.8710938C482.910164 25.8710938 484.214839 26.3964791 485.214844 27.4472656 486.214849 28.4980521 486.714844 29.8906163 486.714844 31.625L486.714844 31.9296875C486.714844 33.0781307 486.48633 34.1113235 486.029297 35.0292969 485.572263 35.9472702 484.91602 36.6621068 484.060547 37.1738281 483.205074 37.6855494 482.222662 37.9414062 481.113281 37.9414062 479.441398 37.9414062 478.087896 37.3847712 477.052734 36.2714844 476.017573 35.1581976 475.5 33.6718843 475.5 31.8125L475.5 30.6875C475.5 28.0624869 475.999995 25.9648516 477 24.3945312 478.000005 22.8242109 479.421866 21.8867203 481.265625 21.5820312 482.429693 21.3945303 483.248045 21.1406266 483.720703 20.8203125 484.193362 20.4999984 484.429688 20.0625028 484.429688 19.5078125L485.636719 19.5078125C485.636719 20.1640658 485.500001 20.7070291 485.226562 21.1367188 484.953124 21.5664084 484.542971 21.9121081 483.996094 22.1738281 483.449216 22.4355482 482.613287 22.6562491 481.488281 22.8359375 480.199212 23.0390635 479.162113 23.5878862 478.376953 24.4824219 477.591793 25.3769576 477.082032 26.5742113 476.847656 28.0742188 477.347659 27.4179655 477.974606 26.8867208 478.728516 26.4804688 479.482426 26.0742167 480.339839 25.8710938 481.300781 25.8710938zM476.90625 31.6367188L476.90625 31.9296875C476.90625 33.3593821 477.292965 34.5214799 478.066406 35.4160156 478.839848 36.3105513 479.855462 36.7578125 481.113281 36.7578125 482.378913 36.7578125 483.394527 36.3066451 484.160156 35.4042969 484.925785 34.5019486 485.308594 33.3164136 485.308594 31.8476562L485.308594 31.5429688C485.308594 30.2226496 484.919926 29.1445354 484.142578 28.3085938 483.36523 27.4726521 482.347663 27.0546875 481.089844 27.0546875 479.832025 27.0546875 478.820316 27.4785114 478.054688 28.3261719 477.289059 29.1738324 476.90625 30.277337 476.90625 31.6367188zM494.308594 37.9414062C493.230463 37.9414062 492.255864 37.6757839 491.384766 37.1445312 490.513668 36.6132786 489.83594 35.8730516 489.351562 34.9238281 488.867185 33.9746046 488.625 32.9101621 488.625 31.7304688L488.625 31.2265625C488.625 30.0078064 488.861326 28.9101611 489.333984 27.9335938 489.806643 26.9570264 490.46484 26.1894559 491.308594 25.6308594 492.152348 25.0722628 493.066401 24.7929688 494.050781 24.7929688 495.589851 24.7929688 496.810542 25.3183541 497.712891 26.3691406 498.615239 27.4199271 499.066406 28.8554596 499.066406 30.6757812L499.066406 31.4609375 490.019531 31.4609375 490.019531 31.7304688C490.019531 33.1679759 490.431637 34.3652296 491.255859 35.3222656 492.080082 36.2793017 493.117181 36.7578125 494.367188 36.7578125 495.117191 36.7578125 495.779294 36.6210951 496.353516 36.3476562 496.927737 36.0742174 497.449216 35.6367218 497.917969 35.0351562L498.796875 35.703125C497.76562 37.19532 496.269541 37.9414062 494.308594 37.9414062zM494.050781 25.9882812C492.996088 25.9882812 492.107425 26.3749961 491.384766 27.1484375 490.662106 27.9218789 490.222657 28.960931 490.066406 30.265625L497.671875 30.265625 497.671875 30.1132812C497.632812 28.8945252 497.28516 27.9023476 496.628906 27.1367188 495.972653 26.3710899 495.113287 25.9882812 494.050781 25.9882812zM506.484375 36.7578125C507.460942 36.7578125 508.279294 36.4824246 508.939453 35.9316406 509.599613 35.3808566 509.957031 34.6679731 510.011719 33.7929688L511.359375 33.7929688C511.320312 34.5664101 511.078127 35.2714812 510.632812 35.9082031 510.187498 36.5449251 509.595707 37.042967 508.857422 37.4023438 508.119137 37.7617205 507.328129 37.9414062 506.484375 37.9414062 504.820304 37.9414062 503.501958 37.363287 502.529297 36.2070312 501.556636 35.0507755 501.070312 33.4961035 501.070312 31.5429688L501.070312 31.1210938C501.070312 29.8710875 501.28906 28.7656298 501.726562 27.8046875 502.164065 26.8437452 502.791012 26.1015651 503.607422 25.578125 504.423832 25.0546849 505.378901 24.7929688 506.472656 24.7929688 507.863288 24.7929688 509.009761 25.2070271 509.912109 26.0351562 510.814458 26.8632854 511.296875 27.9531182 511.359375 29.3046875L510.011719 29.3046875C509.949218 28.312495 509.5918 27.5117218 508.939453 26.9023438 508.287106 26.2929657 507.464849 25.9882812 506.472656 25.9882812 505.207025 25.9882812 504.224613 26.4453079 503.525391 27.359375 502.826168 28.2734421 502.476562 29.5546793 502.476562 31.203125L502.476562 31.6132812C502.476562 33.2304768 502.826168 34.492183 503.525391 35.3984375 504.224613 36.304692 505.210931 36.7578125 506.484375 36.7578125zM523.898438 37.7070312L522.492188 37.7070312 522.492188 26.234375 515.660156 26.234375 515.660156 37.7070312 514.253906 37.7070312 514.253906 25.0273438 523.898438 25.0273438 523.898438 37.7070312zM537.84375 31.4960938C537.84375 33.4726661 537.406254 35.0410098 536.53125 36.2011719 535.656246 37.3613339 534.484382 37.9414062 533.015625 37.9414062 531.281241 37.9414062 529.95313 37.3320373 529.03125 36.1132812L529.03125 42.5820312 527.636719 42.5820312 527.636719 25.0273438 528.9375 25.0273438 529.007812 26.8203125C529.92188 25.4687432 531.246085 24.7929688 532.980469 24.7929688 534.496101 24.7929688 535.685543 25.3671818 536.548828 26.515625 537.412114 27.6640682 537.84375 29.2578023 537.84375 31.296875L537.84375 31.4960938zM536.4375 31.25C536.4375 29.6328044 536.105472 28.3554734 535.441406 27.4179688 534.77734 26.4804641 533.851568 26.0117188 532.664062 26.0117188 531.804683 26.0117188 531.066409 26.2187479 530.449219 26.6328125 529.832028 27.0468771 529.359377 27.6484336 529.03125 28.4375L529.03125 34.5195312C529.367189 35.2460974 529.847653 35.8007793 530.472656 36.1835938 531.097659 36.5664082 531.835933 36.7578125 532.6875 36.7578125 533.867193 36.7578125 534.787106 36.2871141 535.447266 35.3457031 536.107425 34.4042922 536.4375 33.0390714 536.4375 31.25zM540.175781 31.1796875C540.175781 29.9609314 540.412107 28.8632861 540.884766 27.8867188 541.357424 26.9101514 542.025386 26.1503933 542.888672 25.6074219 543.751957 25.0644504 544.730463 24.7929688 545.824219 24.7929688 547.511727 24.7929688 548.878901 25.3847597 549.925781 26.5683594 550.972661 27.751959 551.496094 29.3203027 551.496094 31.2734375L551.496094 31.5664062C551.496094 32.7929749 551.259768 33.8964795 550.787109 34.8769531 550.314451 35.8574268 549.648442 36.6132786 548.789062 37.1445312 547.929683 37.6757839 546.949224 37.9414062 545.847656 37.9414062 544.16796 37.9414062 542.80274 37.3496153 541.751953 36.1660156 540.701167 34.982416 540.175781 33.4140723 540.175781 31.4609375L540.175781 31.1796875zM541.582031 31.5664062C541.582031 33.0820388 541.974605 34.326167 542.759766 35.2988281 543.544926 36.2714892 544.574212 36.7578125 545.847656 36.7578125 547.113288 36.7578125 548.138668 36.2714892 548.923828 35.2988281 549.708988 34.326167 550.101562 33.0429767 550.101562 31.4492188L550.101562 31.1796875C550.101562 30.2109327 549.921877 29.3242228 549.5625 28.5195312 549.203123 27.7148397 548.699222 27.0917991 548.050781 26.6503906 547.402341 26.2089822 546.66016 25.9882812 545.824219 25.9882812 544.574212 25.9882812 543.554691 26.4785107 542.765625 27.4589844 541.976559 28.439458 541.582031 29.7226483 541.582031 31.3085938L541.582031 31.5664062zM554.542969 37.7070312L554.542969 25.0273438 559.195312 25.0273438C560.804696 25.0273438 562.039058 25.3144503 562.898438 25.8886719 563.757817 26.4628935 564.1875 27.304682 564.1875 28.4140625 564.1875 29.0468782 563.996096 29.6113256 563.613281 30.1074219 563.230467 30.6035181 562.671879 30.9648426 561.9375 31.1914062 562.765629 31.347657 563.431638 31.7031222 563.935547 32.2578125 564.439456 32.8125028 564.691406 33.4570276 564.691406 34.1914062 564.691406 35.3085993 564.279301 36.1738251 563.455078 36.7871094 562.630855 37.4003937 561.464851 37.7070312 559.957031 37.7070312L554.542969 37.7070312zM555.9375 31.8710938L555.9375 36.5351562 560.003906 36.5351562C561.058599 36.5351562 561.871091 36.3320333 562.441406 35.9257812 563.011722 35.5195292 563.296875 34.9335976 563.296875 34.1679688 563.296875 33.4648402 563.011722 32.9062521 562.441406 32.4921875 561.871091 32.0781229 561.058599 31.8710938 560.003906 31.8710938L555.9375 31.8710938zM555.9375 30.6992188L559.488281 30.6992188C561.691417 30.6679686 562.792969 29.9179761 562.792969 28.4492188 562.792969 27.6757774 562.490237 27.1113299 561.884766 26.7558594 561.279294 26.4003888 560.382818 26.2226562 559.195312 26.2226562L555.9375 26.2226562 555.9375 30.6992188zM567.035156 31.1796875C567.035156 29.9609314 567.271482 28.8632861 567.744141 27.8867188 568.216799 26.9101514 568.884761 26.1503933 569.748047 25.6074219 570.611332 25.0644504 571.589838 24.7929688 572.683594 24.7929688 574.371102 24.7929688 575.738276 25.3847597 576.785156 26.5683594 577.832036 27.751959 578.355469 29.3203027 578.355469 31.2734375L578.355469 31.5664062C578.355469 32.7929749 578.119143 33.8964795 577.646484 34.8769531 577.173826 35.8574268 576.507817 36.6132786 575.648438 37.1445312 574.789058 37.6757839 573.808599 37.9414062 572.707031 37.9414062 571.027335 37.9414062 569.662115 37.3496153 568.611328 36.1660156 567.560542 34.982416 567.035156 33.4140723 567.035156 31.4609375L567.035156 31.1796875zM568.441406 31.5664062C568.441406 33.0820388 568.83398 34.326167 569.619141 35.2988281 570.404301 36.2714892 571.433587 36.7578125 572.707031 36.7578125 573.972663 36.7578125 574.998043 36.2714892 575.783203 35.2988281 576.568363 34.326167 576.960938 33.0429767 576.960938 31.4492188L576.960938 31.1796875C576.960938 30.2109327 576.781252 29.3242228 576.421875 28.5195312 576.062498 27.7148397 575.558597 27.0917991 574.910156 26.6503906 574.261716 26.2089822 573.519535 25.9882812 572.683594 25.9882812 571.433587 25.9882812 570.414066 26.4785107 569.625 27.4589844 568.835934 28.439458 568.441406 29.7226483 568.441406 31.3085938L568.441406 31.5664062zM580.957031 36.5234375L581.578125 35.7148438C582.562505 34.3788996 583.128906 32.4257941 583.277344 29.8554688L583.5 25.0273438 590.988281 25.0273438 590.988281 36.5234375 592.300781 36.5234375 592.300781 41.4335938 590.90625 41.4335938 590.90625 37.7070312 581.378906 37.7070312 581.378906 41.4335938 580.03125 41.4335938 580.042969 36.5234375 580.957031 36.5234375zM582.574219 36.5234375L589.582031 36.5234375 589.582031 26.3398438 584.835938 26.3398438 584.683594 29.6328125C584.542968 32.6562651 583.83985 34.9531171 582.574219 36.5234375zM604.746094 37.7070312L603.339844 37.7070312 603.339844 31.8945312 596.507812 31.8945312 596.507812 37.7070312 595.101562 37.7070312 595.101562 25.0273438 596.507812 25.0273438 596.507812 30.7109375 603.339844 30.7109375 603.339844 25.0273438 604.746094 25.0273438 604.746094 37.7070312zM610.042969 29.6328125L613.699219 29.6328125C614.636723 29.6328125 615.458981 29.8027327 616.166016 30.1425781 616.87305 30.4824236 617.408201 30.953122 617.771484 31.5546875 618.134767 32.156253 618.316406 32.8554648 618.316406 33.6523438 618.316406 34.8789124 617.896489 35.8613244 617.056641 36.5996094 616.216793 37.3378943 615.082038 37.7070312 613.652344 37.7070312L608.648438 37.7070312 608.648438 25.0273438 610.042969 25.0273438 610.042969 29.6328125zM610.042969 30.828125L610.042969 36.5234375 613.675781 36.5234375C614.683599 36.5234375 615.474607 36.2695338 616.048828 35.7617188 616.62305 35.2539037 616.910156 34.5585982 616.910156 33.6757812 616.910156 32.832027 616.630862 32.1503932 616.072266 31.6308594 615.513669 31.1113255 614.750005 30.8437501 613.78125 30.828125L610.042969 30.828125zM622.617188 37.7070312L621.210938 37.7070312 621.210938 25.0273438 622.617188 25.0273438 622.617188 37.7070312zM631.429688 37.9414062C630.351557 37.9414062 629.376957 37.6757839 628.505859 37.1445312 627.634761 36.6132786 626.957034 35.8730516 626.472656 34.9238281 625.988279 33.9746046 625.746094 32.9101621 625.746094 31.7304688L625.746094 31.2265625C625.746094 30.0078064 625.98242 28.9101611 626.455078 27.9335938 626.927737 26.9570264 627.585933 26.1894559 628.429688 25.6308594 629.273442 25.0722628 630.187495 24.7929688 631.171875 24.7929688 632.710945 24.7929688 633.931636 25.3183541 634.833984 26.3691406 635.736333 27.4199271 636.1875 28.8554596 636.1875 30.6757812L636.1875 31.4609375 627.140625 31.4609375 627.140625 31.7304688C627.140625 33.1679759 627.55273 34.3652296 628.376953 35.3222656 629.201176 36.2793017 630.238275 36.7578125 631.488281 36.7578125 632.238285 36.7578125 632.900388 36.6210951 633.474609 36.3476562 634.048831 36.0742174 634.57031 35.6367218 635.039062 35.0351562L635.917969 35.703125C634.886714 37.19532 633.390635 37.9414062 631.429688 37.9414062zM631.171875 25.9882812C630.117182 25.9882812 629.228519 26.3749961 628.505859 27.1484375 627.7832 27.9218789 627.343751 28.960931 627.1875 30.265625L634.792969 30.265625 634.792969 30.1132812C634.753906 28.8945252 634.406253 27.9023476 633.75 27.1367188 633.093747 26.3710899 632.23438 25.9882812 631.171875 25.9882812zM253.265625 68.7578125C254.242192 68.7578125 255.060544 68.4824246 255.720703 67.9316406 256.380863 67.3808566 256.738281 66.6679731 256.792969 65.7929688L258.140625 65.7929688C258.101562 66.5664101 257.859377 67.2714812 257.414062 67.9082031 256.968748 68.5449251 256.376957 69.042967 255.638672 69.4023438 254.900387 69.7617205 254.109379 69.9414062 253.265625 69.9414062 251.601554 69.9414062 250.283208 69.363287 249.310547 68.2070312 248.337886 67.0507755 247.851562 65.4961035 247.851562 63.5429688L247.851562 63.1210938C247.851562 61.8710875 248.07031 60.7656298 248.507812 59.8046875 248.945315 58.8437452 249.572262 58.1015651 250.388672 57.578125 251.205082 57.0546849 252.160151 56.7929688 253.253906 56.7929688 254.644538 56.7929688 255.791011 57.2070271 256.693359 58.0351562 257.595708 58.8632854 258.078125 59.9531182 258.140625 61.3046875L256.792969 61.3046875C256.730468 60.312495 256.37305 59.5117218 255.720703 58.9023438 255.068356 58.2929657 254.246099 57.9882812 253.253906 57.9882812 251.988275 57.9882812 251.005863 58.4453079 250.306641 59.359375 249.607418 60.2734421 249.257812 61.5546793 249.257812 63.203125L249.257812 63.6132812C249.257812 65.2304768 249.607418 66.492183 250.306641 67.3984375 251.005863 68.304692 251.992181 68.7578125 253.265625 68.7578125zM269.273438 57.0273438L270.679688 57.0273438 270.679688 69.7070312 269.273438 69.7070312 269.273438 59.2890625 262.429688 69.7070312 261.035156 69.7070312 261.035156 57.0273438 262.429688 57.0273438 262.429688 67.4570312 269.273438 57.0273438zM279.117188 68.7578125C280.093755 68.7578125 280.912106 68.4824246 281.572266 67.9316406 282.232425 67.3808566 282.589843 66.6679731 282.644531 65.7929688L283.992188 65.7929688C283.953125 66.5664101 283.71094 67.2714812 283.265625 67.9082031 282.82031 68.5449251 282.228519 69.042967 281.490234 69.4023438 280.751949 69.7617205 279.960942 69.9414062 279.117188 69.9414062 277.453117 69.9414062 276.13477 69.363287 275.162109 68.2070312 274.189448 67.0507755 273.703125 65.4961035 273.703125 63.5429688L273.703125 63.1210938C273.703125 61.8710875 273.921873 60.7656298 274.359375 59.8046875 274.796877 58.8437452 275.423824 58.1015651 276.240234 57.578125 277.056645 57.0546849 278.011713 56.7929688 279.105469 56.7929688 280.496101 56.7929688 281.642574 57.2070271 282.544922 58.0351562 283.44727 58.8632854 283.929687 59.9531182 283.992188 61.3046875L282.644531 61.3046875C282.582031 60.312495 282.224613 59.5117218 281.572266 58.9023438 280.919919 58.2929657 280.097661 57.9882812 279.105469 57.9882812 277.839837 57.9882812 276.857425 58.4453079 276.158203 59.359375 275.458981 60.2734421 275.109375 61.5546793 275.109375 63.203125L275.109375 63.6132812C275.109375 65.2304768 275.458981 66.492183 276.158203 67.3984375 276.857425 68.304692 277.843744 68.7578125 279.117188 68.7578125zM295.898438 58.2226562L291.28125 58.2226562 291.28125 69.7070312 289.875 69.7070312 289.875 58.2226562 285.433594 58.2226562 285.433594 57.0273438 295.898438 57.0273438 295.898438 58.2226562zM303.105469 69.9414062C302.027338 69.9414062 301.052739 69.6757839 300.181641 69.1445312 299.310543 68.6132786 298.632815 67.8730516 298.148438 66.9238281 297.66406 65.9746046 297.421875 64.9101621 297.421875 63.7304688L297.421875 63.2265625C297.421875 62.0078064 297.658201 60.9101611 298.130859 59.9335938 298.603518 58.9570264 299.261715 58.1894559 300.105469 57.6308594 300.949223 57.0722628 301.863276 56.7929688 302.847656 56.7929688 304.386726 56.7929688 305.607417 57.3183541 306.509766 58.3691406 307.412114 59.4199271 307.863281 60.8554596 307.863281 62.6757812L307.863281 63.4609375 298.816406 63.4609375 298.816406 63.7304688C298.816406 65.1679759 299.228512 66.3652296 300.052734 67.3222656 300.876957 68.2793017 301.914056 68.7578125 303.164062 68.7578125 303.914066 68.7578125 304.576169 68.6210951 305.150391 68.3476562 305.724612 68.0742174 306.246091 67.6367218 306.714844 67.0351562L307.59375 67.703125C306.562495 69.19532 305.066416 69.9414062 303.105469 69.9414062zM302.847656 57.9882812C301.792963 57.9882812 300.9043 58.3749961 300.181641 59.1484375 299.458981 59.9218789 299.019532 60.960931 298.863281 62.265625L306.46875 62.265625 306.46875 62.1132812C306.429687 60.8945252 306.082035 59.9023476 305.425781 59.1367188 304.769528 58.3710899 303.910162 57.9882812 302.847656 57.9882812zM317.613281 67.8085938L322.652344 57.0273438 324.386719 57.0273438 324.386719 69.7070312 322.980469 69.7070312 322.980469 59.3007812 318.105469 69.7070312 317.109375 69.7070312 312.140625 59.0664062 312.140625 69.7070312 310.746094 69.7070312 310.746094 57.0273438 312.585938 57.0273438 317.613281 67.8085938zM329.683594 61.6328125L333.339844 61.6328125C334.277348 61.6328125 335.099606 61.8027327 335.806641 62.1425781 336.513675 62.4824236 337.048826 62.953122 337.412109 63.5546875 337.775392 64.156253 337.957031 64.8554648 337.957031 65.6523438 337.957031 66.8789124 337.537114 67.8613244 336.697266 68.5996094 335.857418 69.3378943 334.722663 69.7070312 333.292969 69.7070312L328.289062 69.7070312 328.289062 57.0273438 329.683594 57.0273438 329.683594 61.6328125zM329.683594 62.828125L329.683594 68.5234375 333.316406 68.5234375C334.324224 68.5234375 335.115232 68.2695338 335.689453 67.7617188 336.263675 67.2539037 336.550781 66.5585982 336.550781 65.6757812 336.550781 64.832027 336.271487 64.1503932 335.712891 63.6308594 335.154294 63.1113255 334.39063 62.8437501 333.421875 62.828125L329.683594 62.828125zM342.257812 69.7070312L340.851562 69.7070312 340.851562 57.0273438 342.257812 57.0273438 342.257812 69.7070312zM357.105469 57.8710938C358.714852 57.8710938 360.019526 58.3964791 361.019531 59.4472656 362.019536 60.4980521 362.519531 61.8906163 362.519531 63.625L362.519531 63.9296875C362.519531 65.0781307 362.291018 66.1113235 361.833984 67.0292969 361.376951 67.9472702 360.720707 68.6621068 359.865234 69.1738281 359.009761 69.6855494 358.027349 69.9414062 356.917969 69.9414062 355.246085 69.9414062 353.892583 69.3847712 352.857422 68.2714844 351.82226 67.1581976 351.304688 65.6718843 351.304688 63.8125L351.304688 62.6875C351.304688 60.0624869 351.804683 57.9648516 352.804688 56.3945312 353.804692 54.8242109 355.226553 53.8867203 357.070312 53.5820312 358.234381 53.3945303 359.052732 53.1406266 359.525391 52.8203125 359.998049 52.4999984 360.234375 52.0625028 360.234375 51.5078125L361.441406 51.5078125C361.441406 52.1640658 361.304689 52.7070291 361.03125 53.1367188 360.757811 53.5664084 360.347659 53.9121081 359.800781 54.1738281 359.253904 54.4355482 358.417974 54.6562491 357.292969 54.8359375 356.0039 55.0390635 354.966801 55.5878862 354.181641 56.4824219 353.39648 57.3769576 352.88672 58.5742112 352.652344 60.0742188 353.152346 59.4179655 353.779293 58.8867208 354.533203 58.4804688 355.287113 58.0742167 356.144526 57.8710938 357.105469 57.8710938zM352.710938 63.6367188L352.710938 63.9296875C352.710938 65.3593821 353.097652 66.5214799 353.871094 67.4160156 354.644535 68.3105513 355.66015 68.7578125 356.917969 68.7578125 358.1836 68.7578125 359.199215 68.3066451 359.964844 67.4042969 360.730473 66.5019486 361.113281 65.3164136 361.113281 63.8476562L361.113281 63.5429688C361.113281 62.2226496 360.724613 61.1445354 359.947266 60.3085938 359.169918 59.4726521 358.15235 59.0546875 356.894531 59.0546875 355.636712 59.0546875 354.625004 59.4785114 353.859375 60.3261719 353.093746 61.1738324 352.710938 62.277337 352.710938 63.6367188zM370.113281 69.9414062C369.035151 69.9414062 368.060551 69.6757839 367.189453 69.1445312 366.318355 68.6132786 365.640627 67.8730516 365.15625 66.9238281 364.671873 65.9746046 364.429688 64.9101621 364.429688 63.7304688L364.429688 63.2265625C364.429688 62.0078064 364.666013 60.9101611 365.138672 59.9335938 365.61133 58.9570264 366.269527 58.1894559 367.113281 57.6308594 367.957035 57.0722628 368.871089 56.7929688 369.855469 56.7929688 371.394539 56.7929688 372.61523 57.3183541 373.517578 58.3691406 374.419926 59.4199271 374.871094 60.8554596 374.871094 62.6757812L374.871094 63.4609375 365.824219 63.4609375 365.824219 63.7304688C365.824219 65.1679759 366.236324 66.3652296 367.060547 67.3222656 367.88477 68.2793017 368.921869 68.7578125 370.171875 68.7578125 370.921879 68.7578125 371.583982 68.6210951 372.158203 68.3476562 372.732425 68.0742174 373.253904 67.6367218 373.722656 67.0351562L374.601562 67.703125C373.570307 69.19532 372.074229 69.9414062 370.113281 69.9414062zM369.855469 57.9882812C368.800776 57.9882812 367.912113 58.3749961 367.189453 59.1484375 366.466793 59.9218789 366.027345 60.960931 365.871094 62.265625L373.476562 62.265625 373.476562 62.1132812C373.4375 60.8945252 373.089847 59.9023476 372.433594 59.1367188 371.77734 58.3710899 370.917974 57.9882812 369.855469 57.9882812zM385.03125 60.3789062C385.03125 59.6132774 384.746097 59.0234396 384.175781 58.609375 383.605466 58.1953104 382.820317 57.9882812 381.820312 57.9882812 380.914058 57.9882812 380.138675 58.2207008 379.494141 58.6855469 378.849606 59.1503929 378.527344 59.7382777 378.527344 60.4492188L377.132812 60.4492188C377.132812 59.394526 377.58398 58.5234409 378.486328 57.8359375 379.388676 57.1484341 380.499993 56.8046875 381.820312 56.8046875 383.273445 56.8046875 384.406246 57.1171844 385.21875 57.7421875 386.031254 58.3671906 386.4375 59.2539005 386.4375 60.4023438 386.4375 61.0117218 386.250002 61.5624975 385.875 62.0546875 385.499998 62.5468775 384.953129 62.9296861 384.234375 63.203125 385.859383 63.6484397 386.671875 64.6562421 386.671875 66.2265625 386.671875 67.3671932 386.230473 68.2695279 385.347656 68.9335938 384.464839 69.5976596 383.292976 69.9296875 381.832031 69.9296875 380.417962 69.9296875 379.246098 69.5742223 378.316406 68.8632812 377.386714 68.1523402 376.921875 67.222662 376.921875 66.0742188L378.328125 66.0742188C378.328125 66.8398476 378.666012 67.4785131 379.341797 67.9902344 380.017582 68.5019557 380.847651 68.7578125 381.832031 68.7578125 382.902349 68.7578125 383.740231 68.5332054 384.345703 68.0839844 384.951175 67.6347634 385.253906 67.0234414 385.253906 66.25 385.253906 65.3984332 384.976565 64.7851581 384.421875 64.4101562 383.867185 64.0351544 383.019537 63.8476562 381.878906 63.8476562L379.945312 63.8476562 379.945312 62.6289062 382.113281 62.6289062C384.058603 62.582031 385.03125 61.8320385 385.03125 60.3789062zM388.980469 63.1796875C388.980469 61.9609314 389.216795 60.8632861 389.689453 59.8867188 390.162112 58.9101514 390.830074 58.1503933 391.693359 57.6074219 392.556645 57.0644504 393.535151 56.7929688 394.628906 56.7929688 396.316415 56.7929688 397.683589 57.3847597 398.730469 58.5683594 399.777349 59.751959 400.300781 61.3203027 400.300781 63.2734375L400.300781 63.5664062C400.300781 64.7929749 400.064455 65.8964795 399.591797 66.8769531 399.119138 67.8574268 398.453129 68.6132786 397.59375 69.1445312 396.734371 69.6757839 395.753912 69.9414062 394.652344 69.9414062 392.972648 69.9414062 391.607427 69.3496153 390.556641 68.1660156 389.505854 66.982416 388.980469 65.4140723 388.980469 63.4609375L388.980469 63.1796875zM390.386719 63.5664062C390.386719 65.0820388 390.779293 66.326167 391.564453 67.2988281 392.349613 68.2714892 393.3789 68.7578125 394.652344 68.7578125 395.917975 68.7578125 396.943355 68.2714892 397.728516 67.2988281 398.513676 66.326167 398.90625 65.0429767 398.90625 63.4492188L398.90625 63.1796875C398.90625 62.2109327 398.726564 61.3242228 398.367188 60.5195312 398.007811 59.7148397 397.503909 59.0917991 396.855469 58.6503906 396.207028 58.2089822 395.464848 57.9882812 394.628906 57.9882812 393.3789 57.9882812 392.359379 58.4785107 391.570312 59.4589844 390.781246 60.439458 390.386719 61.7226483 390.386719 63.3085938L390.386719 63.5664062zM412.933594 69.7070312L411.527344 69.7070312 411.527344 58.234375 404.695312 58.234375 404.695312 69.7070312 403.289062 69.7070312 403.289062 57.0273438 412.933594 57.0273438 412.933594 69.7070312zM424.6875 69.7070312C424.546874 69.3085918 424.457031 68.7187539 424.417969 67.9375 423.925779 68.5781282 423.298832 69.0722639 422.537109 69.4199219 421.775387 69.7675799 420.968754 69.9414062 420.117188 69.9414062 418.898431 69.9414062 417.912113 69.6015659 417.158203 68.921875 416.404293 68.2421841 416.027344 67.3828177 416.027344 66.34375 416.027344 65.1093688 416.54101 64.1328161 417.568359 63.4140625 418.595708 62.6953089 420.027335 62.3359375 421.863281 62.3359375L424.40625 62.3359375 424.40625 60.8945312C424.40625 59.9882767 424.126956 59.2753932 423.568359 58.7558594 423.009763 58.2363255 422.195318 57.9765625 421.125 57.9765625 420.148433 57.9765625 419.339847 58.22656 418.699219 58.7265625 418.058591 59.226565 417.738281 59.8281215 417.738281 60.53125L416.332031 60.5195312C416.332031 59.5117137 416.800777 58.6386756 417.738281 57.9003906 418.675786 57.1621057 419.828118 56.7929688 421.195312 56.7929688 422.609382 56.7929688 423.724605 57.1464808 424.541016 57.8535156 425.357426 58.5605504 425.777344 59.5468687 425.800781 60.8125L425.800781 66.8125C425.800781 68.0390686 425.929686 68.9570282 426.1875 69.5664062L426.1875 69.7070312 424.6875 69.7070312zM420.28125 68.6992188C421.218755 68.6992188 422.056637 68.4726585 422.794922 68.0195312 423.533207 67.566404 424.070311 66.9609413 424.40625 66.203125L424.40625 63.4140625 421.898438 63.4140625C420.499993 63.4296876 419.406254 63.6855444 418.617188 64.1816406 417.828121 64.6777369 417.433594 65.3593707 417.433594 66.2265625 417.433594 66.9375036 417.697263 67.5273414 418.224609 67.9960938 418.751956 68.4648461 419.437496 68.6992188 420.28125 68.6992188zM434.226562 68.7578125C435.20313 68.7578125 436.021481 68.4824246 436.681641 67.9316406 437.3418 67.3808566 437.699218 66.6679731 437.753906 65.7929688L439.101562 65.7929688C439.0625 66.5664101 438.820315 67.2714812 438.375 67.9082031 437.929685 68.5449251 437.337894 69.042967 436.599609 69.4023438 435.861324 69.7617205 435.070317 69.9414062 434.226562 69.9414062 432.562492 69.9414062 431.244145 69.363287 430.271484 68.2070312 429.298823 67.0507755 428.8125 65.4961035 428.8125 63.5429688L428.8125 63.1210938C428.8125 61.8710875 429.031248 60.7656298 429.46875 59.8046875 429.906252 58.8437452 430.533199 58.1015651 431.349609 57.578125 432.16602 57.0546849 433.121088 56.7929688 434.214844 56.7929688 435.605476 56.7929688 436.751949 57.2070271 437.654297 58.0351562 438.556645 58.8632854 439.039062 59.9531182 439.101562 61.3046875L437.753906 61.3046875C437.691406 60.312495 437.333988 59.5117218 436.681641 58.9023438 436.029294 58.2929657 435.207036 57.9882812 434.214844 57.9882812 432.949212 57.9882812 431.9668 58.4453079 431.267578 59.359375 430.568356 60.2734421 430.21875 61.5546793 430.21875 63.203125L430.21875 63.6132812C430.21875 65.2304768 430.568356 66.492183 431.267578 67.3984375 431.9668 68.304692 432.953119 68.7578125 434.226562 68.7578125zM451.640625 69.7070312L450.234375 69.7070312 450.234375 63.8945312 443.402344 63.8945312 443.402344 69.7070312 441.996094 69.7070312 441.996094 57.0273438 443.402344 57.0273438 443.402344 62.7109375 450.234375 62.7109375 450.234375 57.0273438 451.640625 57.0273438 451.640625 69.7070312zM454.617188 63.1796875C454.617188 61.9609314 454.853513 60.8632861 455.326172 59.8867188 455.79883 58.9101514 456.466793 58.1503933 457.330078 57.6074219 458.193364 57.0644504 459.17187 56.7929688 460.265625 56.7929688 461.953133 56.7929688 463.320307 57.3847597 464.367188 58.5683594 465.414068 59.751959 465.9375 61.3203027 465.9375 63.2734375L465.9375 63.5664062C465.9375 64.7929749 465.701174 65.8964795 465.228516 66.8769531 464.755857 67.8574268 464.089848 68.6132786 463.230469 69.1445312 462.371089 69.6757839 461.390631 69.9414062 460.289062 69.9414062 458.609367 69.9414062 457.244146 69.3496153 456.193359 68.1660156 455.142573 66.982416 454.617188 65.4140723 454.617188 63.4609375L454.617188 63.1796875zM456.023438 63.5664062C456.023438 65.0820388 456.416012 66.326167 457.201172 67.2988281 457.986332 68.2714892 459.015619 68.7578125 460.289062 68.7578125 461.554694 68.7578125 462.580074 68.2714892 463.365234 67.2988281 464.150395 66.326167 464.542969 65.0429767 464.542969 63.4492188L464.542969 63.1796875C464.542969 62.2109327 464.363283 61.3242228 464.003906 60.5195312 463.644529 59.7148397 463.140628 59.0917991 462.492188 58.6503906 461.843747 58.2089822 461.101567 57.9882812 460.265625 57.9882812 459.015619 57.9882812 457.996098 58.4785107 457.207031 59.4589844 456.417965 60.439458 456.023438 61.7226483 456.023438 63.3085938L456.023438 63.5664062zM473.519531 68.7578125C474.496099 68.7578125 475.31445 68.4824246 475.974609 67.9316406 476.634769 67.3808566 476.992187 66.6679731 477.046875 65.7929688L478.394531 65.7929688C478.355469 66.5664101 478.113283 67.2714812 477.667969 67.9082031 477.222654 68.5449251 476.630863 69.042967 475.892578 69.4023438 475.154293 69.7617205 474.363285 69.9414062 473.519531 69.9414062 471.85546 69.9414062 470.537114 69.363287 469.564453 68.2070312 468.591792 67.0507755 468.105469 65.4961035 468.105469 63.5429688L468.105469 63.1210938C468.105469 61.8710875 468.324217 60.7656298 468.761719 59.8046875 469.199221 58.8437452 469.826168 58.1015651 470.642578 57.578125 471.458988 57.0546849 472.414057 56.7929688 473.507812 56.7929688 474.898444 56.7929688 476.044917 57.2070271 476.947266 58.0351562 477.849614 58.8632854 478.332031 59.9531182 478.394531 61.3046875L477.046875 61.3046875C476.984375 60.312495 476.626956 59.5117218 475.974609 58.9023438 475.322262 58.2929657 474.500005 57.9882812 473.507812 57.9882812 472.242181 57.9882812 471.259769 58.4453079 470.560547 59.359375 469.861325 60.2734421 469.511719 61.5546793 469.511719 63.203125L469.511719 63.6132812C469.511719 65.2304768 469.861325 66.492183 470.560547 67.3984375 471.259769 68.304692 472.246087 68.7578125 473.519531 68.7578125zM490.300781 58.2226562L485.683594 58.2226562 485.683594 69.7070312 484.277344 69.7070312 484.277344 58.2226562 479.835938 58.2226562 479.835938 57.0273438 490.300781 57.0273438 490.300781 58.2226562zM500.929688 57.0273438L502.335938 57.0273438 502.335938 69.7070312 500.929688 69.7070312 500.929688 59.2890625 494.085938 69.7070312 492.691406 69.7070312 492.691406 57.0273438 494.085938 57.0273438 494.085938 67.4570312 500.929688 57.0273438zM116.766484 32L149.98196 61.9847944 141.697068 61.9847944 108.475867 32.0042309 116.766484 32zM126.355247 53.3407715L116.777434 61.9847944 108.494782 61.9847944 118.062141 53.3407715 126.355247 53.3407715zM140.413108 40.6534802L132.119754 40.6534802 141.703041 32.0042309 149.997889 32.0042309 140.413108 40.6534802zM20.7524244 32L41.5135596 61.9847944 34.6699185 61.9847944 17.373162 36.8857196 20.7524244 32zM18.7611533 44.6915222L6.84364107 61.9847944 0 61.9847944 11.9737586 44.6915222 18.7611533 44.6915222zM83.2212438 32L103.982379 61.9847944 97.1387379 61.9847944 79.8419814 36.8857196 83.2212438 32zM74.442578 44.6915222L81.2299727 44.6915222 69.3124604 61.9847944 62.4688194 61.9847944 74.442578 44.6915222zM55.0729185 32L60.4531583 32 60.4531583 50.0543405C60.4576381 51.9104709 60.101494 55.7528949 57.2814599 58.7745199 55.2640566 60.9357745 52.0149573 62.0333255 49.7581336 61.9992293 48.7954744 61.9847944 47.3044476 61.9922607 47.3044476 61.9922607L47.3044476 57.3710982 49.0124958 57.3710982C53.6866693 57.0634852 55.071923 53.3380338 55.0848646 50.3532427L55.0729185 32z"/>
    <path stroke="#1D1D1D" stroke-linecap="square" stroke-width="2" d="M198,0 L198,95"/>
  </g>
</svg>
