<svg xmlns="http://www.w3.org/2000/svg" width="965" height="64" viewBox="0 0 965 64">
  <g fill="none" fill-rule="evenodd" transform="translate(0 1)">
    <path fill="#1D1D1D" d="M257.873047 32.0244141L264.746094 16.5351562 267.15332 16.5351562 257.806641 36.7724609 257.208984 37.9179688C256.035801 40.0097761 254.309256 41.0556641 252.029297 41.0556641 251.354163 41.0556641 250.833986 40.9947923 250.46875 40.8730469L250.651367 39.2128906C250.88379 39.290365 251.348629 39.3291016 252.045898 39.3291016 253.418301 39.3291016 254.519527 38.6263091 255.349609 37.2207031L255.764648 36.4736328 256.810547 34.3154297 247.663086 16.5351562 250.003906 16.5351562 257.873047 32.0244141zM280.617188 38.0175781L287.755859 22.7441406 290.212891 22.7441406 290.212891 40.7070312 288.220703 40.7070312 288.220703 25.9648438 281.314453 40.7070312 279.90332 40.7070312 272.864258 25.6328125 272.864258 40.7070312 270.888672 40.7070312 270.888672 22.7441406 273.495117 22.7441406 280.617188 38.0175781zM309.321289 40.7070312L307.329102 40.7070312 307.329102 32.4726562 297.650391 32.4726562 297.650391 40.7070312 295.658203 40.7070312 295.658203 22.7441406 297.650391 22.7441406 297.650391 30.7958984 307.329102 30.7958984 307.329102 22.7441406 309.321289 22.7441406 309.321289 40.7070312zM316.825195 29.2685547L322.004883 29.2685547C323.333014 29.2685547 324.497879 29.5092749 325.499512 29.9907227 326.501144 30.4721704 327.259275 31.1389931 327.773926 31.9912109 328.288577 32.8434287 328.545898 33.8339787 328.545898 34.9628906 328.545898 36.7005295 327.951015 38.0922799 326.76123 39.1381836 325.571446 40.1840873 323.963877 40.7070312 321.938477 40.7070312L314.849609 40.7070312 314.849609 22.7441406 316.825195 22.7441406 316.825195 29.2685547zM316.825195 30.9619141L316.825195 39.0302734 321.97168 39.0302734C323.399421 39.0302734 324.520015 38.6705765 325.333496 37.9511719 326.146977 37.2317672 326.553711 36.246751 326.553711 34.9960938 326.553711 33.8007753 326.158044 32.8351274 325.366699 32.0991211 324.575354 31.3631148 323.493496 30.9840496 322.121094 30.9619141L316.825195 30.9619141zM334.638672 40.7070312L332.646484 40.7070312 332.646484 22.7441406 334.638672 22.7441406 334.638672 40.7070312zM347.123047 41.0390625C345.595695 41.0390625 344.215013 40.6627642 342.980957 39.9101562 341.746901 39.1575483 340.786787 38.1088934 340.100586 36.7641602 339.414385 35.4194269 339.071289 33.9114667 339.071289 32.2402344L339.071289 31.5263672C339.071289 29.7997961 339.406084 28.2447986 340.075684 26.8613281 340.745283 25.4778577 341.677728 24.3904662 342.873047 23.5991211 344.068365 22.807776 345.363274 22.4121094 346.757812 22.4121094 348.938162 22.4121094 350.667474 23.1564053 351.945801 24.6450195 353.224127 26.1336337 353.863281 28.1673048 353.863281 30.7460938L353.863281 31.8583984 341.046875 31.8583984 341.046875 32.2402344C341.046875 34.2767029 341.630691 35.9728122 342.79834 37.3286133 343.965989 38.6844143 345.435212 39.3623047 347.206055 39.3623047 348.26856 39.3623047 349.206539 39.1686217 350.02002 38.78125 350.8335 38.3938783 351.572262 37.7740928 352.236328 36.921875L353.481445 37.8681641C352.020501 39.9821069 349.901056 41.0390625 347.123047 41.0390625zM346.757812 24.1054688C345.263664 24.1054688 344.004725 24.6533148 342.980957 25.7490234 341.957189 26.844732 341.334637 28.3167225 341.113281 30.1650391L351.887695 30.1650391 351.887695 29.9492188C351.832356 28.2226476 351.339848 26.8170627 350.410156 25.7324219 349.480464 24.647781 348.263028 24.1054688 346.757812 24.1054688zM373.237305 23.9394531C375.517264 23.9394531 377.365553 24.6837491 378.782227 26.1723633 380.1989 27.6609775 380.907227 29.6337768 380.907227 32.0908203L380.907227 32.5224609C380.907227 34.1494222 380.583499 35.613112 379.936035 36.9135742 379.288571 38.2140365 378.358893 39.2267216 377.146973 39.9516602 375.935053 40.6765987 374.543302 41.0390625 372.97168 41.0390625 370.603178 41.0390625 368.685717 40.2504962 367.219238 38.6733398 365.75276 37.0961835 365.019531 34.9905731 365.019531 32.3564453L365.019531 30.7626953C365.019531 27.0439267 365.727858 24.0722767 367.144531 21.8476562 368.561205 19.6230358 370.575508 18.294924 373.1875 17.8632812 374.836597 17.5976549 375.995928 17.237958 376.665527 16.7841797 377.335127 16.3304014 377.669922 15.7106159 377.669922 14.9248047L379.379883 14.9248047C379.379883 15.8544968 379.1862 16.6236949 378.798828 17.2324219 378.411456 17.8411489 377.830408 18.3308901 377.055664 18.7016602 376.280921 19.0724302 375.096688 19.3850899 373.50293 19.6396484 371.676749 19.9274103 370.207525 20.704909 369.095215 21.972168 367.982905 23.2394269 367.260744 24.9355363 366.928711 27.0605469 367.637048 26.1308547 368.525223 25.3782581 369.593262 24.8027344 370.661301 24.2272107 371.87597 23.9394531 373.237305 23.9394531zM367.011719 32.1074219L367.011719 32.5224609C367.011719 34.5478617 367.559565 36.1941668 368.655273 37.4614258 369.750982 38.7286847 371.18977 39.3623047 372.97168 39.3623047 374.764657 39.3623047 376.203445 38.7231509 377.288086 37.4448242 378.372727 36.1664975 378.915039 34.4869896 378.915039 32.40625L378.915039 31.9746094C378.915039 30.1041573 378.364426 28.5768288 377.263184 27.3925781 376.161941 26.2083274 374.720387 25.6162109 372.938477 25.6162109 371.156567 25.6162109 369.723313 26.2166281 368.638672 27.4174805 367.554031 28.6183328 367.011719 30.181631 367.011719 32.1074219zM391.665039 41.0390625C390.137688 41.0390625 388.757005 40.6627642 387.522949 39.9101562 386.288894 39.1575483 385.328779 38.1088934 384.642578 36.7641602 383.956377 35.4194269 383.613281 33.9114667 383.613281 32.2402344L383.613281 31.5263672C383.613281 29.7997961 383.948076 28.2447986 384.617676 26.8613281 385.287275 25.4778577 386.219721 24.3904662 387.415039 23.5991211 388.610358 22.807776 389.905266 22.4121094 391.299805 22.4121094 393.480154 22.4121094 395.209466 23.1564053 396.487793 24.6450195 397.76612 26.1336337 398.405273 28.1673048 398.405273 30.7460938L398.405273 31.8583984 385.588867 31.8583984 385.588867 32.2402344C385.588867 34.2767029 386.172683 35.9728122 387.340332 37.3286133 388.507981 38.6844143 389.977205 39.3623047 391.748047 39.3623047 392.810552 39.3623047 393.748531 39.1686217 394.562012 38.78125 395.375492 38.3938783 396.114254 37.7740928 396.77832 36.921875L398.023438 37.8681641C396.562493 39.9821069 394.443048 41.0390625 391.665039 41.0390625zM391.299805 24.1054688C389.805657 24.1054688 388.546717 24.6533148 387.522949 25.7490234 386.499181 26.844732 385.876629 28.3167225 385.655273 30.1650391L396.429688 30.1650391 396.429688 29.9492188C396.374349 28.2226476 395.881841 26.8170627 394.952148 25.7324219 394.022456 24.647781 392.805021 24.1054688 391.299805 24.1054688zM408.914062 39.3623047C410.297533 39.3623047 411.456864 38.9721719 412.39209 38.1918945 413.327316 37.4116172 413.833658 36.4016989 413.911133 35.1621094L415.820312 35.1621094C415.764974 36.257818 415.421878 37.2566687 414.791016 38.1586914 414.160153 39.0607141 413.321783 39.7662735 412.275879 40.2753906 411.229975 40.7845078 410.109381 41.0390625 408.914062 41.0390625 406.556629 41.0390625 404.688972 40.2200603 403.311035 38.5820312 401.933099 36.9440022 401.244141 34.7415503 401.244141 31.9746094L401.244141 31.3769531C401.244141 29.6061109 401.554033 28.0400459 402.173828 26.6787109 402.793623 25.317376 403.681798 24.2659542 404.838379 23.5244141 405.99496 22.7828739 407.347974 22.4121094 408.897461 22.4121094 410.867523 22.4121094 412.491693 22.9986921 413.77002 24.171875 415.048346 25.3450579 415.73177 26.8889878 415.820312 28.8037109L413.911133 28.8037109C413.822591 27.398105 413.316248 26.2636762 412.39209 25.4003906 411.467932 24.5371051 410.303067 24.1054688 408.897461 24.1054688 407.104483 24.1054688 405.712733 24.7529232 404.722168 26.0478516 403.731603 27.3427799 403.236328 29.1578659 403.236328 31.4931641L403.236328 32.0742188C403.236328 34.3652458 403.731603 36.1526629 404.722168 37.4365234 405.712733 38.720384 407.110017 39.3623047 408.914062 39.3623047zM433.583984 40.7070312L431.591797 40.7070312 431.591797 24.4541016 421.913086 24.4541016 421.913086 40.7070312 419.920898 40.7070312 419.920898 22.7441406 433.583984 22.7441406 433.583984 40.7070312zM453.339844 31.9082031C453.339844 34.7083473 452.720058 36.9301676 451.480469 38.5737305 450.240879 40.2172934 448.58074 41.0390625 446.5 41.0390625 444.042956 41.0390625 442.161465 40.1757899 440.855469 38.4492188L440.855469 47.6132812 438.879883 47.6132812 438.879883 22.7441406 440.722656 22.7441406 440.822266 25.2841797C442.117194 23.3694566 443.993152 22.4121094 446.450195 22.4121094 448.597341 22.4121094 450.282383 23.2255778 451.505371 24.8525391 452.728359 26.4795003 453.339844 28.7372902 453.339844 31.6259766L453.339844 31.9082031zM451.347656 31.5595703C451.347656 29.2685432 450.877283 27.458991 449.936523 26.1308594 448.995764 24.8027277 447.684253 24.1386719 446.001953 24.1386719 444.784499 24.1386719 443.738611 24.4319632 442.864258 25.0185547 441.989904 25.6051462 441.320315 26.4573512 440.855469 27.5751953L440.855469 36.1914062C441.331383 37.2207083 442.01204 38.0065077 442.897461 38.5488281 443.782882 39.0911485 444.82877 39.3623047 446.035156 39.3623047 447.706389 39.3623047 449.009598 38.6954819 449.944824 37.3618164 450.88005 36.0281509 451.347656 34.0940882 451.347656 31.5595703zM456.643555 31.4599609C456.643555 29.7333898 456.97835 28.1783923 457.647949 26.7949219 458.317549 25.4114514 459.263829 24.3351275 460.486816 23.565918 461.709804 22.7967084 463.096021 22.4121094 464.645508 22.4121094 467.036145 22.4121094 468.972974 23.2504799 470.456055 24.9272461 471.939135 26.6040123 472.680664 28.8258325 472.680664 31.5927734L472.680664 32.0078125C472.680664 33.7454514 472.345869 35.3087496 471.67627 36.6977539 471.00667 38.0867582 470.063157 39.1575483 468.845703 39.9101562 467.628249 40.6627642 466.239266 41.0390625 464.678711 41.0390625 462.299142 41.0390625 460.365079 40.200692 458.876465 38.5239258 457.387851 36.8471596 456.643555 34.6253394 456.643555 31.8583984L456.643555 31.4599609zM458.635742 32.0078125C458.635742 34.1549587 459.191889 35.9174736 460.304199 37.2954102 461.416509 38.6733467 462.874665 39.3623047 464.678711 39.3623047 466.471689 39.3623047 467.924311 38.6733467 469.036621 37.2954102 470.148931 35.9174736 470.705078 34.0996207 470.705078 31.8417969L470.705078 31.4599609C470.705078 30.0875582 470.450523 28.8313859 469.941406 27.6914062 469.432289 26.5514266 468.718429 25.6687857 467.799805 25.043457 466.88118 24.4181284 465.829759 24.1054688 464.645508 24.1054688 462.874666 24.1054688 461.430344 24.7999605 460.3125 26.1889648 459.194656 27.5779692 458.635742 29.3958221 458.635742 31.6425781L458.635742 32.0078125zM476.99707 40.7070312L476.99707 22.7441406 483.587891 22.7441406C485.86785 22.7441406 487.61653 23.1508748 488.833984 23.9643555 490.051438 24.7778361 490.660156 25.9703697 490.660156 27.5419922 490.660156 28.438481 490.389 29.238115 489.84668 29.940918 489.304359 30.643721 488.513026 31.1555974 487.472656 31.4765625 488.645839 31.6979178 489.589352 32.2014935 490.303223 32.9873047 491.017093 33.7731159 491.374023 34.6861927 491.374023 35.7265625 491.374023 37.3092527 490.790208 38.5349891 489.622559 39.4038086 488.45491 40.272628 486.803071 40.7070312 484.666992 40.7070312L476.99707 40.7070312zM478.972656 32.4394531L478.972656 39.046875 484.733398 39.046875C486.227547 39.046875 487.378577 38.7591175 488.186523 38.1835938 488.99447 37.60807 489.398438 36.7780002 489.398438 35.6933594 489.398438 34.6972606 488.99447 33.9059274 488.186523 33.3193359 487.378577 32.7327445 486.227547 32.4394531 484.733398 32.4394531L478.972656 32.4394531zM478.972656 30.7792969L484.00293 30.7792969C487.124039 30.7350258 488.68457 29.6725364 488.68457 27.5917969 488.68457 26.4960883 488.255701 25.6964543 487.397949 25.1928711 486.540198 24.6892878 485.270191 24.4375 483.587891 24.4375L478.972656 24.4375 478.972656 30.7792969zM494.694336 31.4599609C494.694336 29.7333898 495.029131 28.1783923 495.69873 26.7949219 496.36833 25.4114514 497.31461 24.3351275 498.537598 23.565918 499.760586 22.7967084 501.146802 22.4121094 502.696289 22.4121094 505.086926 22.4121094 507.023756 23.2504799 508.506836 24.9272461 509.989916 26.6040123 510.731445 28.8258325 510.731445 31.5927734L510.731445 32.0078125C510.731445 33.7454514 510.39665 35.3087496 509.727051 36.6977539 509.057451 38.0867582 508.113938 39.1575483 506.896484 39.9101562 505.67903 40.6627642 504.290047 41.0390625 502.729492 41.0390625 500.349923 41.0390625 498.41586 40.200692 496.927246 38.5239258 495.438632 36.8471596 494.694336 34.6253394 494.694336 31.8583984L494.694336 31.4599609zM496.686523 32.0078125C496.686523 34.1549587 497.24267 35.9174736 498.35498 37.2954102 499.467291 38.6733467 500.925447 39.3623047 502.729492 39.3623047 504.52247 39.3623047 505.975092 38.6733467 507.087402 37.2954102 508.199713 35.9174736 508.755859 34.0996207 508.755859 31.8417969L508.755859 31.4599609C508.755859 30.0875582 508.501305 28.8313859 507.992188 27.6914062 507.48307 26.5514266 506.76921 25.6687857 505.850586 25.043457 504.931962 24.4181284 503.88054 24.1054688 502.696289 24.1054688 500.925447 24.1054688 499.481125 24.7999605 498.363281 26.1889648 497.245437 27.5779692 496.686523 29.3958221 496.686523 31.6425781L496.686523 32.0078125zM514.416992 39.0302734L515.296875 37.8847656C516.691413 35.992178 517.493814 33.2252786 517.704102 29.5839844L518.019531 22.7441406 528.62793 22.7441406 528.62793 39.0302734 530.487305 39.0302734 530.487305 45.9863281 528.511719 45.9863281 528.511719 40.7070312 515.014648 40.7070312 515.014648 45.9863281 513.105469 45.9863281 513.12207 39.0302734 514.416992 39.0302734zM516.708008 39.0302734L526.635742 39.0302734 526.635742 24.6035156 519.912109 24.6035156 519.696289 29.2685547C519.497069 33.5517792 518.500986 36.8056529 516.708008 39.0302734zM548.118164 40.7070312L546.125977 40.7070312 546.125977 32.4726562 536.447266 32.4726562 536.447266 40.7070312 534.455078 40.7070312 534.455078 22.7441406 536.447266 22.7441406 536.447266 30.7958984 546.125977 30.7958984 546.125977 22.7441406 548.118164 22.7441406 548.118164 40.7070312zM555.62207 29.2685547L560.801758 29.2685547C562.129889 29.2685547 563.294754 29.5092749 564.296387 29.9907227 565.298019 30.4721704 566.05615 31.1389931 566.570801 31.9912109 567.085452 32.8434287 567.342773 33.8339787 567.342773 34.9628906 567.342773 36.7005295 566.74789 38.0922799 565.558105 39.1381836 564.368321 40.1840873 562.760752 40.7070312 560.735352 40.7070312L553.646484 40.7070312 553.646484 22.7441406 555.62207 22.7441406 555.62207 29.2685547zM555.62207 30.9619141L555.62207 39.0302734 560.768555 39.0302734C562.196296 39.0302734 563.31689 38.6705765 564.130371 37.9511719 564.943852 37.2317672 565.350586 36.246751 565.350586 34.9960938 565.350586 33.8007753 564.954919 32.8351274 564.163574 32.0991211 563.372229 31.3631148 562.290371 30.9840496 560.917969 30.9619141L555.62207 30.9619141zM573.435547 40.7070312L571.443359 40.7070312 571.443359 22.7441406 573.435547 22.7441406 573.435547 40.7070312zM585.919922 41.0390625C584.39257 41.0390625 583.011888 40.6627642 581.777832 39.9101562 580.543776 39.1575483 579.583662 38.1088934 578.897461 36.7641602 578.21126 35.4194269 577.868164 33.9114667 577.868164 32.2402344L577.868164 31.5263672C577.868164 29.7997961 578.202959 28.2447986 578.872559 26.8613281 579.542158 25.4778577 580.474603 24.3904662 581.669922 23.5991211 582.86524 22.807776 584.160149 22.4121094 585.554688 22.4121094 587.735037 22.4121094 589.464349 23.1564053 590.742676 24.6450195 592.021002 26.1336337 592.660156 28.1673048 592.660156 30.7460938L592.660156 31.8583984 579.84375 31.8583984 579.84375 32.2402344C579.84375 34.2767029 580.427566 35.9728122 581.595215 37.3286133 582.762864 38.6844143 584.232088 39.3623047 586.00293 39.3623047 587.065435 39.3623047 588.003414 39.1686217 588.816895 38.78125 589.630375 38.3938783 590.369137 37.7740928 591.033203 36.921875L592.27832 37.8681641C590.817376 39.9821069 588.697931 41.0390625 585.919922 41.0390625zM585.554688 24.1054688C584.060539 24.1054688 582.8016 24.6533148 581.777832 25.7490234 580.754064 26.844732 580.131512 28.3167225 579.910156 30.1650391L590.68457 30.1650391 590.68457 29.9492188C590.629231 28.2226476 590.136723 26.8170627 589.207031 25.7324219 588.277339 24.647781 587.059903 24.1054688 585.554688 24.1054688zM611.436523 39.3623047C612.819994 39.3623047 613.979325 38.9721719 614.914551 38.1918945 615.849777 37.4116172 616.356119 36.4016989 616.433594 35.1621094L618.342773 35.1621094C618.287435 36.257818 617.944339 37.2566687 617.313477 38.1586914 616.682614 39.0607141 615.844244 39.7662735 614.79834 40.2753906 613.752436 40.7845078 612.631842 41.0390625 611.436523 41.0390625 609.07909 41.0390625 607.211433 40.2200603 605.833496 38.5820312 604.45556 36.9440022 603.766602 34.7415503 603.766602 31.9746094L603.766602 31.3769531C603.766602 29.6061109 604.076494 28.0400459 604.696289 26.6787109 605.316084 25.317376 606.204259 24.2659542 607.36084 23.5244141 608.517421 22.7828739 609.870435 22.4121094 611.419922 22.4121094 613.389984 22.4121094 615.014154 22.9986921 616.29248 24.171875 617.570807 25.3450579 618.254231 26.8889878 618.342773 28.8037109L616.433594 28.8037109C616.345052 27.398105 615.838709 26.2636762 614.914551 25.4003906 613.990393 24.5371051 612.825528 24.1054688 611.419922 24.1054688 609.626944 24.1054688 608.235194 24.7529232 607.244629 26.0478516 606.254064 27.3427799 605.758789 29.1578659 605.758789 31.4931641L605.758789 32.0742188C605.758789 34.3652458 606.254064 36.1526629 607.244629 37.4365234 608.235194 38.720384 609.632478 39.3623047 611.436523 39.3623047zM634.114258 22.7441406L636.106445 22.7441406 636.106445 40.7070312 634.114258 40.7070312 634.114258 25.9482422 624.418945 40.7070312 622.443359 40.7070312 622.443359 22.7441406 624.418945 22.7441406 624.418945 37.5195312 634.114258 22.7441406zM648.05957 39.3623047C649.443041 39.3623047 650.602372 38.9721719 651.537598 38.1918945 652.472824 37.4116172 652.979166 36.4016989 653.056641 35.1621094L654.96582 35.1621094C654.910481 36.257818 654.567386 37.2566687 653.936523 38.1586914 653.305661 39.0607141 652.46729 39.7662735 651.421387 40.2753906 650.375483 40.7845078 649.254889 41.0390625 648.05957 41.0390625 645.702137 41.0390625 643.83448 40.2200603 642.456543 38.5820312 641.078606 36.9440022 640.389648 34.7415503 640.389648 31.9746094L640.389648 31.3769531C640.389648 29.6061109 640.699541 28.0400459 641.319336 26.6787109 641.939131 25.317376 642.827305 24.2659542 643.983887 23.5244141 645.140468 22.7828739 646.493482 22.4121094 648.042969 22.4121094 650.013031 22.4121094 651.637201 22.9986921 652.915527 24.171875 654.193854 25.3450579 654.877278 26.8889878 654.96582 28.8037109L653.056641 28.8037109C652.968099 27.398105 652.461756 26.2636762 651.537598 25.4003906 650.613439 24.5371051 649.448575 24.1054688 648.042969 24.1054688 646.249991 24.1054688 644.858241 24.7529232 643.867676 26.0478516 642.877111 27.3427799 642.381836 29.1578659 642.381836 31.4931641L642.381836 32.0742188C642.381836 34.3652458 642.877111 36.1526629 643.867676 37.4365234 644.858241 38.720384 646.255525 39.3623047 648.05957 39.3623047zM671.833008 24.4375L665.291992 24.4375 665.291992 40.7070312 663.299805 40.7070312 663.299805 24.4375 657.007812 24.4375 657.007812 22.7441406 671.833008 22.7441406 671.833008 24.4375zM682.042969 41.0390625C680.515617 41.0390625 679.134935 40.6627642 677.900879 39.9101562 676.666823 39.1575483 675.706709 38.1088934 675.020508 36.7641602 674.334306 35.4194269 673.991211 33.9114667 673.991211 32.2402344L673.991211 31.5263672C673.991211 29.7997961 674.326006 28.2447986 674.995605 26.8613281 675.665205 25.4778577 676.59765 24.3904662 677.792969 23.5991211 678.988287 22.807776 680.283196 22.4121094 681.677734 22.4121094 683.858084 22.4121094 685.587396 23.1564053 686.865723 24.6450195 688.144049 26.1336337 688.783203 28.1673048 688.783203 30.7460938L688.783203 31.8583984 675.966797 31.8583984 675.966797 32.2402344C675.966797 34.2767029 676.550613 35.9728122 677.718262 37.3286133 678.885911 38.6844143 680.355134 39.3623047 682.125977 39.3623047 683.188482 39.3623047 684.126461 39.1686217 684.939941 38.78125 685.753422 38.3938783 686.492184 37.7740928 687.15625 36.921875L688.401367 37.8681641C686.940422 39.9821069 684.820977 41.0390625 682.042969 41.0390625zM681.677734 24.1054688C680.183586 24.1054688 678.924647 24.6533148 677.900879 25.7490234 676.877111 26.844732 676.254558 28.3167225 676.033203 30.1650391L686.807617 30.1650391 686.807617 29.9492188C686.752278 28.2226476 686.25977 26.8170627 685.330078 25.7324219 684.400386 24.647781 683.18295 24.1054688 681.677734 24.1054688zM702.595703 38.0175781L709.734375 22.7441406 712.191406 22.7441406 712.191406 40.7070312 710.199219 40.7070312 710.199219 25.9648438 703.292969 40.7070312 701.881836 40.7070312 694.842773 25.6328125 694.842773 40.7070312 692.867188 40.7070312 692.867188 22.7441406 695.473633 22.7441406 702.595703 38.0175781zM719.695312 29.2685547L724.875 29.2685547C726.203132 29.2685547 727.367996 29.5092749 728.369629 29.9907227 729.371262 30.4721704 730.129392 31.1389931 730.644043 31.9912109 731.158694 32.8434287 731.416016 33.8339787 731.416016 34.9628906 731.416016 36.7005295 730.821132 38.0922799 729.631348 39.1381836 728.441563 40.1840873 726.833995 40.7070312 724.808594 40.7070312L717.719727 40.7070312 717.719727 22.7441406 719.695312 22.7441406 719.695312 29.2685547zM719.695312 30.9619141L719.695312 39.0302734 724.841797 39.0302734C726.269538 39.0302734 727.390133 38.6705765 728.203613 37.9511719 729.017094 37.2317672 729.423828 36.246751 729.423828 34.9960938 729.423828 33.8007753 729.028162 32.8351274 728.236816 32.0991211 727.445471 31.3631148 726.363614 30.9840496 724.991211 30.9619141L719.695312 30.9619141zM737.508789 40.7070312L735.516602 40.7070312 735.516602 22.7441406 737.508789 22.7441406 737.508789 40.7070312zM758.542969 23.9394531C760.822928 23.9394531 762.671217 24.6837491 764.087891 26.1723633 765.504564 27.6609775 766.212891 29.6337768 766.212891 32.0908203L766.212891 32.5224609C766.212891 34.1494222 765.889163 35.613112 765.241699 36.9135742 764.594235 38.2140365 763.664557 39.2267216 762.452637 39.9516602 761.240717 40.6765987 759.848966 41.0390625 758.277344 41.0390625 755.908842 41.0390625 753.991381 40.2504962 752.524902 38.6733398 751.058424 37.0961835 750.325195 34.9905731 750.325195 32.3564453L750.325195 30.7626953C750.325195 27.0439267 751.033522 24.0722767 752.450195 21.8476562 753.866869 19.6230358 755.881172 18.294924 758.493164 17.8632812 760.142261 17.5976549 761.301592 17.237958 761.971191 16.7841797 762.640791 16.3304014 762.975586 15.7106159 762.975586 14.9248047L764.685547 14.9248047C764.685547 15.8544968 764.491864 16.6236949 764.104492 17.2324219 763.71712 17.8411489 763.136072 18.3308901 762.361328 18.7016602 761.586585 19.0724302 760.402352 19.3850899 758.808594 19.6396484 756.982413 19.9274103 755.513189 20.704909 754.400879 21.972168 753.288569 23.2394269 752.566408 24.9355363 752.234375 27.0605469 752.942712 26.1308547 753.830887 25.3782581 754.898926 24.8027344 755.966965 24.2272107 757.181634 23.9394531 758.542969 23.9394531zM752.317383 32.1074219L752.317383 32.5224609C752.317383 34.5478617 752.865229 36.1941668 753.960938 37.4614258 755.056646 38.7286847 756.495434 39.3623047 758.277344 39.3623047 760.070321 39.3623047 761.509109 38.7231509 762.59375 37.4448242 763.678391 36.1664975 764.220703 34.4869896 764.220703 32.40625L764.220703 31.9746094C764.220703 30.1041573 763.67009 28.5768288 762.568848 27.3925781 761.467605 26.2083274 760.026051 25.6162109 758.244141 25.6162109 756.462231 25.6162109 755.028977 26.2166281 753.944336 27.4174805 752.859695 28.6183328 752.317383 30.181631 752.317383 32.1074219zM776.970703 41.0390625C775.443352 41.0390625 774.062669 40.6627642 772.828613 39.9101562 771.594558 39.1575483 770.634444 38.1088934 769.948242 36.7641602 769.262041 35.4194269 768.918945 33.9114667 768.918945 32.2402344L768.918945 31.5263672C768.918945 29.7997961 769.25374 28.2447986 769.92334 26.8613281 770.59294 25.4778577 771.525385 24.3904662 772.720703 23.5991211 773.916022 22.807776 775.210931 22.4121094 776.605469 22.4121094 778.785818 22.4121094 780.51513 23.1564053 781.793457 24.6450195 783.071784 26.1336337 783.710938 28.1673048 783.710938 30.7460938L783.710938 31.8583984 770.894531 31.8583984 770.894531 32.2402344C770.894531 34.2767029 771.478347 35.9728122 772.645996 37.3286133 773.813645 38.6844143 775.282869 39.3623047 777.053711 39.3623047 778.116216 39.3623047 779.054195 39.1686217 779.867676 38.78125 780.681156 38.3938783 781.419919 37.7740928 782.083984 36.921875L783.329102 37.8681641C781.868157 39.9821069 779.748712 41.0390625 776.970703 41.0390625zM776.605469 24.1054688C775.111321 24.1054688 773.852381 24.6533148 772.828613 25.7490234 771.804845 26.844732 771.182293 28.3167225 770.960938 30.1650391L781.735352 30.1650391 781.735352 29.9492188C781.680013 28.2226476 781.187505 26.8170627 780.257812 25.7324219 779.32812 24.647781 778.110685 24.1054688 776.605469 24.1054688zM798.104492 27.4921875C798.104492 26.4075467 797.700525 25.571943 796.892578 24.9853516 796.084631 24.3987601 794.972338 24.1054688 793.555664 24.1054688 792.271803 24.1054688 791.173344 24.4347298 790.260254 25.0932617 789.347163 25.7517937 788.890625 26.5846304 788.890625 27.5917969L786.915039 27.5917969C786.915039 26.0976488 787.554193 24.8636116 788.83252 23.8896484 790.110846 22.9156852 791.685212 22.4287109 793.555664 22.4287109 795.614268 22.4287109 797.21907 22.8714148 798.370117 23.7568359 799.521165 24.642257 800.09668 25.8984294 800.09668 27.5253906 800.09668 28.3886762 799.831057 29.1689418 799.299805 29.8662109 798.768552 30.56348 797.99382 31.1057923 796.975586 31.4931641 799.277681 32.1240266 800.428711 33.5517467 800.428711 35.7763672 800.428711 37.3922607 799.803392 38.6705682 798.552734 39.6113281 797.302077 40.552088 795.641937 41.0224609 793.572266 41.0224609 791.569 41.0224609 789.908861 40.5188852 788.591797 39.5117188 787.274733 38.5045523 786.616211 37.1875081 786.616211 35.5605469L788.608398 35.5605469C788.608398 36.6451877 789.087072 37.5499638 790.044434 38.2749023 791.001795 38.9998409 792.177727 39.3623047 793.572266 39.3623047 795.088549 39.3623047 796.275549 39.0441113 797.133301 38.4077148 797.991052 37.7713184 798.419922 36.9052789 798.419922 35.8095703 798.419922 34.6031841 798.027022 33.7343777 797.241211 33.203125 796.4554 32.6718723 795.254565 32.40625 793.638672 32.40625L790.899414 32.40625 790.899414 30.6796875 793.970703 30.6796875C796.726576 30.6132809 798.104492 29.5507915 798.104492 27.4921875zM803.699219 31.4599609C803.699219 29.7333898 804.034014 28.1783923 804.703613 26.7949219 805.373213 25.4114514 806.319493 24.3351275 807.54248 23.565918 808.765468 22.7967084 810.151685 22.4121094 811.701172 22.4121094 814.091809 22.4121094 816.028638 23.2504799 817.511719 24.9272461 818.994799 26.6040123 819.736328 28.8258325 819.736328 31.5927734L819.736328 32.0078125C819.736328 33.7454514 819.401533 35.3087496 818.731934 36.6977539 818.062334 38.0867582 817.118821 39.1575483 815.901367 39.9101562 814.683913 40.6627642 813.29493 41.0390625 811.734375 41.0390625 809.354806 41.0390625 807.420743 40.200692 805.932129 38.5239258 804.443515 36.8471596 803.699219 34.6253394 803.699219 31.8583984L803.699219 31.4599609zM805.691406 32.0078125C805.691406 34.1549587 806.247553 35.9174736 807.359863 37.2954102 808.472174 38.6733467 809.93033 39.3623047 811.734375 39.3623047 813.527353 39.3623047 814.979975 38.6733467 816.092285 37.2954102 817.204595 35.9174736 817.760742 34.0996207 817.760742 31.8417969L817.760742 31.4599609C817.760742 30.0875582 817.506187 28.8313859 816.99707 27.6914062 816.487953 26.5514266 815.774093 25.6687857 814.855469 25.043457 813.936844 24.4181284 812.885423 24.1054688 811.701172 24.1054688 809.93033 24.1054688 808.486008 24.7999605 807.368164 26.1889648 806.25032 27.5779692 805.691406 29.3958221 805.691406 31.6425781L805.691406 32.0078125zM837.632812 40.7070312L835.640625 40.7070312 835.640625 24.4541016 825.961914 24.4541016 825.961914 40.7070312 823.969727 40.7070312 823.969727 22.7441406 837.632812 22.7441406 837.632812 40.7070312zM854.28418 40.7070312C854.08496 40.1425753 853.957683 39.3069717 853.902344 38.2001953 853.205075 39.1077519 852.3169 39.8077775 851.237793 40.300293 850.158686 40.7928085 849.015957 41.0390625 847.80957 41.0390625 846.082999 41.0390625 844.685715 40.557622 843.617676 39.5947266 842.549637 38.6318311 842.015625 37.4143954 842.015625 35.9423828 842.015625 34.1936762 842.74332 32.8102264 844.19873 31.7919922 845.654141 30.7737579 847.682279 30.2646484 850.283203 30.2646484L853.885742 30.2646484 853.885742 28.2226562C853.885742 26.9387957 853.490076 25.9288774 852.69873 25.1928711 851.907385 24.4568648 850.753588 24.0888672 849.237305 24.0888672 847.853834 24.0888672 846.708338 24.4430303 845.800781 25.1513672 844.893225 25.8597041 844.439453 26.7119091 844.439453 27.7080078L842.447266 27.6914062C842.447266 26.2636647 843.111321 25.0268607 844.439453 23.980957 845.767585 22.9350534 847.400055 22.4121094 849.336914 22.4121094 851.340179 22.4121094 852.920079 22.9129182 854.07666 23.9145508 855.233241 24.9161834 855.828125 26.3134676 855.861328 28.1064453L855.861328 36.6064453C855.861328 38.3440842 856.043943 39.6445269 856.40918 40.5078125L856.40918 40.7070312 854.28418 40.7070312zM848.041992 39.2792969C849.370124 39.2792969 850.557124 38.9583365 851.603027 38.3164062 852.648931 37.674476 853.409828 36.8167371 853.885742 35.7431641L853.885742 31.7919922 850.333008 31.7919922C848.351878 31.8141277 846.802414 32.1765915 845.68457 32.8793945 844.566726 33.5821975 844.007812 34.5478454 844.007812 35.7763672 844.007812 36.7835337 844.381344 37.6191373 845.128418 38.2832031 845.875492 38.9472689 846.846674 39.2792969 848.041992 39.2792969zM867.797852 39.3623047C869.181322 39.3623047 870.340653 38.9721719 871.275879 38.1918945 872.211105 37.4116172 872.717448 36.4016989 872.794922 35.1621094L874.704102 35.1621094C874.648763 36.257818 874.305667 37.2566687 873.674805 38.1586914 873.043942 39.0607141 872.205572 39.7662735 871.159668 40.2753906 870.113764 40.7845078 868.99317 41.0390625 867.797852 41.0390625 865.440418 41.0390625 863.572761 40.2200603 862.194824 38.5820312 860.816888 36.9440022 860.12793 34.7415503 860.12793 31.9746094L860.12793 31.3769531C860.12793 29.6061109 860.437822 28.0400459 861.057617 26.6787109 861.677412 25.317376 862.565587 24.2659542 863.722168 23.5244141 864.878749 22.7828739 866.231763 22.4121094 867.78125 22.4121094 869.751312 22.4121094 871.375482 22.9986921 872.653809 24.171875 873.932135 25.3450579 874.615559 26.8889878 874.704102 28.8037109L872.794922 28.8037109C872.70638 27.398105 872.200037 26.2636762 871.275879 25.4003906 870.351721 24.5371051 869.186856 24.1054688 867.78125 24.1054688 865.988272 24.1054688 864.596522 24.7529232 863.605957 26.0478516 862.615392 27.3427799 862.120117 29.1578659 862.120117 31.4931641L862.120117 32.0742188C862.120117 34.3652458 862.615392 36.1526629 863.605957 37.4365234 864.596522 38.720384 865.993806 39.3623047 867.797852 39.3623047zM892.467773 40.7070312L890.475586 40.7070312 890.475586 32.4726562 880.796875 32.4726562 880.796875 40.7070312 878.804688 40.7070312 878.804688 22.7441406 880.796875 22.7441406 880.796875 30.7958984 890.475586 30.7958984 890.475586 22.7441406 892.467773 22.7441406 892.467773 40.7070312zM896.68457 31.4599609C896.68457 29.7333898 897.019365 28.1783923 897.688965 26.7949219 898.358565 25.4114514 899.304844 24.3351275 900.527832 23.565918 901.75082 22.7967084 903.137037 22.4121094 904.686523 22.4121094 907.07716 22.4121094 909.01399 23.2504799 910.49707 24.9272461 911.980151 26.6040123 912.72168 28.8258325 912.72168 31.5927734L912.72168 32.0078125C912.72168 33.7454514 912.386885 35.3087496 911.717285 36.6977539 911.047685 38.0867582 910.104173 39.1575483 908.886719 39.9101562 907.669265 40.6627642 906.280281 41.0390625 904.719727 41.0390625 902.340157 41.0390625 900.406095 40.200692 898.91748 38.5239258 897.428866 36.8471596 896.68457 34.6253394 896.68457 31.8583984L896.68457 31.4599609zM898.676758 32.0078125C898.676758 34.1549587 899.232905 35.9174736 900.345215 37.2954102 901.457525 38.6733467 902.915681 39.3623047 904.719727 39.3623047 906.512704 39.3623047 907.965326 38.6733467 909.077637 37.2954102 910.189947 35.9174736 910.746094 34.0996207 910.746094 31.8417969L910.746094 31.4599609C910.746094 30.0875582 910.491539 28.8313859 909.982422 27.6914062 909.473305 26.5514266 908.759445 25.6687857 907.84082 25.043457 906.922196 24.4181284 905.870774 24.1054688 904.686523 24.1054688 902.915681 24.1054688 901.47136 24.7999605 900.353516 26.1889648 899.235671 27.5779692 898.676758 29.3958221 898.676758 31.6425781L898.676758 32.0078125zM923.462891 39.3623047C924.846361 39.3623047 926.005692 38.9721719 926.940918 38.1918945 927.876144 37.4116172 928.382487 36.4016989 928.459961 35.1621094L930.369141 35.1621094C930.313802 36.257818 929.970706 37.2566687 929.339844 38.1586914 928.708981 39.0607141 927.870611 39.7662735 926.824707 40.2753906 925.778803 40.7845078 924.658209 41.0390625 923.462891 41.0390625 921.105457 41.0390625 919.2378 40.2200603 917.859863 38.5820312 916.481927 36.9440022 915.792969 34.7415503 915.792969 31.9746094L915.792969 31.3769531C915.792969 29.6061109 916.102861 28.0400459 916.722656 26.6787109 917.342451 25.317376 918.230626 24.2659542 919.387207 23.5244141 920.543788 22.7828739 921.896802 22.4121094 923.446289 22.4121094 925.416351 22.4121094 927.040521 22.9986921 928.318848 24.171875 929.597174 25.3450579 930.280599 26.8889878 930.369141 28.8037109L928.459961 28.8037109C928.371419 27.398105 927.865076 26.2636762 926.940918 25.4003906 926.01676 24.5371051 924.851895 24.1054688 923.446289 24.1054688 921.653311 24.1054688 920.261561 24.7529232 919.270996 26.0478516 918.280431 27.3427799 917.785156 29.1578659 917.785156 31.4931641L917.785156 32.0742188C917.785156 34.3652458 918.280431 36.1526629 919.270996 37.4365234 920.261561 38.720384 921.658845 39.3623047 923.462891 39.3623047zM947.236328 24.4375L940.695312 24.4375 940.695312 40.7070312 938.703125 40.7070312 938.703125 24.4375 932.411133 24.4375 932.411133 22.7441406 947.236328 22.7441406 947.236328 24.4375zM962.293945 22.7441406L964.286133 22.7441406 964.286133 40.7070312 962.293945 40.7070312 962.293945 25.9482422 952.598633 40.7070312 950.623047 40.7070312 950.623047 22.7441406 952.598633 22.7441406 952.598633 37.5195312 962.293945 22.7441406zM116.766484 16L149.98196 45.9847944 141.697068 45.9847944 108.475867 16.0042309 116.766484 16zM126.355247 37.3407715L116.777434 45.9847944 108.494782 45.9847944 118.062141 37.3407715 126.355247 37.3407715zM140.413108 24.6534802L132.119754 24.6534802 141.703041 16.0042309 149.997889 16.0042309 140.413108 24.6534802zM20.7524244 16L41.5135596 45.9847944 34.6699185 45.9847944 17.373162 20.8857196 20.7524244 16zM18.7611533 28.6915222L6.84364107 45.9847944 0 45.9847944 11.9737586 28.6915222 18.7611533 28.6915222zM83.2212438 16L103.982379 45.9847944 97.1387379 45.9847944 79.8419814 20.8857196 83.2212438 16zM74.442578 28.6915222L81.2299727 28.6915222 69.3124604 45.9847944 62.4688194 45.9847944 74.442578 28.6915222zM55.0729185 16L60.4531583 16 60.4531583 34.0543405C60.4576381 35.9104709 60.101494 39.7528949 57.2814599 42.7745199 55.2640566 44.9357745 52.0149573 46.0333255 49.7581336 45.9992293 48.7954744 45.9847944 47.3044476 45.9922607 47.3044476 45.9922607L47.3044476 41.3710982 49.0124958 41.3710982C53.6866693 41.0634852 55.071923 37.3380338 55.0848646 34.3532427L55.0729185 16z"/>
    <path stroke="#1D1D1D" stroke-linecap="square" stroke-width="2" d="M198,0 L198,62"/>
  </g>
</svg>
