<svg xmlns="http://www.w3.org/2000/svg" width="503" height="97" viewBox="0 0 503 97">
  <g fill="none" fill-rule="evenodd" transform="translate(0 1)">
    <path fill="#1D1D1D" d="M254.601562 31.578125L259.453125 20.6445312 261.152344 20.6445312 254.554688 34.9296875 254.132812 35.7382812C253.304683 37.2148511 252.085946 37.953125 250.476562 37.953125 249.999998 37.953125 249.632814 37.9101567 249.375 37.8242188L249.503906 36.6523438C249.66797 36.7070315 249.996091 36.734375 250.488281 36.734375 251.457036 36.734375 252.234372 36.2382862 252.820312 35.2460938L253.113281 34.71875 253.851562 33.1953125 247.394531 20.6445312 249.046875 20.6445312 254.601562 31.578125zM270.65625 35.8085938L275.695312 25.0273438 277.429688 25.0273438 277.429688 37.7070312 276.023438 37.7070312 276.023438 27.3007812 271.148438 37.7070312 270.152344 37.7070312 265.183594 27.0664062 265.183594 37.7070312 263.789062 37.7070312 263.789062 25.0273438 265.628906 25.0273438 270.65625 35.8085938zM290.917969 37.7070312L289.511719 37.7070312 289.511719 31.8945312 282.679688 31.8945312 282.679688 37.7070312 281.273438 37.7070312 281.273438 25.0273438 282.679688 25.0273438 282.679688 30.7109375 289.511719 30.7109375 289.511719 25.0273438 290.917969 25.0273438 290.917969 37.7070312zM296.214844 29.6328125L299.871094 29.6328125C300.808598 29.6328125 301.630856 29.8027327 302.337891 30.1425781 303.044925 30.4824236 303.580076 30.953122 303.943359 31.5546875 304.306642 32.156253 304.488281 32.8554648 304.488281 33.6523438 304.488281 34.8789124 304.068364 35.8613244 303.228516 36.5996094 302.388668 37.3378943 301.253913 37.7070312 299.824219 37.7070312L294.820312 37.7070312 294.820312 25.0273438 296.214844 25.0273438 296.214844 29.6328125zM296.214844 30.828125L296.214844 36.5234375 299.847656 36.5234375C300.855474 36.5234375 301.646482 36.2695338 302.220703 35.7617188 302.794925 35.2539037 303.082031 34.5585982 303.082031 33.6757812 303.082031 32.832027 302.802737 32.1503932 302.244141 31.6308594 301.685544 31.1113255 300.92188 30.8437501 299.953125 30.828125L296.214844 30.828125zM308.789062 37.7070312L307.382812 37.7070312 307.382812 25.0273438 308.789062 25.0273438 308.789062 37.7070312zM317.601562 37.9414062C316.523432 37.9414062 315.548832 37.6757839 314.677734 37.1445312 313.806636 36.6132786 313.128909 35.8730516 312.644531 34.9238281 312.160154 33.9746046 311.917969 32.9101621 311.917969 31.7304688L311.917969 31.2265625C311.917969 30.0078064 312.154295 28.9101611 312.626953 27.9335938 313.099612 26.9570264 313.757808 26.1894559 314.601562 25.6308594 315.445317 25.0722628 316.35937 24.7929688 317.34375 24.7929688 318.88282 24.7929688 320.103511 25.3183541 321.005859 26.3691406 321.908208 27.4199271 322.359375 28.8554596 322.359375 30.6757812L322.359375 31.4609375 313.3125 31.4609375 313.3125 31.7304688C313.3125 33.1679759 313.724605 34.3652296 314.548828 35.3222656 315.373051 36.2793017 316.41015 36.7578125 317.660156 36.7578125 318.41016 36.7578125 319.072263 36.6210951 319.646484 36.3476562 320.220706 36.0742174 320.742185 35.6367218 321.210938 35.0351562L322.089844 35.703125C321.058589 37.19532 319.56251 37.9414062 317.601562 37.9414062zM317.34375 25.9882812C316.289057 25.9882812 315.400394 26.3749961 314.677734 27.1484375 313.955075 27.9218789 313.515626 28.960931 313.359375 30.265625L320.964844 30.265625 320.964844 30.1132812C320.925781 28.8945252 320.578128 27.9023476 319.921875 27.1367188 319.265622 26.3710899 318.406255 25.9882812 317.34375 25.9882812zM336.035156 25.8710938C337.644539 25.8710938 338.949214 26.3964791 339.949219 27.4472656 340.949224 28.4980521 341.449219 29.8906163 341.449219 31.625L341.449219 31.9296875C341.449219 33.0781307 341.220705 34.1113235 340.763672 35.0292969 340.306638 35.9472702 339.650395 36.6621068 338.794922 37.1738281 337.939449 37.6855494 336.957037 37.9414062 335.847656 37.9414062 334.175773 37.9414062 332.822271 37.3847712 331.787109 36.2714844 330.751948 35.1581976 330.234375 33.6718843 330.234375 31.8125L330.234375 30.6875C330.234375 28.0624869 330.73437 25.9648516 331.734375 24.3945312 332.73438 22.8242109 334.156241 21.8867203 336 21.5820312 337.164068 21.3945303 337.98242 21.1406266 338.455078 20.8203125 338.927737 20.4999984 339.164062 20.0625028 339.164062 19.5078125L340.371094 19.5078125C340.371094 20.1640658 340.234376 20.7070291 339.960938 21.1367188 339.687499 21.5664084 339.277346 21.9121081 338.730469 22.1738281 338.183591 22.4355482 337.347662 22.6562491 336.222656 22.8359375 334.933587 23.0390635 333.896488 23.5878862 333.111328 24.4824219 332.326168 25.3769576 331.816407 26.5742113 331.582031 28.0742188 332.082034 27.4179655 332.708981 26.8867208 333.462891 26.4804688 334.216801 26.0742167 335.074214 25.8710938 336.035156 25.8710938zM331.640625 31.6367188L331.640625 31.9296875C331.640625 33.3593821 332.02734 34.5214799 332.800781 35.4160156 333.574223 36.3105513 334.589837 36.7578125 335.847656 36.7578125 337.113288 36.7578125 338.128902 36.3066451 338.894531 35.4042969 339.66016 34.5019486 340.042969 33.3164136 340.042969 31.8476562L340.042969 31.5429688C340.042969 30.2226496 339.654301 29.1445354 338.876953 28.3085938 338.099605 27.4726521 337.082038 27.0546875 335.824219 27.0546875 334.5664 27.0546875 333.554691 27.4785114 332.789062 28.3261719 332.023434 29.1738324 331.640625 30.277337 331.640625 31.6367188zM349.042969 37.9414062C347.964838 37.9414062 346.990239 37.6757839 346.119141 37.1445312 345.248043 36.6132786 344.570315 35.8730516 344.085938 34.9238281 343.60156 33.9746046 343.359375 32.9101621 343.359375 31.7304688L343.359375 31.2265625C343.359375 30.0078064 343.595701 28.9101611 344.068359 27.9335938 344.541018 26.9570264 345.199215 26.1894559 346.042969 25.6308594 346.886723 25.0722628 347.800776 24.7929688 348.785156 24.7929688 350.324226 24.7929688 351.544917 25.3183541 352.447266 26.3691406 353.349614 27.4199271 353.800781 28.8554596 353.800781 30.6757812L353.800781 31.4609375 344.753906 31.4609375 344.753906 31.7304688C344.753906 33.1679759 345.166012 34.3652296 345.990234 35.3222656 346.814457 36.2793017 347.851556 36.7578125 349.101562 36.7578125 349.851566 36.7578125 350.513669 36.6210951 351.087891 36.3476562 351.662112 36.0742174 352.183591 35.6367218 352.652344 35.0351562L353.53125 35.703125C352.499995 37.19532 351.003916 37.9414062 349.042969 37.9414062zM348.785156 25.9882812C347.730463 25.9882812 346.8418 26.3749961 346.119141 27.1484375 345.396481 27.9218789 344.957032 28.960931 344.800781 30.265625L352.40625 30.265625 352.40625 30.1132812C352.367187 28.8945252 352.019535 27.9023476 351.363281 27.1367188 350.707028 26.3710899 349.847662 25.9882812 348.785156 25.9882812zM361.21875 36.7578125C362.195317 36.7578125 363.013669 36.4824246 363.673828 35.9316406 364.333988 35.3808566 364.691406 34.6679731 364.746094 33.7929688L366.09375 33.7929688C366.054687 34.5664101 365.812502 35.2714812 365.367188 35.9082031 364.921873 36.5449251 364.330082 37.042967 363.591797 37.4023438 362.853512 37.7617205 362.062504 37.9414062 361.21875 37.9414062 359.554679 37.9414062 358.236333 37.363287 357.263672 36.2070312 356.291011 35.0507755 355.804688 33.4961035 355.804688 31.5429688L355.804688 31.1210938C355.804688 29.8710875 356.023435 28.7656298 356.460938 27.8046875 356.89844 26.8437452 357.525387 26.1015651 358.341797 25.578125 359.158207 25.0546849 360.113276 24.7929688 361.207031 24.7929688 362.597663 24.7929688 363.744136 25.2070271 364.646484 26.0351562 365.548833 26.8632854 366.03125 27.9531182 366.09375 29.3046875L364.746094 29.3046875C364.683593 28.312495 364.326175 27.5117218 363.673828 26.9023438 363.021481 26.2929657 362.199224 25.9882812 361.207031 25.9882812 359.9414 25.9882812 358.958988 26.4453079 358.259766 27.359375 357.560543 28.2734421 357.210938 29.5546793 357.210938 31.203125L357.210938 31.6132812C357.210938 33.2304768 357.560543 34.492183 358.259766 35.3984375 358.958988 36.304692 359.945306 36.7578125 361.21875 36.7578125zM378.632812 37.7070312L377.226562 37.7070312 377.226562 26.234375 370.394531 26.234375 370.394531 37.7070312 368.988281 37.7070312 368.988281 25.0273438 378.632812 25.0273438 378.632812 37.7070312zM392.578125 31.4960938C392.578125 33.4726661 392.140629 35.0410098 391.265625 36.2011719 390.390621 37.3613339 389.218757 37.9414062 387.75 37.9414062 386.015616 37.9414062 384.687505 37.3320373 383.765625 36.1132812L383.765625 42.5820312 382.371094 42.5820312 382.371094 25.0273438 383.671875 25.0273438 383.742188 26.8203125C384.656255 25.4687432 385.98046 24.7929688 387.714844 24.7929688 389.230476 24.7929688 390.419918 25.3671818 391.283203 26.515625 392.146489 27.6640682 392.578125 29.2578023 392.578125 31.296875L392.578125 31.4960938zM391.171875 31.25C391.171875 29.6328044 390.839847 28.3554734 390.175781 27.4179688 389.511715 26.4804641 388.585943 26.0117188 387.398438 26.0117188 386.539058 26.0117188 385.800784 26.2187479 385.183594 26.6328125 384.566403 27.0468771 384.093752 27.6484336 383.765625 28.4375L383.765625 34.5195312C384.101564 35.2460974 384.582028 35.8007793 385.207031 36.1835938 385.832034 36.5664082 386.570308 36.7578125 387.421875 36.7578125 388.601568 36.7578125 389.521481 36.2871141 390.181641 35.3457031 390.8418 34.4042922 391.171875 33.0390714 391.171875 31.25zM394.910156 31.1796875C394.910156 29.9609314 395.146482 28.8632861 395.619141 27.8867188 396.091799 26.9101514 396.759761 26.1503933 397.623047 25.6074219 398.486332 25.0644504 399.464838 24.7929688 400.558594 24.7929688 402.246102 24.7929688 403.613276 25.3847597 404.660156 26.5683594 405.707036 27.751959 406.230469 29.3203027 406.230469 31.2734375L406.230469 31.5664062C406.230469 32.7929749 405.994143 33.8964795 405.521484 34.8769531 405.048826 35.8574268 404.382817 36.6132786 403.523438 37.1445312 402.664058 37.6757839 401.683599 37.9414062 400.582031 37.9414062 398.902335 37.9414062 397.537115 37.3496153 396.486328 36.1660156 395.435542 34.982416 394.910156 33.4140723 394.910156 31.4609375L394.910156 31.1796875zM396.316406 31.5664062C396.316406 33.0820388 396.70898 34.326167 397.494141 35.2988281 398.279301 36.2714892 399.308587 36.7578125 400.582031 36.7578125 401.847663 36.7578125 402.873043 36.2714892 403.658203 35.2988281 404.443363 34.326167 404.835938 33.0429767 404.835938 31.4492188L404.835938 31.1796875C404.835938 30.2109327 404.656252 29.3242228 404.296875 28.5195312 403.937498 27.7148397 403.433597 27.0917991 402.785156 26.6503906 402.136716 26.2089822 401.394535 25.9882812 400.558594 25.9882812 399.308587 25.9882812 398.289066 26.4785107 397.5 27.4589844 396.710934 28.439458 396.316406 29.7226483 396.316406 31.3085938L396.316406 31.5664062zM409.277344 37.7070312L409.277344 25.0273438 413.929688 25.0273438C415.539071 25.0273438 416.773433 25.3144503 417.632812 25.8886719 418.492192 26.4628935 418.921875 27.304682 418.921875 28.4140625 418.921875 29.0468782 418.730471 29.6113256 418.347656 30.1074219 417.964842 30.6035181 417.406254 30.9648426 416.671875 31.1914062 417.500004 31.347657 418.166013 31.7031222 418.669922 32.2578125 419.173831 32.8125028 419.425781 33.4570276 419.425781 34.1914062 419.425781 35.3085993 419.013676 36.1738251 418.189453 36.7871094 417.36523 37.4003937 416.199226 37.7070312 414.691406 37.7070312L409.277344 37.7070312zM410.671875 31.8710938L410.671875 36.5351562 414.738281 36.5351562C415.792974 36.5351562 416.605466 36.3320333 417.175781 35.9257812 417.746097 35.5195292 418.03125 34.9335976 418.03125 34.1679688 418.03125 33.4648402 417.746097 32.9062521 417.175781 32.4921875 416.605466 32.0781229 415.792974 31.8710938 414.738281 31.8710938L410.671875 31.8710938zM410.671875 30.6992188L414.222656 30.6992188C416.425792 30.6679686 417.527344 29.9179761 417.527344 28.4492188 417.527344 27.6757774 417.224612 27.1113299 416.619141 26.7558594 416.013669 26.4003888 415.117193 26.2226562 413.929688 26.2226562L410.671875 26.2226562 410.671875 30.6992188zM421.769531 31.1796875C421.769531 29.9609314 422.005857 28.8632861 422.478516 27.8867188 422.951174 26.9101514 423.619136 26.1503933 424.482422 25.6074219 425.345707 25.0644504 426.324213 24.7929688 427.417969 24.7929688 429.105477 24.7929688 430.472651 25.3847597 431.519531 26.5683594 432.566411 27.751959 433.089844 29.3203027 433.089844 31.2734375L433.089844 31.5664062C433.089844 32.7929749 432.853518 33.8964795 432.380859 34.8769531 431.908201 35.8574268 431.242192 36.6132786 430.382812 37.1445312 429.523433 37.6757839 428.542974 37.9414062 427.441406 37.9414062 425.76171 37.9414062 424.39649 37.3496153 423.345703 36.1660156 422.294917 34.982416 421.769531 33.4140723 421.769531 31.4609375L421.769531 31.1796875zM423.175781 31.5664062C423.175781 33.0820388 423.568355 34.326167 424.353516 35.2988281 425.138676 36.2714892 426.167962 36.7578125 427.441406 36.7578125 428.707038 36.7578125 429.732418 36.2714892 430.517578 35.2988281 431.302738 34.326167 431.695312 33.0429767 431.695312 31.4492188L431.695312 31.1796875C431.695312 30.2109327 431.515627 29.3242228 431.15625 28.5195312 430.796873 27.7148397 430.292972 27.0917991 429.644531 26.6503906 428.996091 26.2089822 428.25391 25.9882812 427.417969 25.9882812 426.167962 25.9882812 425.148441 26.4785107 424.359375 27.4589844 423.570309 28.439458 423.175781 29.7226483 423.175781 31.3085938L423.175781 31.5664062zM435.691406 36.5234375L436.3125 35.7148438C437.29688 34.3788996 437.863281 32.4257941 438.011719 29.8554688L438.234375 25.0273438 445.722656 25.0273438 445.722656 36.5234375 447.035156 36.5234375 447.035156 41.4335938 445.640625 41.4335938 445.640625 37.7070312 436.113281 37.7070312 436.113281 41.4335938 434.765625 41.4335938 434.777344 36.5234375 435.691406 36.5234375zM437.308594 36.5234375L444.316406 36.5234375 444.316406 26.3398438 439.570312 26.3398438 439.417969 29.6328125C439.277343 32.6562651 438.574225 34.9531171 437.308594 36.5234375zM459.480469 37.7070312L458.074219 37.7070312 458.074219 31.8945312 451.242188 31.8945312 451.242188 37.7070312 449.835938 37.7070312 449.835938 25.0273438 451.242188 25.0273438 451.242188 30.7109375 458.074219 30.7109375 458.074219 25.0273438 459.480469 25.0273438 459.480469 37.7070312zM464.777344 29.6328125L468.433594 29.6328125C469.371098 29.6328125 470.193356 29.8027327 470.900391 30.1425781 471.607425 30.4824236 472.142576 30.953122 472.505859 31.5546875 472.869142 32.156253 473.050781 32.8554648 473.050781 33.6523438 473.050781 34.8789124 472.630864 35.8613244 471.791016 36.5996094 470.951168 37.3378943 469.816413 37.7070312 468.386719 37.7070312L463.382812 37.7070312 463.382812 25.0273438 464.777344 25.0273438 464.777344 29.6328125zM464.777344 30.828125L464.777344 36.5234375 468.410156 36.5234375C469.417974 36.5234375 470.208982 36.2695338 470.783203 35.7617188 471.357425 35.2539037 471.644531 34.5585982 471.644531 33.6757812 471.644531 32.832027 471.365237 32.1503932 470.806641 31.6308594 470.248044 31.1113255 469.48438 30.8437501 468.515625 30.828125L464.777344 30.828125zM477.351562 37.7070312L475.945312 37.7070312 475.945312 25.0273438 477.351562 25.0273438 477.351562 37.7070312zM486.164062 37.9414062C485.085932 37.9414062 484.111332 37.6757839 483.240234 37.1445312 482.369136 36.6132786 481.691409 35.8730516 481.207031 34.9238281 480.722654 33.9746046 480.480469 32.9101621 480.480469 31.7304688L480.480469 31.2265625C480.480469 30.0078064 480.716795 28.9101611 481.189453 27.9335938 481.662112 26.9570264 482.320308 26.1894559 483.164062 25.6308594 484.007817 25.0722628 484.92187 24.7929688 485.90625 24.7929688 487.44532 24.7929688 488.666011 25.3183541 489.568359 26.3691406 490.470708 27.4199271 490.921875 28.8554596 490.921875 30.6757812L490.921875 31.4609375 481.875 31.4609375 481.875 31.7304688C481.875 33.1679759 482.287105 34.3652296 483.111328 35.3222656 483.935551 36.2793017 484.97265 36.7578125 486.222656 36.7578125 486.97266 36.7578125 487.634763 36.6210951 488.208984 36.3476562 488.783206 36.0742174 489.304685 35.6367218 489.773438 35.0351562L490.652344 35.703125C489.621089 37.19532 488.12501 37.9414062 486.164062 37.9414062zM485.90625 25.9882812C484.851557 25.9882812 483.962894 26.3749961 483.240234 27.1484375 482.517575 27.9218789 482.078126 28.960931 481.921875 30.265625L489.527344 30.265625 489.527344 30.1132812C489.488281 28.8945252 489.140628 27.9023476 488.484375 27.1367188 487.828122 26.3710899 486.968755 25.9882812 485.90625 25.9882812zM253.265625 68.7578125C254.242192 68.7578125 255.060544 68.4824246 255.720703 67.9316406 256.380863 67.3808566 256.738281 66.6679731 256.792969 65.7929688L258.140625 65.7929688C258.101562 66.5664101 257.859377 67.2714812 257.414062 67.9082031 256.968748 68.5449251 256.376957 69.042967 255.638672 69.4023438 254.900387 69.7617205 254.109379 69.9414062 253.265625 69.9414062 251.601554 69.9414062 250.283208 69.363287 249.310547 68.2070312 248.337886 67.0507755 247.851562 65.4961035 247.851562 63.5429688L247.851562 63.1210938C247.851562 61.8710875 248.07031 60.7656298 248.507812 59.8046875 248.945315 58.8437452 249.572262 58.1015651 250.388672 57.578125 251.205082 57.0546849 252.160151 56.7929688 253.253906 56.7929688 254.644538 56.7929688 255.791011 57.2070271 256.693359 58.0351562 257.595708 58.8632854 258.078125 59.9531182 258.140625 61.3046875L256.792969 61.3046875C256.730468 60.312495 256.37305 59.5117218 255.720703 58.9023438 255.068356 58.2929657 254.246099 57.9882812 253.253906 57.9882812 251.988275 57.9882812 251.005863 58.4453079 250.306641 59.359375 249.607418 60.2734421 249.257812 61.5546793 249.257812 63.203125L249.257812 63.6132812C249.257812 65.2304768 249.607418 66.492183 250.306641 67.3984375 251.005863 68.304692 251.992181 68.7578125 253.265625 68.7578125zM269.273438 57.0273438L270.679688 57.0273438 270.679688 69.7070312 269.273438 69.7070312 269.273438 59.2890625 262.429688 69.7070312 261.035156 69.7070312 261.035156 57.0273438 262.429688 57.0273438 262.429688 67.4570312 269.273438 57.0273438zM279.117188 68.7578125C280.093755 68.7578125 280.912106 68.4824246 281.572266 67.9316406 282.232425 67.3808566 282.589843 66.6679731 282.644531 65.7929688L283.992188 65.7929688C283.953125 66.5664101 283.71094 67.2714812 283.265625 67.9082031 282.82031 68.5449251 282.228519 69.042967 281.490234 69.4023438 280.751949 69.7617205 279.960942 69.9414062 279.117188 69.9414062 277.453117 69.9414062 276.13477 69.363287 275.162109 68.2070312 274.189448 67.0507755 273.703125 65.4961035 273.703125 63.5429688L273.703125 63.1210938C273.703125 61.8710875 273.921873 60.7656298 274.359375 59.8046875 274.796877 58.8437452 275.423824 58.1015651 276.240234 57.578125 277.056645 57.0546849 278.011713 56.7929688 279.105469 56.7929688 280.496101 56.7929688 281.642574 57.2070271 282.544922 58.0351562 283.44727 58.8632854 283.929687 59.9531182 283.992188 61.3046875L282.644531 61.3046875C282.582031 60.312495 282.224613 59.5117218 281.572266 58.9023438 280.919919 58.2929657 280.097661 57.9882812 279.105469 57.9882812 277.839837 57.9882812 276.857425 58.4453079 276.158203 59.359375 275.458981 60.2734421 275.109375 61.5546793 275.109375 63.203125L275.109375 63.6132812C275.109375 65.2304768 275.458981 66.492183 276.158203 67.3984375 276.857425 68.304692 277.843744 68.7578125 279.117188 68.7578125zM295.898438 58.2226562L291.28125 58.2226562 291.28125 69.7070312 289.875 69.7070312 289.875 58.2226562 285.433594 58.2226562 285.433594 57.0273438 295.898438 57.0273438 295.898438 58.2226562zM303.105469 69.9414062C302.027338 69.9414062 301.052739 69.6757839 300.181641 69.1445312 299.310543 68.6132786 298.632815 67.8730516 298.148438 66.9238281 297.66406 65.9746046 297.421875 64.9101621 297.421875 63.7304688L297.421875 63.2265625C297.421875 62.0078064 297.658201 60.9101611 298.130859 59.9335938 298.603518 58.9570264 299.261715 58.1894559 300.105469 57.6308594 300.949223 57.0722628 301.863276 56.7929688 302.847656 56.7929688 304.386726 56.7929688 305.607417 57.3183541 306.509766 58.3691406 307.412114 59.4199271 307.863281 60.8554596 307.863281 62.6757812L307.863281 63.4609375 298.816406 63.4609375 298.816406 63.7304688C298.816406 65.1679759 299.228512 66.3652296 300.052734 67.3222656 300.876957 68.2793017 301.914056 68.7578125 303.164062 68.7578125 303.914066 68.7578125 304.576169 68.6210951 305.150391 68.3476562 305.724612 68.0742174 306.246091 67.6367218 306.714844 67.0351562L307.59375 67.703125C306.562495 69.19532 305.066416 69.9414062 303.105469 69.9414062zM302.847656 57.9882812C301.792963 57.9882812 300.9043 58.3749961 300.181641 59.1484375 299.458981 59.9218789 299.019532 60.960931 298.863281 62.265625L306.46875 62.265625 306.46875 62.1132812C306.429687 60.8945252 306.082035 59.9023476 305.425781 59.1367188 304.769528 58.3710899 303.910162 57.9882812 302.847656 57.9882812zM317.613281 67.8085938L322.652344 57.0273438 324.386719 57.0273438 324.386719 69.7070312 322.980469 69.7070312 322.980469 59.3007812 318.105469 69.7070312 317.109375 69.7070312 312.140625 59.0664062 312.140625 69.7070312 310.746094 69.7070312 310.746094 57.0273438 312.585938 57.0273438 317.613281 67.8085938zM329.683594 61.6328125L333.339844 61.6328125C334.277348 61.6328125 335.099606 61.8027327 335.806641 62.1425781 336.513675 62.4824236 337.048826 62.953122 337.412109 63.5546875 337.775392 64.156253 337.957031 64.8554648 337.957031 65.6523438 337.957031 66.8789124 337.537114 67.8613244 336.697266 68.5996094 335.857418 69.3378943 334.722663 69.7070312 333.292969 69.7070312L328.289062 69.7070312 328.289062 57.0273438 329.683594 57.0273438 329.683594 61.6328125zM329.683594 62.828125L329.683594 68.5234375 333.316406 68.5234375C334.324224 68.5234375 335.115232 68.2695338 335.689453 67.7617188 336.263675 67.2539037 336.550781 66.5585982 336.550781 65.6757812 336.550781 64.832027 336.271487 64.1503932 335.712891 63.6308594 335.154294 63.1113255 334.39063 62.8437501 333.421875 62.828125L329.683594 62.828125zM342.257812 69.7070312L340.851562 69.7070312 340.851562 57.0273438 342.257812 57.0273438 342.257812 69.7070312zM357.105469 57.8710938C358.714852 57.8710938 360.019526 58.3964791 361.019531 59.4472656 362.019536 60.4980521 362.519531 61.8906163 362.519531 63.625L362.519531 63.9296875C362.519531 65.0781307 362.291018 66.1113235 361.833984 67.0292969 361.376951 67.9472702 360.720707 68.6621068 359.865234 69.1738281 359.009761 69.6855494 358.027349 69.9414062 356.917969 69.9414062 355.246085 69.9414062 353.892583 69.3847712 352.857422 68.2714844 351.82226 67.1581976 351.304688 65.6718843 351.304688 63.8125L351.304688 62.6875C351.304688 60.0624869 351.804683 57.9648516 352.804688 56.3945312 353.804692 54.8242109 355.226553 53.8867203 357.070312 53.5820312 358.234381 53.3945303 359.052732 53.1406266 359.525391 52.8203125 359.998049 52.4999984 360.234375 52.0625028 360.234375 51.5078125L361.441406 51.5078125C361.441406 52.1640658 361.304689 52.7070291 361.03125 53.1367188 360.757811 53.5664084 360.347659 53.9121081 359.800781 54.1738281 359.253904 54.4355482 358.417974 54.6562491 357.292969 54.8359375 356.0039 55.0390635 354.966801 55.5878862 354.181641 56.4824219 353.39648 57.3769576 352.88672 58.5742112 352.652344 60.0742188 353.152346 59.4179655 353.779293 58.8867208 354.533203 58.4804688 355.287113 58.0742167 356.144526 57.8710938 357.105469 57.8710938zM352.710938 63.6367188L352.710938 63.9296875C352.710938 65.3593821 353.097652 66.5214799 353.871094 67.4160156 354.644535 68.3105513 355.66015 68.7578125 356.917969 68.7578125 358.1836 68.7578125 359.199215 68.3066451 359.964844 67.4042969 360.730473 66.5019486 361.113281 65.3164136 361.113281 63.8476562L361.113281 63.5429688C361.113281 62.2226496 360.724613 61.1445354 359.947266 60.3085938 359.169918 59.4726521 358.15235 59.0546875 356.894531 59.0546875 355.636712 59.0546875 354.625004 59.4785114 353.859375 60.3261719 353.093746 61.1738324 352.710938 62.277337 352.710938 63.6367188zM370.113281 69.9414062C369.035151 69.9414062 368.060551 69.6757839 367.189453 69.1445312 366.318355 68.6132786 365.640627 67.8730516 365.15625 66.9238281 364.671873 65.9746046 364.429688 64.9101621 364.429688 63.7304688L364.429688 63.2265625C364.429688 62.0078064 364.666013 60.9101611 365.138672 59.9335938 365.61133 58.9570264 366.269527 58.1894559 367.113281 57.6308594 367.957035 57.0722628 368.871089 56.7929688 369.855469 56.7929688 371.394539 56.7929688 372.61523 57.3183541 373.517578 58.3691406 374.419926 59.4199271 374.871094 60.8554596 374.871094 62.6757812L374.871094 63.4609375 365.824219 63.4609375 365.824219 63.7304688C365.824219 65.1679759 366.236324 66.3652296 367.060547 67.3222656 367.88477 68.2793017 368.921869 68.7578125 370.171875 68.7578125 370.921879 68.7578125 371.583982 68.6210951 372.158203 68.3476562 372.732425 68.0742174 373.253904 67.6367218 373.722656 67.0351562L374.601562 67.703125C373.570307 69.19532 372.074229 69.9414062 370.113281 69.9414062zM369.855469 57.9882812C368.800776 57.9882812 367.912113 58.3749961 367.189453 59.1484375 366.466793 59.9218789 366.027345 60.960931 365.871094 62.265625L373.476562 62.265625 373.476562 62.1132812C373.4375 60.8945252 373.089847 59.9023476 372.433594 59.1367188 371.77734 58.3710899 370.917974 57.9882812 369.855469 57.9882812zM385.03125 60.3789062C385.03125 59.6132774 384.746097 59.0234396 384.175781 58.609375 383.605466 58.1953104 382.820317 57.9882812 381.820312 57.9882812 380.914058 57.9882812 380.138675 58.2207008 379.494141 58.6855469 378.849606 59.1503929 378.527344 59.7382777 378.527344 60.4492188L377.132812 60.4492188C377.132812 59.394526 377.58398 58.5234409 378.486328 57.8359375 379.388676 57.1484341 380.499993 56.8046875 381.820312 56.8046875 383.273445 56.8046875 384.406246 57.1171844 385.21875 57.7421875 386.031254 58.3671906 386.4375 59.2539005 386.4375 60.4023438 386.4375 61.0117218 386.250002 61.5624975 385.875 62.0546875 385.499998 62.5468775 384.953129 62.9296861 384.234375 63.203125 385.859383 63.6484397 386.671875 64.6562421 386.671875 66.2265625 386.671875 67.3671932 386.230473 68.2695279 385.347656 68.9335938 384.464839 69.5976596 383.292976 69.9296875 381.832031 69.9296875 380.417962 69.9296875 379.246098 69.5742223 378.316406 68.8632812 377.386714 68.1523402 376.921875 67.222662 376.921875 66.0742188L378.328125 66.0742188C378.328125 66.8398476 378.666012 67.4785131 379.341797 67.9902344 380.017582 68.5019557 380.847651 68.7578125 381.832031 68.7578125 382.902349 68.7578125 383.740231 68.5332054 384.345703 68.0839844 384.951175 67.6347634 385.253906 67.0234414 385.253906 66.25 385.253906 65.3984332 384.976565 64.7851581 384.421875 64.4101562 383.867185 64.0351544 383.019537 63.8476562 381.878906 63.8476562L379.945312 63.8476562 379.945312 62.6289062 382.113281 62.6289062C384.058603 62.582031 385.03125 61.8320385 385.03125 60.3789062zM388.980469 63.1796875C388.980469 61.9609314 389.216795 60.8632861 389.689453 59.8867188 390.162112 58.9101514 390.830074 58.1503933 391.693359 57.6074219 392.556645 57.0644504 393.535151 56.7929688 394.628906 56.7929688 396.316415 56.7929688 397.683589 57.3847597 398.730469 58.5683594 399.777349 59.751959 400.300781 61.3203027 400.300781 63.2734375L400.300781 63.5664062C400.300781 64.7929749 400.064455 65.8964795 399.591797 66.8769531 399.119138 67.8574268 398.453129 68.6132786 397.59375 69.1445312 396.734371 69.6757839 395.753912 69.9414062 394.652344 69.9414062 392.972648 69.9414062 391.607427 69.3496153 390.556641 68.1660156 389.505854 66.982416 388.980469 65.4140723 388.980469 63.4609375L388.980469 63.1796875zM390.386719 63.5664062C390.386719 65.0820388 390.779293 66.326167 391.564453 67.2988281 392.349613 68.2714892 393.3789 68.7578125 394.652344 68.7578125 395.917975 68.7578125 396.943355 68.2714892 397.728516 67.2988281 398.513676 66.326167 398.90625 65.0429767 398.90625 63.4492188L398.90625 63.1796875C398.90625 62.2109327 398.726564 61.3242228 398.367188 60.5195312 398.007811 59.7148397 397.503909 59.0917991 396.855469 58.6503906 396.207028 58.2089822 395.464848 57.9882812 394.628906 57.9882812 393.3789 57.9882812 392.359379 58.4785107 391.570312 59.4589844 390.781246 60.439458 390.386719 61.7226483 390.386719 63.3085938L390.386719 63.5664062zM412.933594 69.7070312L411.527344 69.7070312 411.527344 58.234375 404.695312 58.234375 404.695312 69.7070312 403.289062 69.7070312 403.289062 57.0273438 412.933594 57.0273438 412.933594 69.7070312zM424.6875 69.7070312C424.546874 69.3085918 424.457031 68.7187539 424.417969 67.9375 423.925779 68.5781282 423.298832 69.0722639 422.537109 69.4199219 421.775387 69.7675799 420.968754 69.9414062 420.117188 69.9414062 418.898431 69.9414062 417.912113 69.6015659 417.158203 68.921875 416.404293 68.2421841 416.027344 67.3828177 416.027344 66.34375 416.027344 65.1093688 416.54101 64.1328161 417.568359 63.4140625 418.595708 62.6953089 420.027335 62.3359375 421.863281 62.3359375L424.40625 62.3359375 424.40625 60.8945312C424.40625 59.9882767 424.126956 59.2753932 423.568359 58.7558594 423.009763 58.2363255 422.195318 57.9765625 421.125 57.9765625 420.148433 57.9765625 419.339847 58.22656 418.699219 58.7265625 418.058591 59.226565 417.738281 59.8281215 417.738281 60.53125L416.332031 60.5195312C416.332031 59.5117137 416.800777 58.6386756 417.738281 57.9003906 418.675786 57.1621057 419.828118 56.7929688 421.195312 56.7929688 422.609382 56.7929688 423.724605 57.1464808 424.541016 57.8535156 425.357426 58.5605504 425.777344 59.5468687 425.800781 60.8125L425.800781 66.8125C425.800781 68.0390686 425.929686 68.9570282 426.1875 69.5664062L426.1875 69.7070312 424.6875 69.7070312zM420.28125 68.6992188C421.218755 68.6992188 422.056637 68.4726585 422.794922 68.0195312 423.533207 67.566404 424.070311 66.9609413 424.40625 66.203125L424.40625 63.4140625 421.898438 63.4140625C420.499993 63.4296876 419.406254 63.6855444 418.617188 64.1816406 417.828121 64.6777369 417.433594 65.3593707 417.433594 66.2265625 417.433594 66.9375036 417.697263 67.5273414 418.224609 67.9960938 418.751956 68.4648461 419.437496 68.6992188 420.28125 68.6992188zM434.226562 68.7578125C435.20313 68.7578125 436.021481 68.4824246 436.681641 67.9316406 437.3418 67.3808566 437.699218 66.6679731 437.753906 65.7929688L439.101562 65.7929688C439.0625 66.5664101 438.820315 67.2714812 438.375 67.9082031 437.929685 68.5449251 437.337894 69.042967 436.599609 69.4023438 435.861324 69.7617205 435.070317 69.9414062 434.226562 69.9414062 432.562492 69.9414062 431.244145 69.363287 430.271484 68.2070312 429.298823 67.0507755 428.8125 65.4961035 428.8125 63.5429688L428.8125 63.1210938C428.8125 61.8710875 429.031248 60.7656298 429.46875 59.8046875 429.906252 58.8437452 430.533199 58.1015651 431.349609 57.578125 432.16602 57.0546849 433.121088 56.7929688 434.214844 56.7929688 435.605476 56.7929688 436.751949 57.2070271 437.654297 58.0351562 438.556645 58.8632854 439.039062 59.9531182 439.101562 61.3046875L437.753906 61.3046875C437.691406 60.312495 437.333988 59.5117218 436.681641 58.9023438 436.029294 58.2929657 435.207036 57.9882812 434.214844 57.9882812 432.949212 57.9882812 431.9668 58.4453079 431.267578 59.359375 430.568356 60.2734421 430.21875 61.5546793 430.21875 63.203125L430.21875 63.6132812C430.21875 65.2304768 430.568356 66.492183 431.267578 67.3984375 431.9668 68.304692 432.953119 68.7578125 434.226562 68.7578125zM451.640625 69.7070312L450.234375 69.7070312 450.234375 63.8945312 443.402344 63.8945312 443.402344 69.7070312 441.996094 69.7070312 441.996094 57.0273438 443.402344 57.0273438 443.402344 62.7109375 450.234375 62.7109375 450.234375 57.0273438 451.640625 57.0273438 451.640625 69.7070312zM454.617188 63.1796875C454.617188 61.9609314 454.853513 60.8632861 455.326172 59.8867188 455.79883 58.9101514 456.466793 58.1503933 457.330078 57.6074219 458.193364 57.0644504 459.17187 56.7929688 460.265625 56.7929688 461.953133 56.7929688 463.320307 57.3847597 464.367188 58.5683594 465.414068 59.751959 465.9375 61.3203027 465.9375 63.2734375L465.9375 63.5664062C465.9375 64.7929749 465.701174 65.8964795 465.228516 66.8769531 464.755857 67.8574268 464.089848 68.6132786 463.230469 69.1445312 462.371089 69.6757839 461.390631 69.9414062 460.289062 69.9414062 458.609367 69.9414062 457.244146 69.3496153 456.193359 68.1660156 455.142573 66.982416 454.617188 65.4140723 454.617188 63.4609375L454.617188 63.1796875zM456.023438 63.5664062C456.023438 65.0820388 456.416012 66.326167 457.201172 67.2988281 457.986332 68.2714892 459.015619 68.7578125 460.289062 68.7578125 461.554694 68.7578125 462.580074 68.2714892 463.365234 67.2988281 464.150395 66.326167 464.542969 65.0429767 464.542969 63.4492188L464.542969 63.1796875C464.542969 62.2109327 464.363283 61.3242228 464.003906 60.5195312 463.644529 59.7148397 463.140628 59.0917991 462.492188 58.6503906 461.843747 58.2089822 461.101567 57.9882812 460.265625 57.9882812 459.015619 57.9882812 457.996098 58.4785107 457.207031 59.4589844 456.417965 60.439458 456.023438 61.7226483 456.023438 63.3085938L456.023438 63.5664062zM473.519531 68.7578125C474.496099 68.7578125 475.31445 68.4824246 475.974609 67.9316406 476.634769 67.3808566 476.992187 66.6679731 477.046875 65.7929688L478.394531 65.7929688C478.355469 66.5664101 478.113283 67.2714812 477.667969 67.9082031 477.222654 68.5449251 476.630863 69.042967 475.892578 69.4023438 475.154293 69.7617205 474.363285 69.9414062 473.519531 69.9414062 471.85546 69.9414062 470.537114 69.363287 469.564453 68.2070312 468.591792 67.0507755 468.105469 65.4961035 468.105469 63.5429688L468.105469 63.1210938C468.105469 61.8710875 468.324217 60.7656298 468.761719 59.8046875 469.199221 58.8437452 469.826168 58.1015651 470.642578 57.578125 471.458988 57.0546849 472.414057 56.7929688 473.507812 56.7929688 474.898444 56.7929688 476.044917 57.2070271 476.947266 58.0351562 477.849614 58.8632854 478.332031 59.9531182 478.394531 61.3046875L477.046875 61.3046875C476.984375 60.312495 476.626956 59.5117218 475.974609 58.9023438 475.322262 58.2929657 474.500005 57.9882812 473.507812 57.9882812 472.242181 57.9882812 471.259769 58.4453079 470.560547 59.359375 469.861325 60.2734421 469.511719 61.5546793 469.511719 63.203125L469.511719 63.6132812C469.511719 65.2304768 469.861325 66.492183 470.560547 67.3984375 471.259769 68.304692 472.246087 68.7578125 473.519531 68.7578125zM490.300781 58.2226562L485.683594 58.2226562 485.683594 69.7070312 484.277344 69.7070312 484.277344 58.2226562 479.835938 58.2226562 479.835938 57.0273438 490.300781 57.0273438 490.300781 58.2226562zM500.929688 57.0273438L502.335938 57.0273438 502.335938 69.7070312 500.929688 69.7070312 500.929688 59.2890625 494.085938 69.7070312 492.691406 69.7070312 492.691406 57.0273438 494.085938 57.0273438 494.085938 67.4570312 500.929688 57.0273438zM116.766484 32L149.98196 61.9847944 141.697068 61.9847944 108.475867 32.0042309 116.766484 32zM126.355247 53.3407715L116.777434 61.9847944 108.494782 61.9847944 118.062141 53.3407715 126.355247 53.3407715zM140.413108 40.6534802L132.119754 40.6534802 141.703041 32.0042309 149.997889 32.0042309 140.413108 40.6534802zM20.7524244 32L41.5135596 61.9847944 34.6699185 61.9847944 17.373162 36.8857196 20.7524244 32zM18.7611533 44.6915222L6.84364107 61.9847944 0 61.9847944 11.9737586 44.6915222 18.7611533 44.6915222zM83.2212438 32L103.982379 61.9847944 97.1387379 61.9847944 79.8419814 36.8857196 83.2212438 32zM74.442578 44.6915222L81.2299727 44.6915222 69.3124604 61.9847944 62.4688194 61.9847944 74.442578 44.6915222zM55.0729185 32L60.4531583 32 60.4531583 50.0543405C60.4576381 51.9104709 60.101494 55.7528949 57.2814599 58.7745199 55.2640566 60.9357745 52.0149573 62.0333255 49.7581336 61.9992293 48.7954744 61.9847944 47.3044476 61.9922607 47.3044476 61.9922607L47.3044476 57.3710982 49.0124958 57.3710982C53.6866693 57.0634852 55.071923 53.3380338 55.0848646 50.3532427L55.0729185 32z"/>
    <path stroke="#1D1D1D" stroke-linecap="square" stroke-width="2" d="M198,0 L198,95"/>
  </g>
</svg>
